<?xml version="1.0" encoding="UTF-8"?>
<svg version="1.1" xmlns="http://www.w3.org/2000/svg" width="559" height="447">
<path d="M0 0 C1.41539062 0.77923828 1.41539062 0.77923828 2.859375 1.57421875 C3.91898437 2.27998047 3.91898437 2.27998047 5 3 C5 3.66 5 4.32 5 5 C5.7425 5.226875 6.485 5.45375 7.25 5.6875 C10.56311379 7.26875885 11.83619823 9.06839761 14 12 C14.66 12.61875 15.32 13.2375 16 13.875 C21.10787814 19.30212053 23.3379559 25.29248588 23.20703125 32.671875 C22.34828488 42.328721 14.23496017 50.1346479 7.48046875 56.39453125 C5.8312762 58.1829696 4.87940359 59.73299477 4 62 C4.30803455 65.18522204 4.30803455 65.18522204 5 68 C5.94875 68.2475 6.8975 68.495 7.875 68.75 C9.25282941 69.15721274 10.62753065 69.57507177 12 70 C13.21042969 70.36738281 13.21042969 70.36738281 14.4453125 70.7421875 C22.39503212 73.48933832 26.51953621 77.89440476 30.8125 85 C37.13148686 100.96375627 35.90817076 119.26611949 30.2109375 135.22265625 C28.35498285 139.47937804 26.08603119 143.50837614 23 147 C22.34 147 21.68 147 21 147 C20.67 147.99 20.34 148.98 20 150 C19.34 150 18.68 150 18 150 C17.67 150.99 17.34 151.98 17 153 C14.671875 154.68359375 14.671875 154.68359375 11.75 156.4375 C4.47058415 160.38283686 4.47058415 160.38283686 0.0625 166.875 C-0.00696276 170.34813818 0.70352507 172.79694429 2 176 C2.66 176 3.32 176 4 176 C5.41696507 177.57054206 6.76106816 179.20746664 8.0625 180.875 C8.77535156 181.77992188 9.48820312 182.68484375 10.22265625 183.6171875 C13.83570294 188.46105229 13.82558898 193.09968974 13 199 C11.42660313 202.65512195 9.55917382 205.94357738 7 209 C6.34 209 5.68 209 5 209 C4.67 209.99 4.34 210.98 4 212 C-4.36343275 216.10568517 -12.23749104 216.01195609 -21 213.109375 C-24.85306287 211.68454446 -28.6765525 210.18969944 -32.5 208.6875 C-67.1250542 195.09087652 -96.95851584 194.46397444 -132.03125 207.94921875 C-139.87818128 210.72661943 -147.9817658 212.78071324 -156 215 C-157.06927734 215.29874023 -158.13855469 215.59748047 -159.24023438 215.90527344 C-166.80729517 218.01510636 -174.39114032 220.04633866 -182 222 C-182.75055664 222.19787109 -183.50111328 222.39574219 -184.27441406 222.59960938 C-199.85543016 226.60418368 -220.92481498 228.60850254 -235.7421875 221.421875 C-238.67541181 219.57465416 -240.86319953 217.7377756 -243 215 C-243.825 214.154375 -244.65 213.30875 -245.5 212.4375 C-255.53790596 200.15135643 -256.10787917 182.6329017 -255.30761719 167.5859375 C-254.71254739 162.583573 -252.72470046 158.40626751 -249 155 C-248.34 155 -247.68 155 -247 155 C-246.773125 154.484375 -246.54625 153.96875 -246.3125 153.4375 C-244.83132493 150.6867463 -243.04234364 148.33605373 -241.12109375 145.87890625 C-238.88492285 142.13117732 -238.84374261 138.02398857 -238.8125 133.75 C-238.79123047 132.44289062 -238.79123047 132.44289062 -238.76953125 131.109375 C-239.46738443 121.6942711 -243.06398789 113.87827145 -247 105.375 C-248.08768095 103.009807 -249.17115191 100.64267252 -250.25 98.2734375 C-250.72953125 97.23622559 -251.2090625 96.19901367 -251.703125 95.13037109 C-257.62356276 80.83973612 -257.56513485 65.39515689 -252.25 51 C-249.13813088 43.55002337 -244.46427853 36.91963508 -239 31 C-238.34 31 -237.68 31 -237 31 C-237 30.34 -237 29.68 -237 29 C-218.15786998 14.20327894 -193.22622381 15.15861424 -170.5 17.75 C-167.66001512 18.14113564 -164.83159626 18.55598233 -162 19 C-131.24043272 24.40139733 -131.24043272 24.40139733 -101 19 C-100.05640625 18.649375 -99.1128125 18.29875 -98.140625 17.9375 C-91.83960945 15.43101868 -85.74452114 12.47658641 -79.625 9.5625 C-63.77839803 2.02056759 -63.77839803 2.02056759 -56 -1 C-55.08661865 -1.36399902 -55.08661865 -1.36399902 -54.15478516 -1.73535156 C-36.95017209 -8.38926306 -16.19061758 -9.72857285 0 0 Z M-124 151 C-125.485 152.98 -125.485 152.98 -127 155 C-123.94736336 155.98120464 -122.05263664 155.98120464 -119 155 C-119.33 154.01 -119.66 153.02 -120 152 C-122.01508358 151.26676204 -122.01508358 151.26676204 -124 151 Z " fill="#C4E7ED" transform="translate(418,19)"/>
<path d="M0 0 C0.66 0.33 1.32 0.66 2 1 C2 4.96 2 8.92 2 13 C2.33 13 2.66 13 3 13 C3.33 14.65 3.66 16.3 4 18 C6.31 18.33 8.62 18.66 11 19 C10.4739075 22.78786597 9.61896089 25.17152224 7 28 C6.34 28 5.68 28 5 28 C4.67 28.99 4.34 29.98 4 31 C3.34 31 2.68 31 2 31 C1.67 31.99 1.34 32.98 1 34 C-1.328125 35.68359375 -1.328125 35.68359375 -4.25 37.4375 C-11.52941585 41.38283686 -11.52941585 41.38283686 -15.9375 47.875 C-16.00696276 51.34813818 -15.29647493 53.79694429 -14 57 C-13.34 57 -12.68 57 -12 57 C-10.58303493 58.57054206 -9.23893184 60.20746664 -7.9375 61.875 C-7.22464844 62.77992188 -6.51179688 63.68484375 -5.77734375 64.6171875 C-2.16429706 69.46105229 -2.17441102 74.09968974 -3 80 C-4.57339687 83.65512195 -6.44082618 86.94357738 -9 90 C-9.66 90 -10.32 90 -11 90 C-11.33 90.99 -11.66 91.98 -12 93 C-20.36343275 97.10568517 -28.23749104 97.01195609 -37 94.109375 C-40.85306287 92.68454446 -44.6765525 91.18969944 -48.5 89.6875 C-83.1250542 76.09087652 -112.95851584 75.46397444 -148.03125 88.94921875 C-155.87818128 91.72661943 -163.9817658 93.78071324 -172 96 C-173.06927734 96.29874023 -174.13855469 96.59748047 -175.24023438 96.90527344 C-182.80729517 99.01510636 -190.39114032 101.04633866 -198 103 C-198.75055664 103.19787109 -199.50111328 103.39574219 -200.27441406 103.59960938 C-215.85543016 107.60418368 -236.92481498 109.60850254 -251.7421875 102.421875 C-254.67541181 100.57465416 -256.86319953 98.7377756 -259 96 C-260.2375 94.7315625 -260.2375 94.7315625 -261.5 93.4375 C-271.53790596 81.15135643 -272.10787917 63.6329017 -271.30761719 48.5859375 C-270.71254739 43.583573 -268.72470046 39.40626751 -265 36 C-264.34 36 -263.68 36 -263 36 C-262.773125 35.484375 -262.54625 34.96875 -262.3125 34.4375 C-260.83132493 31.6867463 -259.04234364 29.33605373 -257.12109375 26.87890625 C-254.43754365 22.38138849 -254.87430574 17.26734615 -254.9375 12.1875 C-254.94201172 11.49462891 -254.94652344 10.80175781 -254.95117188 10.08789062 C-254.96286844 8.39188932 -254.98080076 6.69593297 -255 5 C-252.5705484 8.6441774 -252.83820425 10.71241272 -253 15 C-249.7 15 -246.4 15 -243 15 C-242.67 17.97 -242.34 20.94 -242 24 C-239.03 23.01 -236.06 22.02 -233 21 C-232.34 21.66 -231.68 22.32 -231 23 C-231.375 25.625 -231.375 25.625 -232 28 C-231.34 28.33 -230.68 28.66 -230 29 C-230 29.66 -230 30.32 -230 31 C-220.29381339 31.16831537 -210.67846426 30.64217298 -201 30 C-201 29.01 -201 28.02 -201 27 C-201.99 27 -202.98 27 -204 27 C-204 25.35 -204 23.7 -204 22 C-197.22965626 22.62061484 -191.00672392 24.25211904 -184.5 26.1875 C-183.44280762 26.49703613 -182.38561523 26.80657227 -181.29638672 27.12548828 C-175.12804682 28.96332522 -169.10667591 31.00334892 -163.125 33.375 C-157.61165745 35.55023242 -152.02045433 37.58855765 -146 37 C-145.01 36.34 -144.02 35.68 -143 35 C-140.26009592 35.03143293 -137.71582146 35.55478337 -135 36 C-135.33 35.01 -135.66 34.02 -136 33 C-135.34 33 -134.68 33 -134 33 C-133.34 35.31 -132.68 37.62 -132 40 C-130.02 40 -128.04 40 -126 40 C-125.67 40.99 -125.34 41.98 -125 43 C-122.27239671 42.59591062 -121.00338158 42.00288429 -118.875 40.1875 C-116.17903379 38.13622136 -114.19445151 37.21761255 -111.0625 36.0625 C-107.8510265 34.85582209 -105.36847319 33.73237915 -102.8125 31.4375 C-97.48754675 26.82254052 -90.6171153 25.10544578 -84 23 C-82.98421875 22.66742188 -81.9684375 22.33484375 -80.921875 21.9921875 C-74.84726874 20.04888929 -68.89192778 18.45099987 -62.59375 17.4375 C-60.93789097 17.15819848 -59.28913077 16.82939139 -57.65625 16.4375 C-49.80233311 14.55255995 -42.02237715 14.82084021 -34 15 C-33.01 16.98 -33.01 16.98 -32 19 C-28.7 18.67 -25.4 18.34 -22 18 C-21.34 15.03 -20.68 12.06 -20 9 C-19.67 9 -19.34 9 -19 9 C-19 13.62 -19 18.24 -19 23 C-13.06 23 -7.12 23 -1 23 C-0.67 15.41 -0.34 7.82 0 0 Z " fill="#D4EDF1" transform="translate(434,138)"/>
<path d="M0 0 C1.98 0.66 3.96 1.32 6 2 C5.125 6.875 5.125 6.875 4 8 C3.63239269 10.32817964 3.29758419 12.6618385 3 15 C5.31 15 7.62 15 10 15 C9.938125 13.948125 9.87625 12.89625 9.8125 11.8125 C10.01151394 7.76588326 10.2292932 5.94946208 13 3 C16.6875 2.6875 16.6875 2.6875 20 3 C19.690625 3.680625 19.38125 4.36125 19.0625 5.0625 C17.86629351 8.36965912 17.40994603 11.51545878 17 15 C19.31 15 21.62 15 24 15 C23.9175 14.154375 23.835 13.30875 23.75 12.4375 C24.07537023 7.96365938 25.59932129 5.75106048 28 2 C29.98 2 31.96 2 34 2 C33.125 6.875 33.125 6.875 32 8 C31.63239269 10.32817964 31.29758419 12.6618385 31 15 C33.64 14.67 36.28 14.34 39 14 C39.26554687 13.28972656 39.53109375 12.57945312 39.8046875 11.84765625 C40.33449219 10.46900391 40.33449219 10.46900391 40.875 9.0625 C41.39707031 7.68771484 41.39707031 7.68771484 41.9296875 6.28515625 C43 4 43 4 45 3 C47.25476721 14.27383603 44.66497094 26.5949281 40 37 C36.85000502 38.57499749 34.36459118 37.70833498 31 37 C29.2890625 35.93359375 29.2890625 35.93359375 28 34 C27.78123446 31.33106037 27.71664705 28.96499713 27.8125 26.3125 C27.9053125 22.6928125 27.9053125 22.6928125 28 19 C27.34 26.26 26.68 33.52 26 41 C20.06 41 14.12 41 8 41 C7.505 38.525 7.505 38.525 7 36 C1.06 36.495 1.06 36.495 -5 37 C-6.44207941 34.11584117 -6.09394887 31.58278472 -6.0625 28.375 C-6.05347656 27.18648437 -6.04445313 25.99796875 -6.03515625 24.7734375 C-6.02355469 23.85820312 -6.01195312 22.94296875 -6 22 C-6.99 21.67 -7.98 21.34 -9 21 C-10.1875 18.4375 -10.1875 18.4375 -11 16 C-9.02 15.67 -7.04 15.34 -5 15 C-5.0825 14.13375 -5.165 13.2675 -5.25 12.375 C-4.94171367 8.21313456 -3.43629597 6.32222178 -1 3 C-0.67 2.01 -0.34 1.02 0 0 Z " fill="#D8EFF2" transform="translate(407,120)"/>
<path d="M0 0 C1.32 0.99 2.64 1.98 4 3 C4 2.34 4 1.68 4 1 C6.31 1 8.62 1 11 1 C11.05391993 2.79133978 11.09275571 4.58313899 11.125 6.375 C11.14820313 7.37273437 11.17140625 8.37046875 11.1953125 9.3984375 C11 12 11 12 9 14 C9 14.33 9 14.66 9 15 C9.66 15 10.32 15 11 15 C11 15.99 11 16.98 11 18 C11.84304687 17.97679687 12.68609375 17.95359375 13.5546875 17.9296875 C15.19824219 17.90261719 15.19824219 17.90261719 16.875 17.875 C18.51082031 17.84019531 18.51082031 17.84019531 20.1796875 17.8046875 C23 18 23 18 25 20 C22.36 19.67 19.72 19.34 17 19 C17 20.65 17 22.3 17 24 C17.99 24 18.98 24 20 24 C20 24.99 20 25.98 20 27 C9.93020011 28.35067975 0.17758697 29.31860272 -10 29 C-9.67 28.01 -9.34 27.02 -9 26 C-9.99 25.67 -10.98 25.34 -12 25 C-11.67 23.02 -11.34 21.04 -11 19 C-14.3 19.66 -17.6 20.32 -21 21 C-21 18.36 -21 15.72 -21 13 C-20.28972656 12.93941406 -19.57945312 12.87882813 -18.84765625 12.81640625 C-17.92855469 12.73261719 -17.00945312 12.64882812 -16.0625 12.5625 C-15.14597656 12.48128906 -14.22945312 12.40007812 -13.28515625 12.31640625 C-11.03840268 12.23955024 -11.03840268 12.23955024 -10 11 C-10 8.96994518 -10.00357588 6.93935573 -10.0625 4.91015625 C-10 3 -10 3 -9 1 C-7.700625 1.020625 -6.40125 1.04125 -5.0625 1.0625 C-3.70834367 1.08399454 -2.35243917 1.07148199 -1 1 C-0.67 0.67 -0.34 0.34 0 0 Z " fill="#BDE4EC" transform="translate(213,141)"/>
<path d="M0 0 C6.43056702 6.25194016 10.95053891 11.16814867 11.3125 20.4375 C11.21349916 24.93823043 10.13882957 28.05139156 8 32 C7.01 32.495 7.01 32.495 6 33 C6.80075325 29.73479256 7.67466185 26.49253933 8.5625 23.25 C8.83191406 22.26515625 9.10132813 21.2803125 9.37890625 20.265625 C9.58386719 19.51796875 9.78882813 18.7703125 10 18 C6.89476646 18.08088175 3.79149667 18.1937189 0.6875 18.3125 C-0.19357422 18.33505859 -1.07464844 18.35761719 -1.98242188 18.38085938 C-3.25375977 18.4340332 -3.25375977 18.4340332 -4.55078125 18.48828125 C-5.33106689 18.51446533 -6.11135254 18.54064941 -6.9152832 18.56762695 C-9.46429069 19.09629451 -10.27371307 20.11851308 -12 22 C-12.66 22 -13.32 22 -14 22 C-13.938125 22.721875 -13.87625 23.44375 -13.8125 24.1875 C-14.04321221 27.64818317 -14.86704161 29.27863929 -17 32 C-19.6875 33.3125 -19.6875 33.3125 -22 34 C-22 33.34 -22 32.68 -22 32 C-22.86625 32.2475 -22.86625 32.2475 -23.75 32.5 C-26 33 -26 33 -30 33 C-30 32.34 -30 31.68 -30 31 C-39.24 31 -48.48 31 -58 31 C-55.54347826 24.85869565 -55.54347826 24.85869565 -53 23 C-51.68 23 -50.36 23 -49 23 C-48.67 22.01 -48.34 21.02 -48 20 C-45 18 -45 18 -41.8125 18.375 C-40.884375 18.58125 -39.95625 18.7875 -39 19 C-38.67 19.99 -38.34 20.98 -38 22 C-35.03 22.33 -32.06 22.66 -29 23 C-29.0928125 24.175625 -29.0928125 24.175625 -29.1875 25.375 C-29.125625 26.24125 -29.06375 27.1075 -29 28 C-25.81237635 30.12508244 -23.73487777 30.5020163 -20 31 C-19.9175 29.741875 -19.835 28.48375 -19.75 27.1875 C-19.37676971 24.13133894 -19.26889825 23.27757239 -17.0625 21 C-15 20 -15 20 -13 20 C-12.601276 15.40853739 -12.601276 15.40853739 -14.0625 11.1875 C-16.1530822 9.78702291 -16.1530822 9.78702291 -19.5 9 C-24.09701493 7.68656716 -24.09701493 7.68656716 -26 5 C-26 4.34 -26 3.68 -26 3 C-23.33333333 3 -20.66666667 3 -18 3 C-17.505 3.99 -17.505 3.99 -17 5 C-16.34 4.67 -15.68 4.34 -15 4 C-14.505 5.485 -14.505 5.485 -14 7 C-13.484375 6.835 -12.96875 6.67 -12.4375 6.5 C-9.26636124 5.84951 -6.22781666 5.9379266 -3 6 C-3 5.34 -3 4.68 -3 4 C-2.34 3.67 -1.68 3.34 -1 3 C-0.67 2.01 -0.34 1.02 0 0 Z " fill="#F6FCFC" transform="translate(430,29)"/>
<path d="M0 0 C1.63510979 3.27021959 1.22628299 6.84733751 1.25 10.4375 C1.270625 11.21416016 1.29125 11.99082031 1.3125 12.79101562 C1.35224631 18.55919911 1.35224631 18.55919911 -0.39550781 20.74633789 C-2 22 -2 22 -4 22 C-4.99 25.3 -5.98 28.6 -7 32 C-3.04 31.505 -3.04 31.505 1 31 C0.6875 33.375 0.6875 33.375 0 36 C-3 38 -3 38 -6 38 C-6.33 39.65 -6.66 41.3 -7 43 C-8.958964 42.69147815 -10.91715713 42.3780582 -12.875 42.0625 C-13.96554687 41.88847656 -15.05609375 41.71445313 -16.1796875 41.53515625 C-19 41 -19 41 -21 40 C-21 39.34 -21 38.68 -21 38 C-22.65 37.67 -24.3 37.34 -26 37 C-26 34.69 -26 32.38 -26 30 C-25.01 30 -24.02 30 -23 30 C-21.33445973 24.69960141 -19.72724594 19.52706913 -19 14 C-18.01 14 -17.02 14 -16 14 C-16 13.34 -16 12.68 -16 12 C-15.01 11.67 -14.02 11.34 -13 11 C-11.66336397 9.47093954 -11.66336397 9.47093954 -10.5 7.625 C-5.43829787 0 -5.43829787 0 0 0 Z " fill="#BEE5EB" transform="translate(397,184)"/>
<path d="M0 0 C6.27 0 12.54 0 19 0 C19.0784416 7.45195235 19.00109214 14.61694543 18 22 C12.06 22 6.12 22 0 22 C0 14.74 0 7.48 0 0 Z " fill="#6AB6C2" transform="translate(415,139)"/>
<path d="M0 0 C1.32 0.99 2.64 1.98 4 3 C4 2.34 4 1.68 4 1 C6.31 1 8.62 1 11 1 C11.05391993 2.79133978 11.09275571 4.58313899 11.125 6.375 C11.14820313 7.37273437 11.17140625 8.37046875 11.1953125 9.3984375 C11 12 11 12 9 14 C6 16 6 16 4 16 C3.67 16.66 3.34 17.32 3 18 C2.01 18 1.02 18 0 18 C0 20.64 0 23.28 0 26 C-1.65 26 -3.3 26 -5 26 C-5 23.03 -5 20.06 -5 17 C-6.98 17 -8.96 17 -11 17 C-10.85890014 14.89551062 -10.71195825 12.7914123 -10.5625 10.6875 C-10.48128906 9.51574219 -10.40007812 8.34398437 -10.31640625 7.13671875 C-10 4 -10 4 -9 1 C-7.700625 1.020625 -6.40125 1.04125 -5.0625 1.0625 C-3.70834367 1.08399454 -2.35243917 1.07148199 -1 1 C-0.67 0.67 -0.34 0.34 0 0 Z " fill="#A0DAE3" transform="translate(213,141)"/>
<path d="M0 0 C-4.62 2.64 -9.24 5.28 -14 8 C-12.35 8.99 -10.7 9.98 -9 11 C-8.505 11.845625 -8.01 12.69125 -7.5 13.5625 C-5.6863867 16.50962161 -4.25356528 17.03272384 -1 18 C-1 18.66 -1 19.32 -1 20 C0.65 20.33 2.3 20.66 4 21 C4 21.99 4 22.98 4 24 C3.11739502 23.96334229 2.23479004 23.92668457 1.32543945 23.88891602 C-1.96427564 23.76927034 -5.25166698 23.68171602 -8.54272461 23.61547852 C-9.96399504 23.58037144 -11.38501432 23.5326697 -12.80541992 23.47192383 C-20.79908567 22.81441132 -20.79908567 22.81441132 -28.0090332 25.43334961 C-29.34420425 27.25061826 -30.20336423 28.89619448 -31 31 C-31.37769531 31.80308594 -31.75539062 32.60617188 -32.14453125 33.43359375 C-32.36496094 34.09488281 -32.58539063 34.75617188 -32.8125 35.4375 C-33.204375 36.613125 -33.59625 37.78875 -34 39 C-35.76557969 33.70326093 -32.34518568 28.82232555 -30 24 C-26.87387171 18.6129382 -23.22475391 13.57681674 -19 9 C-18.34 9 -17.68 9 -17 9 C-17 8.34 -17 7.68 -17 7 C-14.6640625 5.30859375 -14.6640625 5.30859375 -11.625 3.4375 C-10.62726563 2.81746094 -9.62953125 2.19742188 -8.6015625 1.55859375 C-4.23342175 -1.05835544 -4.23342175 -1.05835544 0 0 Z " fill="#F2FAFB" transform="translate(198,41)"/>
<path d="M0 0 C0.8125 2.1875 0.8125 2.1875 1 5 C-1.84628216 8.51599561 -4.98438656 10.93792823 -9 13 C-9.66 13 -10.32 13 -11 13 C-11 13.66 -11 14.32 -11 15 C-11.66 15 -12.32 15 -13 15 C-16.6139469 22.03514997 -19.24536646 29.28336581 -21.09375 36.96875 C-22 39 -22 39 -24.09375 40.28125 C-24.7228125 40.5184375 -25.351875 40.755625 -26 41 C-27.74280974 39.25719026 -27.21376316 36.93299343 -27.25 34.5625 C-27.19624055 27.04513643 -25.47166197 20.6414403 -22 14 C-21.34 14 -20.68 14 -20 14 C-19.773125 13.443125 -19.54625 12.88625 -19.3125 12.3125 C-15.16865155 5.01143368 -8.4228577 -0.2276448 0 0 Z " fill="#EEF8F8" transform="translate(177,36)"/>
<path d="M0 0 C0.33 0.66 0.66 1.32 1 2 C1.66 2 2.32 2 3 2 C5.04169485 4.90548882 6 6.40142046 6 10 C7.32 10 8.64 10 10 10 C10 9.01 10 8.02 10 7 C12.97 7.495 12.97 7.495 16 8 C16 7.34 16 6.68 16 6 C19 5 19 5 22 6 C23.125 13.75 23.125 13.75 22 16 C13.09356386 18.8057848 4.27209463 19.41585806 -5 19 C-5.38218767 17.34385343 -5.71395102 15.67542976 -6 14 C-5.67 13.67 -5.34 13.34 -5 13 C-4.79700913 10.48291327 -4.68087304 7.9682381 -4.57421875 5.4453125 C-4 3 -4 3 -1.95703125 1.1796875 C-1.31121094 0.79039062 -0.66539062 0.40109375 0 0 Z " fill="#BAE5EC" transform="translate(221,223)"/>
<path d="M0 0 C1.32 2.31 2.64 4.62 4 7 C5.32 6.67 6.64 6.34 8 6 C7.67 7.32 7.34 8.64 7 10 C6.34 10 5.68 10 5 10 C5 10.66 5 11.32 5 12 C5.66 12.33 6.32 12.66 7 13 C5.68 13.33 4.36 13.66 3 14 C3 14.99 3 15.98 3 17 C2.34 17 1.68 17 1 17 C0.67 18.32 0.34 19.64 0 21 C-0.99 20.67 -1.98 20.34 -3 20 C-4.32 20.33 -5.64 20.66 -7 21 C-7.66 18.03 -8.32 15.06 -9 12 C-10.32 11.67 -11.64 11.34 -13 11 C-13.4375 8.875 -13.4375 8.875 -13 6 C-9.36110736 1.49621113 -5.9518198 -0.87099802 0 0 Z " fill="#BBDED8" transform="translate(200,106)"/>
<path d="M0 0 C0.66 0.33 1.32 0.66 2 1 C2 4.96 2 8.92 2 13 C2.33 13 2.66 13 3 13 C3.495 15.475 3.495 15.475 4 18 C6.31 18.33 8.62 18.66 11 19 C10.5206753 23.31392226 9.2542015 25.16569547 6 28 C6 27.01 6 26.02 6 25 C4.71536865 25.00785522 4.71536865 25.00785522 3.40478516 25.01586914 C0.1805039 25.03306821 -3.04375371 25.04552583 -6.26806641 25.05493164 C-7.65479306 25.05991293 -9.04151459 25.06670039 -10.42822266 25.07543945 C-18.33835992 25.12398542 -26.14502199 25.03835551 -34 24 C-34 22.68 -34 21.36 -34 20 C-32.7625 19.67 -31.525 19.34 -30.25 19 C-29.55390625 18.814375 -28.8578125 18.62875 -28.140625 18.4375 C-26 18 -26 18 -22 18 C-21.34 15.03 -20.68 12.06 -20 9 C-19.67 9 -19.34 9 -19 9 C-19 13.62 -19 18.24 -19 23 C-13.06 23 -7.12 23 -1 23 C-0.67 15.41 -0.34 7.82 0 0 Z " fill="#DDF5F8" transform="translate(434,138)"/>
<path d="M0 0 C2.4375 1.625 2.4375 1.625 4 4 C4.0625 7.5625 4.0625 7.5625 3 11 C1.35178756 12.03013277 -0.31503702 13.03114628 -2 14 C-2.82231525 17.01614295 -2.82231525 17.01614295 -3 20 C-3.33 20.66 -3.66 21.32 -4 22 C-9.41538462 22.36923077 -9.41538462 22.36923077 -12.375 20.5 C-12.91125 20.005 -13.4475 19.51 -14 19 C-13.01 15.535 -13.01 15.535 -12 12 C-8.94736336 11.01879536 -7.05263664 11.01879536 -4 12 C-3.67 11.34 -3.34 10.68 -3 10 C-4.98 9.34 -6.96 8.68 -9 8 C-9 7.34 -9 6.68 -9 6 C-9.66 6 -10.32 6 -11 6 C-10.51812367 1.42217484 -10.51812367 1.42217484 -8.3125 -0.375 C-5.14883286 -1.23004517 -3.13994719 -0.91581793 0 0 Z " fill="#B8C996" transform="translate(414,38)"/>
<path d="M0 0 C2.46887634 3.70331451 2.55936908 6.7030284 2 11 C0.6875 13.5625 0.6875 13.5625 -1 16 C-2.07559732 18.30623569 -3.03069964 20.64598483 -4 23 C-6.64 23 -9.28 23 -12 23 C-12.28958231 17.98057326 -12.05807413 15.88140178 -9 12 C-8.15553945 9.35402362 -7.58932725 6.71997192 -7 4 C-4.69 4 -2.38 4 0 4 C0 2.68 0 1.36 0 0 Z " fill="#E0F5F8" transform="translate(450,112)"/>
<path d="M0 0 C0.66 0.66 1.32 1.32 2 2 C1.625 5.625 1.625 5.625 1 9 C1.33 8.67 1.66 8.34 2 8 C3.99958364 7.95919217 6.00045254 7.95745644 8 8 C7.4375 10.875 7.4375 10.875 6 14 C3.66989091 14.67784992 1.33640176 15.34416793 -1 16 C-2.99425024 18.98434837 -2.99425024 18.98434837 -4 22 C-6.31 21.67 -8.62 21.34 -11 21 C-11 18.69 -11 16.38 -11 14 C-10.01 14 -9.02 14 -8 14 C-7.72736328 12.96939453 -7.72736328 12.96939453 -7.44921875 11.91796875 C-7.19785156 11.01691406 -6.94648438 10.11585938 -6.6875 9.1875 C-6.44386719 8.29417969 -6.20023437 7.40085938 -5.94921875 6.48046875 C-4.67243186 3.14400917 -3.16788812 1.58394406 0 0 Z " fill="#A5E1E8" transform="translate(382,200)"/>
<path d="M0 0 C10.56 0 21.12 0 32 0 C31 5 31 5 30 6 C27.19816748 6.1019939 24.42677924 6.14068056 21.625 6.125 C20.40611084 6.12209961 20.40611084 6.12209961 19.16259766 6.11914062 C13.06920684 6.07559048 7.05128461 5.74641396 1 5 C0.67 3.35 0.34 1.7 0 0 Z " fill="#C6E6EC" transform="translate(408,163)"/>
<path d="M0 0 C3.04261908 0.3259949 3.9801219 0.97895261 6.125 3.25 C9.47173435 8.15854371 10.79889494 12.00828792 10 18 C5.82792244 26.37124654 5.82792244 26.37124654 1.796875 27.7578125 C0.90742188 27.87769531 0.90742188 27.87769531 0 28 C-0.29405139 24.66741762 -0.06354659 23.11692572 1.5625 20.125 C3.36163517 16.21383658 2.99575213 14.13620116 2 10 C1.649375 9.319375 1.29875 8.63875 0.9375 7.9375 C-0.3589057 5.25826155 -0.13326354 2.93179788 0 0 Z " fill="#E9F4F6" transform="translate(436,200)"/>
<path d="M0 0 C1.98 0 3.96 0 6 0 C5.55639598 5.54505021 4.09072941 8.46049118 1 13 C0.20929452 16.23038842 0.20929452 16.23038842 0 19 C-2.31 19 -4.62 19 -7 19 C-7 18.34 -7 17.68 -7 17 C-7.66 17 -8.32 17 -9 17 C-9.3797894 13.64217944 -9.1735479 12.26368212 -7.28515625 9.39453125 C-6.55167969 8.54246094 -5.81820313 7.69039063 -5.0625 6.8125 C-2.23659905 3.60095841 -2.23659905 3.60095841 0 0 Z " fill="#F3FBFD" transform="translate(402,116)"/>
<path d="M0 0 C1.125 7.75 1.125 7.75 0 10 C-4.32665466 11.44221822 -8.49192277 11.81897966 -13 11 C-15.625 8 -15.625 8 -17 5 C-16.67 4.34 -16.34 3.68 -16 3 C-14.02 3.495 -14.02 3.495 -12 4 C-12 3.01 -12 2.02 -12 1 C-9.03 1.495 -9.03 1.495 -6 2 C-6 1.34 -6 0.68 -6 0 C-3.50907189 -1.24546405 -2.58919267 -0.7767578 0 0 Z " fill="#BDE7EE" transform="translate(243,229)"/>
<path d="M0 0 C1.98 0 3.96 0 6 0 C5.125 4.875 5.125 4.875 4 6 C3.63239269 8.32817964 3.29758419 10.6618385 3 13 C5.64 12.67 8.28 12.34 11 12 C11.26554687 11.28972656 11.53109375 10.57945312 11.8046875 9.84765625 C12.33449219 8.46900391 12.33449219 8.46900391 12.875 7.0625 C13.22304688 6.14597656 13.57109375 5.22945313 13.9296875 4.28515625 C15 2 15 2 17 1 C18.125 8.75 18.125 8.75 17 11 C15.68 11 14.36 11 13 11 C12.67 11.99 12.34 12.98 12 14 C5.84098757 15.23180249 0.21324498 14.73030908 -6 14 C-5.34 13.67 -4.68 13.34 -4 13 C-4.0825 12.154375 -4.165 11.30875 -4.25 10.4375 C-3.92462977 5.96365938 -2.40067871 3.75106048 0 0 Z " fill="#84C7CF" transform="translate(435,122)"/>
<path d="M0 0 C2.31 0 4.62 0 7 0 C6.49659247 5.03407528 5.28371414 8.52772647 3 13 C2.29241674 16.2366963 2.29241674 16.2366963 2 19 C-0.31 19 -2.62 19 -5 19 C-5.44517664 13.65788026 -4.61823741 10.5503748 -1.97265625 5.89453125 C-0.97029192 3.94213486 -0.45096079 2.14087701 0 0 Z " fill="#E7F9FA" transform="translate(429,116)"/>
<path d="M0 0 C2.31 0 4.62 0 7 0 C6.5196685 4.89938134 5.49795285 7.83674525 3 12 C2.28076792 15.69523952 2.28076792 15.69523952 2 19 C-0.31 19 -2.62 19 -5 19 C-5.30432242 13.82651889 -4.79297291 11.2968814 -2 7 C-1.27833809 4.68308546 -0.59940471 2.35151077 0 0 Z " fill="#E9F8FB" transform="translate(415,116)"/>
<path d="M0 0 C0.99 0 1.98 0 3 0 C3.02578125 0.62648437 3.0515625 1.25296875 3.078125 1.8984375 C3.13484375 2.71570313 3.1915625 3.53296875 3.25 4.375 C3.29640625 5.18710938 3.3428125 5.99921875 3.390625 6.8359375 C3.59171875 7.55007812 3.7928125 8.26421875 4 9 C5.32 9.66 6.64 10.32 8 11 C8 15.29 8 19.58 8 24 C6.35 24 4.7 24 3 24 C3 21.03 3 18.06 3 15 C1.02 15 -0.96 15 -3 15 C-2.22225866 9.94468132 -1.14051606 4.98283716 0 0 Z " fill="#9BD9E2" transform="translate(205,143)"/>
<path d="M0 0 C0.33 1.32 0.66 2.64 1 4 C2.65 4.33 4.3 4.66 6 5 C6 7.97 6 10.94 6 14 C4.02 14 2.04 14 0 14 C-1 9.25 -1 9.25 -1 7 C-3.97 7.66 -6.94 8.32 -10 9 C-10 6.36 -10 3.72 -10 1 C-6.56484998 0.37542727 -3.50935186 0 0 0 Z " fill="#ADDFE7" transform="translate(202,153)"/>
<path d="M0 0 C0 3 0 3 -1.75 5.8125 C-4.61481007 10.49303477 -5.61522671 15.69610864 -6.875 20.98828125 C-8 24 -8 24 -10.125 25.41796875 C-10.74375 25.61003906 -11.3625 25.80210938 -12 26 C-13.79061272 24.20938728 -13.17289466 21.60322258 -13.1875 19.1875 C-13.20167969 18.12917969 -13.21585938 17.07085937 -13.23046875 15.98046875 C-13.00615034 13.0795374 -12.50196021 11.45181647 -11 9 C-11 9.66 -11 10.32 -11 11 C-10.21625 10.34 -9.4325 9.68 -8.625 9 C-6 7 -6 7 -4 7 C-4 5.68 -4 4.36 -4 3 C-2 1.25 -2 1.25 0 0 Z " fill="#F0F8FA" transform="translate(163,51)"/>
<path d="M0 0 C0.66 0.66 1.32 1.32 2 2 C1.625 4.625 1.625 4.625 1 7 C0.01 7.33 -0.98 7.66 -2 8 C-1.938125 8.721875 -1.87625 9.44375 -1.8125 10.1875 C-2.04321221 13.64818317 -2.86704161 15.27863929 -5 18 C-7.6875 19.3125 -7.6875 19.3125 -10 20 C-10 19.34 -10 18.68 -10 18 C-10.86625 18.2475 -10.86625 18.2475 -11.75 18.5 C-14 19 -14 19 -18 19 C-18 18.34 -18 17.68 -18 17 C-27.24 17 -36.48 17 -46 17 C-45.34 15.35 -44.68 13.7 -44 12 C-43.67 12.99 -43.34 13.98 -43 15 C-42.1529248 15.02505615 -41.30584961 15.0501123 -40.43310547 15.07592773 C-37.26844442 15.17147857 -34.10392437 15.27068566 -30.93945312 15.37231445 C-29.57393824 15.41543088 -28.20837748 15.45712068 -26.84277344 15.49731445 C-24.8716281 15.55558554 -22.90065332 15.61953736 -20.9296875 15.68359375 C-19.15440674 15.73858032 -19.15440674 15.73858032 -17.34326172 15.79467773 C-14.16442281 15.98990218 -11.12819551 16.41476502 -8 17 C-7.9175 15.741875 -7.835 14.48375 -7.75 13.1875 C-7.37676971 10.13133894 -7.26889825 9.27757239 -5.0625 7 C-3 6 -3 6 -1 6 C-0.67 4.02 -0.34 2.04 0 0 Z " fill="#E6F0EC" transform="translate(418,43)"/>
<path d="M0 0 C1.98 0.66 3.96 1.32 6 2 C5.125 6.875 5.125 6.875 4 8 C3.76924918 9.34747084 3.58846937 10.70377565 3.4375 12.0625 C3.293125 13.361875 3.14875 14.66125 3 16 C0.36 16 -2.28 16 -5 16 C-5.46213542 10.22330721 -4.44844595 7.59792794 -1 3 C-0.67 2.01 -0.34 1.02 0 0 Z " fill="#8CC9D1" transform="translate(407,120)"/>
<path d="M0 0 C-0.875 6.875 -0.875 6.875 -2 8 C-3.99958364 8.04080783 -6.00045254 8.04254356 -8 8 C-7.67 5.69 -7.34 3.38 -7 1 C-9.31 1 -11.62 1 -14 1 C-14.33 3.31 -14.66 5.62 -15 8 C-16.98 7.01 -18.96 6.02 -21 5 C-20.67 3.35 -20.34 1.7 -20 0 C-12.77649062 -2.19285106 -7.33426883 -2.13916174 0 0 Z " fill="#BCE2E8" transform="translate(429,115)"/>
<path d="M0 0 C-0.45445964 1.41791408 -0.91374944 2.83428046 -1.375 4.25 C-1.63023437 5.03890625 -1.88546875 5.8278125 -2.1484375 6.640625 C-2.95173667 8.86627958 -3.89711662 10.90931672 -5 13 C-5.66 13 -6.32 13 -7 13 C-7 14.32 -7 15.64 -7 17 C-11.22222222 21 -11.22222222 21 -14 21 C-14.34833144 16.12335991 -13.41685712 13.22949995 -11 9 C-10.34 9 -9.68 9 -9 9 C-8.773125 8.443125 -8.54625 7.88625 -8.3125 7.3125 C-6.49644015 4.11277551 -3.9498923 0 0 0 Z " fill="#DCEEF1" transform="translate(166,41)"/>
<path d="M0 0 C3.6319029 5.44785435 2.94404749 13.61165392 2 20 C0.47121532 24.0575012 -1.45732495 27.49625432 -4 31 C-4.99 31 -5.98 31 -7 31 C-7.66 32.32 -8.32 33.64 -9 35 C-9.66 35 -10.32 35 -11 35 C-11.13277344 35.56589844 -11.26554688 36.13179687 -11.40234375 36.71484375 C-11.57894531 37.44832031 -11.75554687 38.18179688 -11.9375 38.9375 C-12.11152344 39.66839844 -12.28554687 40.39929688 -12.46484375 41.15234375 C-13 43 -13 43 -14 44 C-14.23075082 45.34747084 -14.41153063 46.70377565 -14.5625 48.0625 C-14.7790625 50.0115625 -14.7790625 50.0115625 -15 52 C-15.33 52 -15.66 52 -16 52 C-16.79784554 44.22839347 -15.74565384 39.38274255 -11.5078125 32.80078125 C-11.01023438 32.20652344 -10.51265625 31.61226562 -10 31 C-9.34 31 -8.68 31 -8 31 C-7.773125 30.484375 -7.54625 29.96875 -7.3125 29.4375 C-5.83132493 26.6867463 -4.04234364 24.33605373 -2.12109375 21.87890625 C0.56245635 17.38138849 0.12569426 12.26734615 0.0625 7.1875 C0.05798828 6.49462891 0.05347656 5.80175781 0.04882812 5.08789062 C0.03713156 3.39188932 0.01919924 1.69593297 0 0 Z " fill="#E9F9F8" transform="translate(179,143)"/>
<path d="M0 0 C1.093125 0.103125 2.18625 0.20625 3.3125 0.3125 C2.9825 0.9725 2.6525 1.6325 2.3125 2.3125 C1.02562989 6.17311033 1.17492382 9.25400283 1.3125 13.3125 C-1.6575 13.3125 -4.6275 13.3125 -7.6875 13.3125 C-6.60677083 0.55989583 -6.60677083 0.55989583 0 0 Z " fill="#7FCAD3" transform="translate(423.6875,122.6875)"/>
<path d="M0 0 C0 0.66 0 1.32 0 2 C0.66 2 1.32 2 2 2 C1.125 6.75 1.125 6.75 0 9 C-5.41538462 9.36923077 -5.41538462 9.36923077 -8.375 7.5 C-8.91125 7.005 -9.4475 6.51 -10 6 C-9.1875 2.5625 -9.1875 2.5625 -8 -1 C-4.37673261 -2.2077558 -3.35853631 -1.54311128 0 0 Z " fill="#F0CE86" transform="translate(410,51)"/>
<path d="M0 0 C2.31 0 4.62 0 7 0 C7.08333357 4.8333472 6.95261487 9.23692563 6 14 C3.03 13.505 3.03 13.505 0 13 C0 8.71 0 4.42 0 0 Z " fill="#A2D3DC" transform="translate(439,141)"/>
<path d="M0 0 C1.9375 0.375 1.9375 0.375 4 1 C4.99 1 5.98 1 7 1 C6.979375 1.886875 6.95875 2.77375 6.9375 3.6875 C6.90072617 6.93648941 6.90072617 6.93648941 7.5625 9.8125 C7.7790625 10.8953125 7.7790625 10.8953125 8 12 C7 13 7 13 4.4375 13.0625 C3.633125 13.041875 2.82875 13.02125 2 13 C1.34 11.02 0.68 9.04 0 7 C-0.66 7 -1.32 7 -2 7 C-2.125 4.625 -2.125 4.625 -2 2 C-1.34 1.34 -0.68 0.68 0 0 Z " fill="#D1D2A1" transform="translate(193,109)"/>
<path d="M0 0 C1.98 0 3.96 0 6 0 C6.33 4.62 6.66 9.24 7 14 C5.02 14 3.04 14 1 14 C-0.38226016 11.23547967 -0.09525387 8.9538637 -0.0625 5.875 C-0.05347656 4.77929688 -0.04445313 3.68359375 -0.03515625 2.5546875 C-0.02355469 1.71164063 -0.01195312 0.86859375 0 0 Z " fill="#9CD2DA" transform="translate(403,140)"/>
<path d="M0 0 C6.8359375 -0.1953125 6.8359375 -0.1953125 9 0 C9.66 0.66 10.32 1.32 11 2 C6 7 6 7 4.25 8.5 C2.55604291 10.5327485 2.34892641 12.41794457 2 15 C1.34 15 0.68 15 0 15 C0 10.05 0 5.1 0 0 Z " fill="#448E97" transform="translate(415,139)"/>
<path d="M0 0 C-0.4640625 1.1446875 -0.4640625 1.1446875 -0.9375 2.3125 C-1.67893593 4.18789677 -2.36228217 6.08684652 -3 8 C-2.34 8 -1.68 8 -1 8 C-1 8.66 -1 9.32 -1 10 C1.31 10.66 3.62 11.32 6 12 C5.01 13.485 5.01 13.485 4 15 C1.36 14.67 -1.28 14.34 -4 14 C-4 14.66 -4 15.32 -4 16 C-5.32 15.67 -6.64 15.34 -8 15 C-7.67 14.484375 -7.34 13.96875 -7 13.4375 C-5.77071684 10.89927142 -5.77071684 10.89927142 -6.0625 7.5 C-6 4 -6 4 -4.6875 1.5625 C-3 0 -3 0 0 0 Z " fill="#E2F2EF" transform="translate(406,36)"/>
<path d="M0 0 C0 0.66 0 1.32 0 2 C-0.763125 2.20625 -1.52625 2.4125 -2.3125 2.625 C-5.82229103 4.42070704 -6.52599781 6.43136312 -8 10 C-10.31 9.67 -12.62 9.34 -15 9 C-15 6.69 -15 4.38 -15 2 C-13.2508503 1.66223316 -11.50063855 1.32996329 -9.75 1 C-8.77546875 0.814375 -7.8009375 0.62875 -6.796875 0.4375 C-4 0 -4 0 0 0 Z " fill="#81D9E0" transform="translate(386,212)"/>
<path d="M0 0 C0.66 0.33 1.32 0.66 2 1 C2 4.96 2 8.92 2 13 C2.33 13 2.66 13 3 13 C3.33 14.65 3.66 16.3 4 18 C6.31 18.33 8.62 18.66 11 19 C8.9375 21.0625 8.9375 21.0625 6 23 C3.69 22.67 1.38 22.34 -1 22 C-0.67 14.74 -0.34 7.48 0 0 Z " fill="#D9F1F6" transform="translate(434,138)"/>
<path d="M0 0 C1.64594243 0.14459681 3.29174731 0.29075936 4.9375 0.4375 C6.31228516 0.55931641 6.31228516 0.55931641 7.71484375 0.68359375 C9.49538386 0.85508453 11.27556605 1.03381843 13.05102539 1.25170898 C18.57188179 1.92436505 24.00249486 2.18299067 29.5625 2.1875 C30.76036133 2.20586914 30.76036133 2.20586914 31.98242188 2.22460938 C35.9669685 2.23435154 39.48814993 1.98564331 43.33984375 0.92578125 C46.82217957 0.04497699 47.78506669 -0.01255997 51 1 C39.58320266 8.61119823 18.99022643 4.94984285 6.30810547 2.47460938 C4.19965393 2.00835285 2.09878202 1.50801288 0 1 C0 0.67 0 0.34 0 0 Z " fill="#F4FAFB" transform="translate(264,40)"/>
<path d="M0 0 C2 2 2 2 2 6 C2.33 6.66 2.66 7.32 3 8 C1.68 7.67 0.36 7.34 -1 7 C-1.33 5.35 -1.66 3.7 -2 2 C-4.96844435 1.64661377 -7.15598218 1.4582318 -9.734375 3.11328125 C-11.20348819 4.35503168 -12.60704814 5.67337918 -14 7 C-14.66 6.67 -15.32 6.34 -16 6 C-15.375 3.625 -15.375 3.625 -14 1 C-9.12083938 -1.5557508 -5.21795749 -1.0435915 0 0 Z " fill="#AEDBE2" transform="translate(302,169)"/>
<path d="M0 0 C0.33 0.66 0.66 1.32 1 2 C4.465 1.505 4.465 1.505 8 1 C8.625 2.8125 8.625 2.8125 9 5 C8.01 6.485 8.01 6.485 7 8 C5.0546875 8.29296875 5.0546875 8.29296875 2.875 8.1875 C0.956875 8.0946875 0.956875 8.0946875 -1 8 C-1.04241723 5.66705225 -1.04092937 3.33297433 -1 1 C-0.67 0.67 -0.34 0.34 0 0 Z " fill="#DAEFF6" transform="translate(439,127)"/>
<path d="M0 0 C1.65 0 3.3 0 5 0 C5 4.29 5 8.58 5 13 C3.35 13 1.7 13 0 13 C0 8.71 0 4.42 0 0 Z " fill="#8CCED8" transform="translate(208,154)"/>
<path d="M0 0 C2.5 0.125 2.5 0.125 3.5 1.125 C3.41062197 2.65019276 3.25462854 4.17181929 3.0625 5.6875 C2.96066406 6.51378906 2.85882813 7.34007813 2.75390625 8.19140625 C2.62822266 9.14853516 2.62822266 9.14853516 2.5 10.125 C2.17 9.465 1.84 8.805 1.5 8.125 C-0.48 8.125 -2.46 8.125 -4.5 8.125 C-3.48810613 0.17440531 -3.48810613 0.17440531 0 0 Z " fill="#BBE2E8" transform="translate(439.5,113.875)"/>
<path d="M0 0 C6.6 0 13.2 0 20 0 C20 0.33 20 0.66 20 1 C14.06 1 8.12 1 2 1 C1.67 6.61 1.34 12.22 1 18 C-1.07400485 14.88899273 -1.254476 14.21287309 -1.1875 10.6875 C-1.18105469 9.94886719 -1.17460937 9.21023437 -1.16796875 8.44921875 C-0.97343832 5.61269369 -0.46741718 2.80450311 0 0 Z " fill="#CAEEF0" transform="translate(413,138)"/>
<path d="M0 0 C3.465 1.485 3.465 1.485 7 3 C7.33 2.01 7.66 1.02 8 0 C8.66 0 9.32 0 10 0 C10 2.64 10 5.28 10 8 C7.25 8.375 7.25 8.375 4 8 C0 3.15789474 0 3.15789474 0 0 Z " fill="#A2D9E2" transform="translate(226,232)"/>
<path d="M0 0 C0.886875 0.144375 1.77375 0.28875 2.6875 0.4375 C2.24929109 4.99487263 1.83708831 8.01403445 -1.3125 11.4375 C-0.9825 9.4575 -0.6525 7.4775 -0.3125 5.4375 C-1.26125 5.953125 -2.21 6.46875 -3.1875 7 C-4.21875 7.474375 -5.25 7.94875 -6.3125 8.4375 C-6.9725 8.1075 -7.6325 7.7775 -8.3125 7.4375 C-4.35626368 0.57535558 -4.35626368 0.57535558 0 0 Z " fill="#E4F7FA" transform="translate(405.3125,115.5625)"/>
<path d="M0 0 C-0.99 2.97 -1.98 5.94 -3 9 C-4.32 9 -5.64 9 -7 9 C-7 8.34 -7 7.68 -7 7 C-7.66 7 -8.32 7 -9 7 C-8.75 4.625 -8.75 4.625 -8 2 C-5.10189884 -0.09862498 -3.71621139 0 0 0 Z " fill="#B1BE80" transform="translate(412,37)"/>
<path d="M0 0 C1.80411967 2.75924185 2.0127245 3.88972103 1.625 7.25 C1.41875 8.1575 1.2125 9.065 1 10 C-0.32 10 -1.64 10 -3 10 C-3.33 10.99 -3.66 11.98 -4 13 C-6.31 13.33 -8.62 13.66 -11 14 C-11.33 13.34 -11.66 12.68 -12 12 C-8.535 11.505 -8.535 11.505 -5 11 C-4.58427734 9.93458984 -4.58427734 9.93458984 -4.16015625 8.84765625 C-3.79792969 7.92855469 -3.43570312 7.00945312 -3.0625 6.0625 C-2.52302734 4.68771484 -2.52302734 4.68771484 -1.97265625 3.28515625 C-1 1 -1 1 0 0 Z " fill="#A6CFD1" transform="translate(451,123)"/>
<path d="M0 0 C0 3.67871799 -0.75309702 4.18085328 -3.1875 6.8125 C-3.82429688 7.51632813 -4.46109375 8.22015625 -5.1171875 8.9453125 C-6.04917969 9.96238281 -6.04917969 9.96238281 -7 11 C-10.08754755 14.43949598 -12.55440887 17.53180923 -14 22 C-14.93423645 18.98968256 -15.04449911 18.13349732 -14 15 C-14.66 14.67 -15.32 14.34 -16 14 C-15.13375 13.62875 -14.2675 13.2575 -13.375 12.875 C-8.63551208 10.24195116 -4.74625154 7.23875462 -3 2 C-2.01 1.34 -1.02 0.68 0 0 Z " fill="#EBF7F8" transform="translate(435,62)"/>
<path d="M0 0 C2.66666667 0 5.33333333 0 8 0 C8.33 0.66 8.66 1.32 9 2 C9.66 1.67 10.32 1.34 11 1 C11.33 2.98 11.66 4.96 12 7 C10.55989519 6.74337755 9.1229313 6.46909179 7.6875 6.1875 C6.88699219 6.03667969 6.08648437 5.88585938 5.26171875 5.73046875 C2.73679476 4.91499244 1.61930266 4.08046329 0 2 C0 1.34 0 0.68 0 0 Z " fill="#E3F5F1" transform="translate(404,32)"/>
<path d="M0 0 C1.32 0 2.64 0 4 0 C2.8141763 3.37503669 1.72426311 5.64722731 -1 8 C-1 7.01 -1 6.02 -1 5 C-3.64 5 -6.28 5 -9 5 C-8.67 4.01 -8.34 3.02 -8 2 C-4.86650268 0.95550089 -4.01031744 1.06576355 -1 2 C-0.67 1.34 -0.34 0.68 0 0 Z " fill="#EBF8FB" transform="translate(441,158)"/>
<path d="M0 0 C1.5625 1.25 1.5625 1.25 3 3 C2.6875 5.1875 2.6875 5.1875 2 7 C-0.64 7.33 -3.28 7.66 -6 8 C-6 7.01 -6 6.02 -6 5 C-4.68 4.34 -3.36 3.68 -2 3 C-2 2.34 -2 1.68 -2 1 C-1.34 0.67 -0.68 0.34 0 0 Z " fill="#AFE2E9" transform="translate(224,234)"/>
<path d="M0 0 C3.68754757 0.49831724 5.60490662 1.10067643 8 4 C7.67 4.99 7.34 5.98 7 7 C3.31245243 6.50168276 1.39509338 5.89932357 -1 3 C-0.67 2.01 -0.34 1.02 0 0 Z " fill="#F1F6F7" transform="translate(428,192)"/>
<path d="M0 0 C2.97 0.99 5.94 1.98 9 3 C8.01 3.495 8.01 3.495 7 4 C7 4.66 7 5.32 7 6 C6.34 6 5.68 6 5 6 C4.67 7.32 4.34 8.64 4 10 C3.01 10 2.02 10 1 10 C1.03255208 7.98177083 1.06510417 5.96354167 1.09765625 3.9453125 C1.12649242 1.91814596 1.12649242 1.91814596 0 0 Z " fill="#D3EEF3" transform="translate(428,89)"/>
<path d="M0 0 C0.99 0.33 1.98 0.66 3 1 C2.125 5.75 2.125 5.75 1 8 C-0.65 8 -2.3 8 -4 8 C-3.6875 5.125 -3.6875 5.125 -3 2 C-2.01 1.34 -1.02 0.68 0 0 Z " fill="#D8993D" transform="translate(409,52)"/>
<path d="M0 0 C0 2.64 0 5.28 0 8 C-2.97 7.505 -2.97 7.505 -6 7 C-5.6875 4.625 -5.6875 4.625 -5 2 C-2 0 -2 0 0 0 Z " fill="#94CCD3" transform="translate(445,147)"/>
<path d="M0 0 C1.76462683 3.08809695 2 4.23312136 2 8 C0.02 8 -1.96 8 -4 8 C-4.25 5.6875 -4.25 5.6875 -4 3 C-2 1.1875 -2 1.1875 0 0 Z " fill="#91CBD5" transform="translate(408,146)"/>
<path d="M0 0 C0.66 0.33 1.32 0.66 2 1 C-6.75503132 7.90843663 -6.75503132 7.90843663 -11 9 C-11.99 8.67 -12.98 8.34 -14 8 C-11.83696624 5.5733465 -10.07512707 4.45671825 -7 3.4375 C-4.22427731 2.50700205 -2.50438097 1.66958731 0 0 Z " fill="#AFE0E8" transform="translate(332,167)"/>
<path d="M0 0 C0.66 0.66 1.32 1.32 2 2 C1.625 4.625 1.625 4.625 1 7 C0.01 7.33 -0.98 7.66 -2 8 C-2 9.65 -2 11.3 -2 13 C-2.99 13.495 -2.99 13.495 -4 14 C-4.33 11.69 -4.66 9.38 -5 7 C-3.68 6.67 -2.36 6.34 -1 6 C-0.67 4.02 -0.34 2.04 0 0 Z " fill="#DFF4EE" transform="translate(418,43)"/>
<path d="M0 0 C0.33 0.66 0.66 1.32 1 2 C3.97 2 6.94 2 10 2 C9.01 4.97 8.02 7.94 7 11 C6.01 11 5.02 11 4 11 C4.66 8.69 5.32 6.38 6 4 C2.37114676 3.84850702 2.37114676 3.84850702 -1 5 C-0.67 3.35 -0.34 1.7 0 0 Z " fill="#C1EDF5" transform="translate(383,205)"/>
<path d="M0 0 C3.3 0 6.6 0 10 0 C10 1.32 10 2.64 10 4 C7.03 3.67 4.06 3.34 1 3 C0.67 2.01 0.34 1.02 0 0 Z " fill="#65ABB2" transform="translate(424,139)"/>
<path d="M0 0 C0.99 0 1.98 0 3 0 C3 0.66 3 1.32 3 2 C1.50390625 3.33203125 1.50390625 3.33203125 -0.4375 4.8125 C-2.9938918 6.9101844 -3.88777635 7.65584747 -4.9375 10.875 C-4.958125 11.57625 -4.97875 12.2775 -5 13 C-5.66 13 -6.32 13 -7 13 C-7.3125 10.3125 -7.3125 10.3125 -7 7 C-4.625 4.125 -4.625 4.125 -2 2 C-1.34 2 -0.68 2 0 2 C0 1.34 0 0.68 0 0 Z " fill="#4E9CA6" transform="translate(422,141)"/>
<path d="M0 0 C0.66 0 1.32 0 2 0 C2 0.66 2 1.32 2 2 C4.31 2.66 6.62 3.32 9 4 C8.01 5.485 8.01 5.485 7 7 C4.69 6.67 2.38 6.34 0 6 C0 4.02 0 2.04 0 0 Z " fill="#E4E8D4" transform="translate(403,44)"/>
<path d="M0 0 C-3.44209436 2.17790698 -6.80466221 3.83973756 -10.625 5.25 C-11.56601562 5.60578125 -12.50703125 5.9615625 -13.4765625 6.328125 C-16 7 -16 7 -19 6 C-16.82100654 5.02661744 -14.64069479 4.05662526 -12.45703125 3.09375 C-10.94743142 2.42175008 -9.44332125 1.73703556 -7.94921875 1.03125 C-3.32404709 -1.1080157 -3.32404709 -1.1080157 0 0 Z " fill="#F4FBFC" transform="translate(334,33)"/>
<path d="M0 0 C0.66 0.33 1.32 0.66 2 1 C2 4.10551666 1.4606285 5.35261084 0 8 C-0.66 7.67 -1.32 7.34 -2 7 C-2 7.66 -2 8.32 -2 9 C-3.32 8.67 -4.64 8.34 -6 8 C-5.34 8 -4.68 8 -4 8 C-3.8453125 7.13375 -3.8453125 7.13375 -3.6875 6.25 C-2.90207202 3.67950842 -1.69495803 2.06342716 0 0 Z " fill="#A4E2E9" transform="translate(382,214)"/>
<path d="M0 0 C0.99 0 1.98 0 3 0 C3 3.3 3 6.6 3 10 C2.01 10 1.02 10 0 10 C0 6.7 0 3.4 0 0 Z " fill="#84CBD8" transform="translate(205,143)"/>
<path d="M0 0 C0 1.98 0 3.96 0 6 C-1.98 6 -3.96 6 -6 6 C-6 4.35 -6 2.7 -6 1 C-1.125 0 -1.125 0 0 0 Z " fill="#9ED1D8" transform="translate(243,233)"/>
<path d="M0 0 C0.33 0 0.66 0 1 0 C1.20674944 5.78898419 0.59162079 10.42932723 -1 16 C-1.66 16 -2.32 16 -3 16 C-3.25 9.375 -3.25 9.375 -1 6 C-0.60986284 4.0103005 -0.26797351 2.00980131 0 0 Z " fill="#DEEEF0" transform="translate(451,133)"/>
<path d="M0 0 C-0.33 2.31 -0.66 4.62 -1 7 C-1.66 6.67 -2.32 6.34 -3 6 C-3.33 6.66 -3.66 7.32 -4 8 C-4.66 8 -5.32 8 -6 8 C-5.67 5.69 -5.34 3.38 -5 1 C-2 0 -2 0 0 0 Z " fill="#BDE0E6" transform="translate(421,77)"/>
<path d="M0 0 C0.66 0.33 1.32 0.66 2 1 C1.34 3.31 0.68 5.62 0 8 C-1.65 8.33 -3.3 8.66 -5 9 C-4.34 8.67 -3.68 8.34 -3 8 C-2.65977214 6.00116131 -2.32670903 4.00109278 -2 2 C-1.34 1.34 -0.68 0.68 0 0 Z " fill="#CFD397" transform="translate(412,38)"/>
<path d="M0 0 C0.33 0 0.66 0 1 0 C2.19287411 3.87684087 3 6.91621923 3 11 C1.68 11 0.36 11 -1 11 C-0.67 7.37 -0.34 3.74 0 0 Z " fill="#78C4D0" transform="translate(209,155)"/>
<path d="M0 0 C2.64 0 5.28 0 8 0 C7.67 1.32 7.34 2.64 7 4 C6.01 3.67 5.02 3.34 4 3 C1.85744207 3.38932856 1.85744207 3.38932856 0 4 C0 2.68 0 1.36 0 0 Z " fill="#B5E1E3" transform="translate(193,123)"/>
<path d="M0 0 C-0.33 0.99 -0.66 1.98 -1 3 C-2.32 2.67 -3.64 2.34 -5 2 C-5.66 3.65 -6.32 5.3 -7 7 C-8.32 6.67 -9.64 6.34 -11 6 C-8.39811798 0.79623595 -5.7297674 -0.52088795 0 0 Z " fill="#B6DDC7" transform="translate(198,108)"/>
<path d="M0 0 C1.32 0.66 2.64 1.32 4 2 C4 2.66 4 3.32 4 4 C3.01 4 2.02 4 1 4 C1 4.66 1 5.32 1 6 C1.66 6.33 2.32 6.66 3 7 C1.68 7.33 0.36 7.66 -1 8 C-1.04241723 5.66705225 -1.04092937 3.33297433 -1 1 C-0.67 0.67 -0.34 0.34 0 0 Z " fill="#C4E9EF" transform="translate(218,225)"/>
<path d="M0 0 C0.33 0 0.66 0 1 0 C1.33 2.64 1.66 5.28 2 8 C-0.97 8 -3.94 8 -7 8 C-6.67 6.02 -6.34 4.04 -6 2 C-5.67 2.99 -5.34 3.98 -5 5 C-4.34 5 -3.68 5 -3 5 C-3 5.66 -3 6.32 -3 7 C-2.01 7 -1.02 7 0 7 C0 4.69 0 2.38 0 0 Z " fill="#8AC3CA" transform="translate(423,128)"/>
<path d="M0 0 C2.31 0 4.62 0 7 0 C6.34 1.65 5.68 3.3 5 5 C4.01 4.34 3.02 3.68 2 3 C1.01 3.33 0.02 3.66 -1 4 C-0.67 2.68 -0.34 1.36 0 0 Z " fill="#8BC6CF" transform="translate(420,123)"/>
<path d="M0 0 C0.33 0.66 0.66 1.32 1 2 C0.67 2.66 0.34 3.32 0 4 C1.98 4 3.96 4 6 4 C3.61692525 6.38307475 2.24595503 6.43195787 -1 7 C-1.99 7.495 -1.99 7.495 -3 8 C-3.36923077 3.44615385 -3.36923077 3.44615385 -1.5 1.1875 C-1.005 0.795625 -0.51 0.40375 0 0 Z " fill="#E5F6F8" transform="translate(396,125)"/>
<path d="M0 0 C0 1.65 0 3.3 0 5 C-1.65 4.67 -3.3 4.34 -5 4 C-5.33 3.01 -5.66 2.02 -6 1 C-3.92446352 0.4465236 -2.15634036 0 0 0 Z " fill="#A7D7DC" transform="translate(230,162)"/>
<path d="M0 0 C0 3 0 3 -2 6 C-2.66 6 -3.32 6 -4 6 C-4.33 6.99 -4.66 7.98 -5 9 C-5.99 9.33 -6.98 9.66 -8 10 C-7.1875 8.0625 -7.1875 8.0625 -6 6 C-5.01 5.67 -4.02 5.34 -3 5 C-2.6278958 3.67696283 -2.29369827 2.34262065 -2 1 C-1.34 0.67 -0.68 0.34 0 0 Z " fill="#ECF7F9" transform="translate(427,222)"/>
<path d="M0 0 C2.475 0.495 2.475 0.495 5 1 C4.01 1.33 3.02 1.66 2 2 C2 4.31 2 6.62 2 9 C3.65 9.33 5.3 9.66 7 10 C3.25 11.125 3.25 11.125 1 10 C0.5859375 7.71484375 0.5859375 7.71484375 0.375 4.9375 C0.30023438 4.01839844 0.22546875 3.09929687 0.1484375 2.15234375 C0.09945313 1.44207031 0.05046875 0.73179687 0 0 Z " fill="#BDEAED" transform="translate(369,212)"/>
<path d="M0 0 C0.66 0.33 1.32 0.66 2 1 C1.21625 1.61875 0.4325 2.2375 -0.375 2.875 C-2.96837647 4.89858661 -2.96837647 4.89858661 -5 7 C-5 6.34 -5 5.68 -5 5 C-5.66 5 -6.32 5 -7 5 C-7.66 3.68 -8.32 2.36 -9 1 C-8.071875 1.20625 -7.14375 1.4125 -6.1875 1.625 C-2.84826598 2.36692966 -2.84826598 2.36692966 0 0 Z " fill="#ADDCE5" transform="translate(316,176)"/>
<path d="M0 0 C1.98 0.99 1.98 0.99 4 2 C4 3.32 4 4.64 4 6 C4.33 6.66 4.66 7.32 5 8 C1.125 7.125 1.125 7.125 0 6 C-0.04080783 4.00041636 -0.04254356 1.99954746 0 0 Z " fill="#A0D6DD" transform="translate(300,169)"/>
<path d="M0 0 C7.42857143 -0.28571429 7.42857143 -0.28571429 11 2 C11 2.33 11 2.66 11 3 C4.6 3.36923077 4.6 3.36923077 1.5625 1.5 C1.046875 1.005 0.53125 0.51 0 0 Z " fill="#A3D5DC" transform="translate(274,172)"/>
<path d="M0 0 C0.66 0.66 1.32 1.32 2 2 C1.67 2.33 1.34 2.66 1 3 C2.32 3.33 3.64 3.66 5 4 C5 5.98 5 7.96 5 10 C4.67 8.68 4.34 7.36 4 6 C2.35 6 0.7 6 -1 6 C-1 2 -1 2 0 0 Z " fill="#D7F2F6" transform="translate(426,125)"/>
<path d="M0 0 C1.98 0.495 1.98 0.495 4 1 C3.67 2.65 3.34 4.3 3 6 C2.01 5.67 1.02 5.34 0 5 C-0.33 4.01 -0.66 3.02 -1 2 C-0.67 1.34 -0.34 0.68 0 0 Z " fill="#D1AA5E" transform="translate(197,116)"/>
<path d="M0 0 C0.66 0.33 1.32 0.66 2 1 C1.01 3.31 0.02 5.62 -1 8 C-1.99 8 -2.98 8 -4 8 C-3.50168276 4.31245243 -2.89932357 2.39509338 0 0 Z " fill="#87AE5B" transform="translate(410,38)"/>
<path d="M0 0 C3.85645121 -0.22036864 6.49223216 0.39644899 10 2 C10 2.66 10 3.32 10 4 C6.7 3.34 3.4 2.68 0 2 C0 1.34 0 0.68 0 0 Z " fill="#A7D8DF" transform="translate(239,160)"/>
<path d="M0 0 C0.33 0.66 0.66 1.32 1 2 C0.01 3.485 0.01 3.485 -1 5 C-2.32 4.67 -3.64 4.34 -5 4 C-5 3.01 -5 2.02 -5 1 C-3.35 0.67 -1.7 0.34 0 0 Z " fill="#F1F8FB" transform="translate(447,124)"/>
<path d="M0 0 C0.66 0.33 1.32 0.66 2 1 C1.67 3.64 1.34 6.28 1 9 C0.01 9 -0.98 9 -2 9 C-1.34 6.03 -0.68 3.06 0 0 Z " fill="#86AC5B" transform="translate(413,39)"/>
<path d="M0 0 C1.65 0.33 3.3 0.66 5 1 C4.67 2.32 4.34 3.64 4 5 C1.525 4.01 1.525 4.01 -1 3 C-0.67 2.01 -0.34 1.02 0 0 Z " fill="#ADE2E5" transform="translate(384,222)"/>
<path d="M0 0 C0 1.65 0 3.3 0 5 C-0.99 5 -1.98 5 -3 5 C-3 4.34 -3 3.68 -3 3 C-3.99 2.67 -4.98 2.34 -6 2 C-2.25 0 -2.25 0 0 0 Z " fill="#9ED6DE" transform="translate(208,161)"/>
<path d="M0 0 C0.99 0.33 1.98 0.66 3 1 C3.37849614 5.54195365 2.9891703 6.0144396 0 10 C0 6.7 0 3.4 0 0 Z " fill="#E1F8F9" transform="translate(409,140)"/>
<path d="M0 0 C0.99 0 1.98 0 3 0 C3 1.98 3 3.96 3 6 C2.01 5.67 1.02 5.34 0 5 C-0.75 3 -0.75 3 -1 1 C-0.67 0.67 -0.34 0.34 0 0 Z " fill="#79C9D8" transform="translate(405,128)"/>
<path d="M0 0 C3 0 3 0 5 1 C4.67 2.98 4.34 4.96 4 7 C3.67 6.34 3.34 5.68 3 5 C2.34 5 1.68 5 1 5 C0.67 3.35 0.34 1.7 0 0 Z " fill="#93B781" transform="translate(195,109)"/>
<path d="M0 0 C1.32 0 2.64 0 4 0 C3.01 2.97 2.02 5.94 1 9 C0 5 0 5 1 2 C0.34 1.67 -0.32 1.34 -1 1 C-0.67 0.67 -0.34 0.34 0 0 Z " fill="#DCEFF1" transform="translate(420,75)"/>
<path d="M0 0 C0.33 0.99 0.66 1.98 1 3 C1.99 3.33 2.98 3.66 4 4 C1.36 4.66 -1.28 5.32 -4 6 C-4 5.34 -4 4.68 -4 4 C-3.34 4 -2.68 4 -2 4 C-2 3.34 -2 2.68 -2 2 C-1.34 2 -0.68 2 0 2 C0 1.34 0 0.68 0 0 Z " fill="#E6F4F6" transform="translate(247,233)"/>
<path d="M0 0 C0.33 0 0.66 0 1 0 C1.33 1.98 1.66 3.96 2 6 C0.68 6.33 -0.64 6.66 -2 7 C-2.125 4.625 -2.125 4.625 -2 2 C-1.34 1.34 -0.68 0.68 0 0 Z " fill="#99B77D" transform="translate(193,109)"/>
<path d="M0 0 C0.33 0 0.66 0 1 0 C0.51171875 6.0546875 0.51171875 6.0546875 0 8 C-0.99 8.66 -1.98 9.32 -3 10 C-2.21302675 6.58978257 -1.12880057 3.31114834 0 0 Z " fill="#EDF6F7" transform="translate(439,52)"/>
</svg>
