<?xml version="1.0" encoding="UTF-8"?>
<svg version="1.1" xmlns="http://www.w3.org/2000/svg" width="748" height="333">
<path d="M0 0 C1.175625 0.54140625 2.35125 1.0828125 3.5625 1.640625 C13.11594345 6.27442119 21.02579281 12.43843181 29.04785156 19.33740234 C30.94269964 20.95119867 32.8662931 22.52096557 34.8046875 24.08203125 C47.56245124 34.46432816 59.15775837 47.74721662 61.75390625 64.58203125 C63.38069772 80.56590302 58.84972268 92.75634442 49 105.1875 C43.46036248 111.79569704 37.50860449 118.02498683 31.59912109 124.30078125 C29.46946301 126.56374618 27.34774911 128.83237802 25.25 131.125 C24.65703125 131.76695312 24.0640625 132.40890625 23.453125 133.0703125 C20.17359654 137.42538524 19.33944372 141.62118457 20 147 C24.43099097 154.6396396 32.54860369 156.8518231 40.5546875 159.55078125 C57.53029797 165.33291867 68.43660989 173.62509167 76.75 189.9375 C79.47314265 195.49034306 81.47007301 201.01671864 83 207 C83.25394531 207.81210938 83.50789062 208.62421875 83.76953125 209.4609375 C93.17349369 240.31334628 88.09618336 277.04732988 74.0625 305.6875 C73.76311523 306.29851562 73.46373047 306.90953125 73.15527344 307.5390625 C72.22265625 309.32421875 72.22265625 309.32421875 71.19235808 310.98230082 C69.94003812 312.99548439 69.94003812 312.99548439 69.04471725 315.28966373 C67.36157719 318.42444799 65.96460202 319.98080204 63 322 C55.74252855 323.84018237 47.86363226 323.17308481 40.44288635 323.08229065 C38.07744966 323.08621464 35.71201676 323.09409361 33.34660476 323.10559314 C28.19968409 323.12153737 23.05360831 323.10949866 17.90682602 323.07284927 C10.25389937 323.01850554 2.60156292 323.01582931 -5.0515215 323.02372717 C-17.92525272 323.03554987 -30.79856808 323.00548954 -43.67217827 322.95157051 C-56.41888931 322.8983198 -69.16542715 322.86367761 -81.91224861 322.85389519 C-82.70475779 322.85327653 -83.49726697 322.85265787 -84.31379158 322.85202047 C-88.33853441 322.84897548 -92.36327738 322.84626302 -96.38802052 322.84367859 C-124.89641218 322.82477411 -153.40457759 322.76413596 -181.9128418 322.67895508 C-209.60846758 322.59629781 -237.30403145 322.53254409 -264.99975586 322.49438477 C-265.85343516 322.49320103 -266.70711446 322.49201729 -267.58666282 322.49079769 C-276.15964978 322.47893102 -284.73263722 322.4674487 -293.30562508 322.45624795 C-310.76983918 322.43342194 -328.23404923 322.40803067 -345.69825745 322.38108826 C-346.50123608 322.37985265 -347.30421472 322.37861704 -348.13152604 322.37734399 C-401.7544457 322.29453591 -455.37723654 322.15174168 -509 322 C-508.68806536 320.27073126 -508.37542638 318.54158956 -508.0625 316.8125 C-507.88847656 315.84957031 -507.71445312 314.88664062 -507.53515625 313.89453125 C-507.18904229 312.02248421 -506.82661076 310.15334886 -506.44465637 308.2882843 C-503.80953106 294.72743989 -505.65869397 279.95650651 -510 267 C-510.21430664 266.35015137 -510.42861328 265.70030273 -510.64941406 265.03076172 C-513.46294714 256.6290687 -517.00330198 248.73137991 -521.03588867 240.85058594 C-538.74153212 206.24237192 -550.836968 166.58466547 -539.04980469 128.33837891 C-529.33299509 98.34496861 -511.4096522 71.63244045 -482.85058594 56.93359375 C-482.23989258 56.62550781 -481.62919922 56.31742187 -481 56 C-480.38672852 55.68933594 -479.77345703 55.37867187 -479.14160156 55.05859375 C-471.31468648 51.17962495 -463.40390453 48.33858668 -454.9375 46.1875 C-454.17163574 45.99260986 -453.40577148 45.79771973 -452.61669922 45.59692383 C-438.99226759 42.37068344 -425.54181745 41.6515285 -411.60766602 41.68432617 C-408.86107022 41.68744485 -406.11560105 41.66408151 -403.36914062 41.63867188 C-378.14807472 41.54362218 -353.33223704 45.52336349 -328.5 49.5625 C-325.98317751 49.96614748 -323.46625051 50.36914387 -320.94921875 50.77148438 C-311.17009016 52.33831741 -301.39479516 53.924739 -291.62904358 55.57307434 C-269.37224825 59.18731531 -245.765493 60.56052094 -224 54 C-222.25976562 53.50886719 -222.25976562 53.50886719 -220.484375 53.0078125 C-201.8336189 47.27876859 -183.91310705 38.65607284 -166.44775391 30.06030273 C-161.17059082 27.47031385 -155.88978315 25.11362748 -150.41259766 22.98120117 C-146.3221749 21.31763013 -142.39690966 19.32518598 -138.4375 17.375 C-96.3436524 -2.92797483 -45.30895751 -21.06866524 0 0 Z " fill="#C5E7ED" transform="translate(609,11)"/>
<path d="M0 0 C34.65 0 69.3 0 105 0 C105.495 0.99 105.495 0.99 106 2 C100.06 2 94.12 2 88 2 C88 4.64 88 7.28 88 10 C87.13848751 16.49681771 85.40163748 23.33810903 80.9453125 28.27734375 C78.55953218 31.61647805 78.41421985 33.74805865 78.25 37.8125 C78.16492188 39.55466797 78.16492188 39.55466797 78.078125 41.33203125 C78.05234375 42.21246094 78.0265625 43.09289062 78 44 C83.41869129 45.49315049 88.11406351 45.698495 93.375 43.75 C96.03368909 41.97754061 96.97386916 40.97577944 98 38 C98.66 38 99.32 38 100 38 C99.95875 36.7625 99.9175 35.525 99.875 34.25 C99.86341709 30.98362038 100.1431298 28.7853053 102 26 C102.66 26 103.32 26 104 26 C104.103125 25.236875 104.20625 24.47375 104.3125 23.6875 C105.04364039 20.82940576 105.76951913 19.84257115 108 18 C108 19.32 108 20.64 108 22 C108.66 22 109.32 22 110 22 C110.83812481 40.43874591 108.9352593 60.72013123 102 78 C101.01 78.495 101.01 78.495 100 79 C99.97265999 76.35409469 99.95299947 73.70848066 99.9375 71.0625 C99.92912109 70.32708984 99.92074219 69.59167969 99.91210938 68.83398438 C99.90888672 68.09599609 99.90566406 67.35800781 99.90234375 66.59765625 C99.89710693 65.93258057 99.89187012 65.26750488 99.88647461 64.58227539 C100.05682442 60.70745826 100.57168471 56.8548376 101 53 C92.75 52.67 84.5 52.34 76 52 C76.01160156 53.85367188 76.02320313 55.70734375 76.03515625 57.6171875 C76.04453326 60.03645733 76.05363356 62.45572824 76.0625 64.875 C76.07087891 66.09832031 76.07925781 67.32164062 76.08789062 68.58203125 C76.09111328 69.74863281 76.09433594 70.91523438 76.09765625 72.1171875 C76.10289307 73.19597168 76.10812988 74.27475586 76.11352539 75.38623047 C76 78 76 78 75 80 C72.9375 80.625 72.9375 80.625 71 81 C70.90091064 71.60853097 70.87001156 62.34258296 72 53 C71.34 53 70.68 53 70 53 C70.02320313 54.26972656 70.04640625 55.53945313 70.0703125 56.84765625 C70.18826886 66.21650034 69.94650162 75.16347181 68.51171875 84.43359375 C67.67504854 90.26473802 67.3442486 96.12059628 67 102 C53.95545355 102.1183055 41.01181059 101.96639442 28 101 C27.27845075 84.98390957 26.89311376 69.0329353 27 53 C40.2 52.67 53.4 52.34 67 52 C53.14 51.67 39.28 51.34 25 51 C24.34 49.68 23.68 48.36 23 47 C25.64 46.01 28.28 45.02 31 44 C31.00257813 43.16597656 31.00515625 42.33195312 31.0078125 41.47265625 C31.25442353 34.29627528 32.0751252 30.11582306 36.4375 24.453125 C40.59204295 17.93049256 41.74875674 9.50745958 43 2 C37.72 2 32.44 2 27 2 C26.75163074 6.99492756 26.75163074 6.99492756 26.52197266 11.99072266 C26.28027479 16.29863177 25.57722587 19.93511706 24 24 C23.34 24 22.68 24 22 24 C21.731875 24.598125 21.46375 25.19625 21.1875 25.8125 C20 28 20 28 18.46875 29.21875 C16.27101947 31.88408277 16.4807033 34.28979338 16.3125 37.6875 C16.24675781 38.86699219 16.18101562 40.04648437 16.11328125 41.26171875 C16.07589844 42.16535156 16.03851562 43.06898438 16 44 C16.66 44 17.32 44 18 44 C18 44.66 18 45.32 18 46 C14.89013793 48.07324138 14.10891613 48.27392186 10.5625 48.25 C9.80066406 48.25515625 9.03882813 48.2603125 8.25390625 48.265625 C5.78556982 47.9747292 4.142314 47.22975656 2 46 C1.01 46.66 0.02 47.32 -1 48 C-3.26171875 48.1953125 -3.26171875 48.1953125 -5.6875 48.125 C-6.49574219 48.10695313 -7.30398438 48.08890625 -8.13671875 48.0703125 C-8.75160156 48.04710937 -9.36648438 48.02390625 -10 48 C-10.33 47.34 -10.66 46.68 -11 46 C-7.04 45.34 -3.08 44.68 1 44 C0.87625 42.02 0.7525 40.04 0.625 38 C0.61211764 32.05478931 1.49751133 29.2109248 5.40625 24.83203125 C10.93852981 18.47262138 12.84144149 10.10990959 14 2 C9.05 2 4.1 2 -1 2 C-0.67 1.34 -0.34 0.68 0 0 Z " fill="#C0E4EA" transform="translate(587,224)"/>
<path d="M0 0 C3.625 0.375 3.625 0.375 7 1 C7.33 1.99 7.66 2.98 8 4 C9.26183105 3.98952637 10.52366211 3.97905273 11.82373047 3.96826172 C16.49394914 3.93213101 21.16415539 3.90912484 25.83447266 3.89013672 C27.85793127 3.88006329 29.88137528 3.86640405 31.90478516 3.84912109 C34.80895589 3.82493153 37.71293461 3.81353051 40.6171875 3.8046875 C41.52556366 3.79436493 42.43393982 3.78404236 43.36984253 3.77340698 C44.21056305 3.77325592 45.05128357 3.77310486 45.91748047 3.77294922 C47.03000687 3.76628738 47.03000687 3.76628738 48.16500854 3.75949097 C50 4 50 4 52 6 C38.14 6 24.28 6 10 6 C10.165 9.09375 10.33 12.1875 10.5 15.375 C11.1332074 28.24922627 11.10036058 41.11370192 11 54 C12.45792969 53.98259766 12.45792969 53.98259766 13.9453125 53.96484375 C25.98765349 53.87003383 37.97583414 54.36918008 50 55 C49.97679687 54.16339844 49.95359375 53.32679688 49.9296875 52.46484375 C49.81125096 44.82568682 50.3626198 37.73607481 51.48828125 30.17578125 C52.56993371 22.17864588 52.68920675 14.05608816 53 6 C53.66 6 54.32 6 55 6 C55 14.91 55 23.82 55 33 C55.99 33 56.98 33 58 33 C58.33 23.76 58.66 14.52 59 5 C61.64 4.979375 64.28 4.95875 67 4.9375 C68.22203125 4.92384399 68.22203125 4.92384399 69.46875 4.90991211 C74.40185334 4.89153156 79.11682799 5.29526949 84 6 C85.08146569 28.5515306 83.56771027 43.34109267 69 61 C67.19982231 62.80017769 64.74496106 62.12260673 62.34839147 62.12908131 C61.53031422 62.12616847 60.71223698 62.12325563 59.86936951 62.12025452 C58.57564355 62.12153615 58.57564355 62.12153615 57.25578171 62.12284368 C54.34294519 62.12450114 51.43016527 62.1189728 48.51733398 62.11352539 C46.4383952 62.11324355 44.35945631 62.11340119 42.28051758 62.1139679 C36.61752561 62.11425599 30.95455463 62.10835731 25.29156756 62.10139394 C19.38050107 62.09516241 13.46943414 62.09455676 7.55836487 62.09336853 C-3.64367695 62.09025462 -14.84570906 62.08204043 -26.0477466 62.07201904 C-38.79722363 62.06085975 -51.54670111 62.05534792 -64.2961818 62.05032361 C-90.53079326 62.03985786 -116.76539609 62.02225727 -143 62 C-142.67 61.01 -142.34 60.02 -142 59 C-140.2578125 58.44921875 -140.2578125 58.44921875 -138 58 C-136.28229015 57.29320464 -134.57503646 56.56080665 -132.875 55.8125 C-116.2970752 48.85138109 -99.31551864 44.52033245 -81.625 41.5 C-78.61282103 40.92625163 -75.66212777 40.18115694 -72.6875 39.4375 C-66.99602109 38.09517007 -61.50198977 37.56093945 -55.671875 37.25 C-51.72539958 36.9813038 -47.85307439 36.48053586 -43.9375 35.9375 C-36.93508706 34.98621918 -30.06024428 34.78238973 -23 35 C-23.10699219 34.17757812 -23.21398437 33.35515625 -23.32421875 32.5078125 C-24.1392026 24.91882311 -23.83963431 19.10710734 -21 12 C-20.67 12 -20.34 12 -20 12 C-19.65841653 15.6034331 -19.32830184 19.20783452 -19 22.8125 C-18.90460938 23.81732422 -18.80921875 24.82214844 -18.7109375 25.85742188 C-18.62070312 26.85966797 -18.53046875 27.86191406 -18.4375 28.89453125 C-18.35371094 29.80050049 -18.26992188 30.70646973 -18.18359375 31.63989258 C-17.92242011 36.41985639 -18 41.21290633 -18 46 C-10.74 45.34 -3.48 44.68 4 44 C4 30.8 4 17.6 4 4 C-0.62 4 -5.24 4 -10 4 C-10 3.67 -10 3.34 -10 3 C-8.72125 2.87625 -7.4425 2.7525 -6.125 2.625 C-2.65209064 2.30957601 -2.65209064 2.30957601 0 0 Z " fill="#D0EBF0" transform="translate(604,271)"/>
<path d="M0 0 C2.86688248 0.09096556 5.70300515 0.23767988 8.5625 0.4375 C9.36880859 0.48970703 10.17511719 0.54191406 11.00585938 0.59570312 C13.00421738 0.72577376 15.00215386 0.86229056 17 1 C17 1.33 17 1.66 17 2 C14.03 2 11.06 2 8 2 C8.495 2.99 8.495 2.99 9 4 C9.08372659 5.52148326 9.10730027 7.04655778 9.09765625 8.5703125 C9.09282227 9.91416016 9.09282227 9.91416016 9.08789062 11.28515625 C9.07532227 12.69087891 9.07532227 12.69087891 9.0625 14.125 C9.05798828 15.06988281 9.05347656 16.01476562 9.04882812 16.98828125 C9.03702357 19.32558387 9.02055759 21.66276061 9 24 C13.07964281 22.69844994 13.07964281 22.69844994 17 21 C17.99 24.465 17.99 24.465 19 28 C18.34 28 17.68 28 17 28 C17 34.93 17 41.86 17 49 C-7.75 49 -32.5 49 -58 49 C-57.34 45.37 -56.68 41.74 -56 38 C-55.50627034 34.84561606 -55.02798551 31.68990169 -54.5625 28.53125 C-54 26 -54 26 -52 23 C-44.58778549 20.52926183 -36.29675325 20.11523709 -29 23 C-29.33 23.66 -29.66 24.32 -30 25 C-29.67 25.66 -29.34 26.32 -29 27 C-28.67 26.67 -28.34 26.34 -28 26 C-24.92395088 25.96828815 -21.85984547 26.06853857 -18.78515625 26.16015625 C-15.85814898 26.30171334 -15.85814898 26.30171334 -14 24 C-12.125 23.734375 -12.125 23.734375 -10 23.75 C-8.948125 23.74226563 -8.948125 23.74226563 -7.875 23.734375 C-6 24 -6 24 -4 26 C-0.91652174 26.16681109 -0.91652174 26.16681109 2 26 C1.01 25.67 0.02 25.34 -1 25 C-1.02886984 21.02084841 -1.04675406 17.04172347 -1.0625 13.0625 C-1.07087891 11.92619141 -1.07925781 10.78988281 -1.08789062 9.61914062 C-1.09111328 8.53955078 -1.09433594 7.45996094 -1.09765625 6.34765625 C-1.10289307 5.34742432 -1.10812988 4.34719238 -1.11352539 3.31665039 C-1 1 -1 1 0 0 Z " fill="#BFE5EB" transform="translate(158,284)"/>
<path d="M0 0 C14.37107285 -0.10772918 28.66606646 -0.11796696 43 1 C43.19965804 11.30457348 43.07882039 21.19560554 41.51171875 31.3984375 C40.68141629 37.24224563 40.34493596 43.10885681 40 49 C26.95545355 49.1183055 14.01181059 48.96639442 1 48 C0.2786989 31.98941769 -0.14453125 16.02691023 0 0 Z " fill="#5EAEBA" transform="translate(614,277)"/>
<path d="M0 0 C-0.71925119 5.1546335 -1.45639863 9.30471526 -5.02734375 13.2265625 C-7.42601868 16.59895696 -7.58442601 18.71454382 -7.75 22.8125 C-7.83507812 24.55466797 -7.83507812 24.55466797 -7.921875 26.33203125 C-7.96054687 27.65267578 -7.96054687 27.65267578 -8 29 C-2.58130871 30.49315049 2.11406351 30.698495 7.375 28.75 C10.03368909 26.97754061 10.97386916 25.97577944 12 23 C12.66 23 13.32 23 14 23 C13.95875 21.7625 13.9175 20.525 13.875 19.25 C13.86341709 15.98362038 14.1431298 13.7853053 16 11 C16.66 11 17.32 11 18 11 C18.103125 10.236875 18.20625 9.47375 18.3125 8.6875 C19.04364039 5.82940576 19.76951913 4.84257115 22 3 C22 4.32 22 5.64 22 7 C22.66 7 23.32 7 24 7 C24.83812481 25.43874591 22.9352593 45.72013123 16 63 C15.01 63.495 15.01 63.495 14 64 C13.97265999 61.35409469 13.95299947 58.70848066 13.9375 56.0625 C13.92912109 55.32708984 13.92074219 54.59167969 13.91210938 53.83398438 C13.90888672 53.09599609 13.90566406 52.35800781 13.90234375 51.59765625 C13.89710693 50.93258057 13.89187012 50.26750488 13.88647461 49.58227539 C14.05682442 45.70745826 14.57168471 41.8548376 15 38 C6.75 37.67 -1.5 37.34 -10 37 C-9.98839844 38.85367188 -9.97679687 40.70734375 -9.96484375 42.6171875 C-9.95546674 45.03645733 -9.94636644 47.45572824 -9.9375 49.875 C-9.92912109 51.09832031 -9.92074219 52.32164062 -9.91210938 53.58203125 C-9.90888672 54.74863281 -9.90566406 55.91523438 -9.90234375 57.1171875 C-9.89710693 58.19597168 -9.89187012 59.27475586 -9.88647461 60.38623047 C-10 63 -10 63 -11 65 C-13.0625 65.625 -13.0625 65.625 -15 66 C-15.09908936 56.60853097 -15.12998844 47.34258296 -14 38 C-14.99 38.495 -14.99 38.495 -16 39 C-18.88370333 39.07194869 -21.74239664 39.09291708 -24.625 39.0625 C-25.42679688 39.05798828 -26.22859375 39.05347656 -27.0546875 39.04882812 C-29.03649006 39.03703168 -31.01825433 39.01909605 -33 39 C-33 38.67 -33 38.34 -33 38 C-28.38 37.67 -23.76 37.34 -19 37 C-32.86 36.67 -46.72 36.34 -61 36 C-61.66 34.68 -62.32 33.36 -63 32 C-59.04 30.515 -59.04 30.515 -55 29 C-54.99742187 28.16597656 -54.99484375 27.33195312 -54.9921875 26.47265625 C-54.74547395 19.29329197 -53.93220202 14.61100063 -49.47265625 8.90234375 C-47.72305139 6.76923833 -47.72305139 6.76923833 -46 3 C-41.38 3 -36.76 3 -32 3 C-32.977646 8.86587601 -33.87970862 11.87970862 -38 16 C-38.46486718 19.12196336 -38.46486718 19.12196336 -38.625 22.625 C-38.69976563 23.81351562 -38.77453125 25.00203125 -38.8515625 26.2265625 C-38.90054688 27.14179688 -38.94953125 28.05703125 -39 29 C-36.26924725 29.76802421 -33.83525536 30.13607522 -31 30.125 C-30.34 30.12757813 -29.68 30.13015625 -29 30.1328125 C-26.89873987 29.99327569 -25.02371073 29.56916864 -23 29 C-23.05800781 28.05898438 -23.11601563 27.11796875 -23.17578125 26.1484375 C-23.58996467 14.71697508 -23.58996467 14.71697508 -20.6875 11.5625 C-19.800625 10.716875 -18.91375 9.87125 -18 9 C-16.82019509 6.71681478 -15.94015562 4.39739683 -15 2 C-13.28724607 0.28724607 -10.96433616 0.63090968 -8.625 0.4375 C-7.15933594 0.31181641 -7.15933594 0.31181641 -5.6640625 0.18359375 C-3.7795199 0.05372058 -1.8890124 0 0 0 Z " fill="#C5E4E9" transform="translate(673,239)"/>
<path d="M0 0 C1.051875 -0.02578125 2.10375 -0.0515625 3.1875 -0.078125 C6 0.25 6 0.25 7.84375 1.5546875 C9.84705719 4.49196899 9.47308401 6.82014094 9 10.25 C5.36172361 14.6145483 1.31895474 16.89355181 -3.625 19.4375 C-19.86233903 28.23558323 -29.42831071 41.0448193 -36 58.25 C-37.76582566 64.26734318 -39.17355173 70.35558548 -40.47509766 76.48876953 C-40.79338695 77.98476147 -41.11973854 79.47906342 -41.45458984 80.97143555 C-41.76961335 82.37630023 -42.0664249 83.78540965 -42.34228516 85.19848633 C-42.77734375 87.1171875 -42.77734375 87.1171875 -44 90.25 C-46.62890625 91.6953125 -46.62890625 91.6953125 -49 92.25 C-52.16407801 89.49862782 -52.84859374 87.2494802 -53.16113281 83.12207031 C-53.66945215 55.35364856 -47.3921866 36.06635748 -27.8125 15.6875 C-20.071403 8.07632351 -11.25732424 0.16554889 0 0 Z " fill="#E5F3F5" transform="translate(92,53.75)"/>
<path d="M0 0 C7.02307509 2.69653886 10.85465366 5.84580271 15.3515625 11.796875 C15.9084375 12.29058594 16.4653125 12.78429687 17.0390625 13.29296875 C18.3515625 14.796875 18.3515625 14.796875 18.3515625 18.796875 C19.07601562 18.91546875 19.80046875 19.0340625 20.546875 19.15625 C26.57856881 20.53396279 32.1404463 23.75788818 37.0390625 27.484375 C40.33076461 29.97666374 43.33888524 30.8960699 47.3515625 31.796875 C47.0215625 32.786875 46.6915625 33.776875 46.3515625 34.796875 C45.45842346 34.79465439 44.56528442 34.79243378 43.64508057 34.79014587 C35.22869328 34.77011004 26.81231401 34.75488403 18.39590836 34.74506283 C14.06894158 34.73984393 9.7419945 34.73276426 5.41503906 34.72143555 C1.23941606 34.71057145 -2.93618799 34.70459067 -7.11182404 34.70199776 C-8.70502267 34.70014987 -10.29822026 34.69654145 -11.89141083 34.69114494 C-14.12261702 34.6838878 -16.35374484 34.68288604 -18.58496094 34.68334961 C-19.85515076 34.681129 -21.12534058 34.67890839 -22.434021 34.67662048 C-25.05525661 34.77468351 -27.16586189 35.01173069 -29.6484375 35.796875 C-26.71157187 25.91039665 -20.05250055 18.0382476 -13.4609375 10.296875 C-12.96223145 9.70970703 -12.46352539 9.12253906 -11.94970703 8.51757812 C-4.25834079 -0.32659841 -4.25834079 -0.32659841 0 0 Z " fill="#F3FAFB" transform="translate(109.6484375,81.203125)"/>
<path d="M0 0 C1.32 0.66 2.64 1.32 4 2 C3.67 5.96 3.34 9.92 3 14 C1.68 14 0.36 14 -1 14 C-1.4021875 15.2375 -1.4021875 15.2375 -1.8125 16.5 C-3.12524922 20.36915561 -4.55101284 24.17994294 -6 28 C-5.01 28 -4.02 28 -3 28 C-2.01 24.7 -1.02 21.4 0 18 C1.65 18 3.3 18 5 18 C4.49810421 20.25853106 3.88037188 22.29159354 3 24.4375 C2.00115694 26.99703535 1.29548034 29.26680684 1 32 C3.68092691 34.68092691 5.39167363 34.38670257 9.125 34.625 C10.22070312 34.69976562 11.31640625 34.77453125 12.4453125 34.8515625 C13.28835938 34.90054688 14.13140625 34.94953125 15 35 C15.67289798 32.00135753 16.33814185 29.00109725 17 26 C17.20625 25.071875 17.4125 24.14375 17.625 23.1875 C18.11264254 20.71282018 18.11264254 20.71282018 18 17 C18.66 17.33 19.32 17.66 20 18 C21.05484732 23.27423661 21.21782014 26.0715108 19 31 C18.5403002 33.6632608 18.27372006 36.30841941 18 39 C17.01 39 16.02 39 15 39 C14.01 39.99 14.01 39.99 13 41 C12.4225 40.505 11.845 40.01 11.25 39.5 C8.89599371 37.63019987 8.89599371 37.63019987 5 38 C4.030625 37.484375 3.06125 36.96875 2.0625 36.4375 C-1.36566102 34.82836319 -2.46799701 35.01888806 -6 36 C-6.66 35.67 -7.32 35.34 -8 35 C-10.06223352 34.87951849 -12.12828629 34.82259073 -14.19384766 34.79467773 C-16.14564438 34.7647599 -16.14564438 34.7647599 -18.13687134 34.73423767 C-19.5626005 34.71725327 -20.98833093 34.70037447 -22.4140625 34.68359375 C-23.86852613 34.66302479 -25.32298377 34.64202834 -26.7774353 34.62062073 C-30.60786088 34.56539396 -34.43834045 34.5159874 -38.26885986 34.46777344 C-42.1766847 34.4175628 -46.084431 34.36187446 -49.9921875 34.30664062 C-57.66139185 34.19905167 -65.33066145 34.09760838 -73 34 C-72.67 33.34 -72.34 32.68 -72 32 C-70.55413296 31.57948887 -69.09253432 31.21220044 -67.625 30.875 C-64.09895342 29.83398597 -64.09895342 29.83398597 -61.84375 27.09765625 C-61.09830097 24.96616213 -61.09830097 24.96616213 -60.6328125 22.83984375 C-60 21 -60 21 -57 19 C-55.56397626 18.93161792 -54.12497731 18.91515579 -52.6875 18.9375 C-50.25439564 18.83631312 -50.25439564 18.83631312 -48 18 C-46.21084842 15.8274588 -44.92899695 13.54777234 -43.5234375 11.11328125 C-41.81507783 8.74347976 -40.83257567 8.07253205 -38.0625 7.25 C-33.57506164 6.58678934 -30.82422023 7.62898346 -27 10 C-26.34 11.65 -25.68 13.3 -25 15 C-19.06 14.67 -13.12 14.34 -7 14 C-6.505 15.98 -6.505 15.98 -6 18 C-5.01 15.36 -4.02 12.72 -3 10 C-2.34 10 -1.68 10 -1 10 C-1 10.66 -1 11.32 -1 12 C-0.34 11.67 0.32 11.34 1 11 C1.46651207 8.87423218 1.46651207 8.87423218 1.625 6.4375 C1.69976563 5.61121094 1.77453125 4.78492187 1.8515625 3.93359375 C1.92503906 2.97646484 1.92503906 2.97646484 2 2 C1.34 2 0.68 2 0 2 C0 1.34 0 0.68 0 0 Z " fill="#F5FBFC" transform="translate(589,70)"/>
<path d="M0 0 C8.36683632 3.42110641 14.0470369 14.25416265 18 22 C19.8706278 26.4965657 21 30.10071625 21 35 C18.12586454 35.82130142 15.58400178 36.12230589 12.59863281 36.11352539 C11.3077475 36.11341209 11.3077475 36.11341209 9.99078369 36.11329651 C9.07085632 36.10813522 8.15092896 36.10297394 7.203125 36.09765625 C5.77996979 36.09553383 5.77996979 36.09553383 4.32806396 36.09336853 C1.30201038 36.08777742 -1.72396883 36.07522652 -4.75 36.0625 C-6.80338435 36.05748385 -8.85676986 36.05292115 -10.91015625 36.04882812 C-15.94013276 36.03781089 -20.97005378 36.02055233 -26 36 C-26.14493896 34.88778076 -26.28987793 33.77556152 -26.43920898 32.62963867 C-26.93169618 29.44208658 -27.31781024 27.89514111 -29.0625 25.3125 C-31 22 -31 22 -31 18 C-31.66 17.67 -32.32 17.34 -33 17 C-31.83188257 14.66376514 -30.7237487 13.28010856 -28.25390625 12.32421875 C-23.55368051 11.19443972 -19.075077 10.94379461 -14.25 10.8125 C-9.83904292 10.62591052 -9.83904292 10.62591052 -6.1640625 8.48828125 C-4.8520535 6.67769309 -4.8520535 6.67769309 -3.9296875 4.7890625 C-2.8928377 2.79378012 -1.64540964 1.51526424 0 0 Z " fill="#F7FCFC" transform="translate(649,41)"/>
<path d="M0 0 C2.66673742 -0.02727345 5.33318869 -0.04696948 8 -0.0625 C8.74378906 -0.07087891 9.48757813 -0.07925781 10.25390625 -0.08789062 C15.26148844 -0.10966272 20.04279032 0.28458451 25 1 C25.13471119 7.62779035 24.67623743 13.93994725 23.75 20.5 C23.58564453 21.82837891 23.58564453 21.82837891 23.41796875 23.18359375 C22.55977508 29.33548731 20.81373911 34.46710125 18 40 C15.95840905 40.0272616 13.91671037 40.04651345 11.875 40.0625 C10.73804688 40.07410156 9.60109375 40.08570313 8.4296875 40.09765625 C5.18272987 40.00520301 2.19196525 39.5659374 -1 39 C-1.06673083 30.04787377 -0.87711856 21.13132528 -0.5 12.1875 C-0.45230469 11.00607422 -0.40460937 9.82464844 -0.35546875 8.60742188 C-0.23930502 5.7381777 -0.12078869 2.86905254 0 0 Z " fill="#F3FCFC" transform="translate(663,276)"/>
<path d="M0 0 C6.27 0 12.54 0 19 0 C20.6498007 3.29960141 20.38258361 6.99127884 20.5625 10.625 C20.60568359 11.42679688 20.64886719 12.22859375 20.69335938 13.0546875 C20.79951457 15.0362511 20.90026855 17.01810271 21 19 C20.34 18.01 19.68 17.02 19 16 C18.01 18.31 17.02 20.62 16 23 C15.34 23 14.68 23 14 23 C13.34 26.96 12.68 30.92 12 35 C11.34 35 10.68 35 10 35 C9.9071875 35.8971875 9.9071875 35.8971875 9.8125 36.8125 C8.47049717 40.42558453 5.28966325 41.35516837 2 43 C-5.80827068 43.37781955 -5.80827068 43.37781955 -10 41 C-10.79349659 29.1151844 -10.79349659 29.1151844 -7.6875 24.75 C-6.800625 23.8425 -5.91375 22.935 -5 22 C-1.65667578 15.18692334 -1.01511525 7.4181499 0 0 Z " fill="#E1F2F6" transform="translate(675,227)"/>
<path d="M0 0 C4.95 0 9.9 0 15 0 C15 10.64436504 11.08127857 17.50358508 5 26 C2.17937936 30.23093096 2.6614939 34.07454411 2.5390625 39.06640625 C2 42 2 42 0.23828125 43.3828125 C-4.59314941 44.71503945 -9.22965674 44.73122874 -13.875 42.8125 C-17.54970725 39.67819087 -19.16468877 36.80085829 -19.5625 32 C-19.4765625 29.89453125 -19.4765625 29.89453125 -19 28 C-16.4375 25.6875 -16.4375 25.6875 -14.79296875 24.5625 C-11.55605097 21.74165662 -9.66911618 17.90207421 -7.515625 14.23046875 C-6.76539063 13.12638672 -6.76539063 13.12638672 -6 12 C-5.34 12 -4.68 12 -4 12 C-3.86722656 11.42765625 -3.73445312 10.8553125 -3.59765625 10.265625 C-2.66703459 6.73777818 -1.30550009 3.40565241 0 0 Z " fill="#F0F9FA" transform="translate(586,226)"/>
<path d="M0 0 C0.99 0.33 1.98 0.66 3 1 C3 1.99 3 2.98 3 4 C2.01 4.495 2.01 4.495 1 5 C-0.35423121 8.325241 -1.50746407 11.70177726 -2.68359375 15.09375 C-3.11800781 16.0528125 -3.55242188 17.011875 -4 18 C-7 19 -7 19 -10 18 C-10 19.65 -10 21.3 -10 23 C-9.34 23.33 -8.68 23.66 -8 24 C-8.66 25.32 -9.32 26.64 -10 28 C-8.35 28 -6.7 28 -5 28 C-5 28.66 -5 29.32 -5 30 C-0.99653977 30.44290923 -0.99653977 30.44290923 1.25 28 C2.11625 27.01 2.11625 27.01 3 26 C3.33 26.66 3.66 27.32 4 28 C4.99 27.01 5.98 26.02 7 25 C5.02 24.34 3.04 23.68 1 23 C1.79900034 18.66857709 2.91199334 14.43583732 4.0625 10.1875 C4.24876953 9.49462891 4.43503906 8.80175781 4.62695312 8.08789062 C5.08321198 6.39154359 5.54140954 4.6957182 6 3 C6.99 3.33 7.98 3.66 9 4 C9 9.28 9 14.56 9 20 C9.99 20 10.98 20 12 20 C12.20589721 12.43592467 12.20589721 12.43592467 11 5 C14.83961632 8.59189914 15.92753519 10.50239395 16.1875 15.875 C16.1037829 19.39111821 16.00053004 21.99920493 14 25 C12.04689848 26.19595203 10.06670766 27.15107258 7.9765625 28.0859375 C5.73613373 29.12202511 3.89341955 30.42215037 2 32 C2.2475 32.94875 2.495 33.8975 2.75 34.875 C3.54992507 40.0691801 1.16122809 44.38999845 -1 49 C-2.93681161 49.08107583 -4.8745934 49.13922475 -6.8125 49.1875 C-7.89144531 49.22230469 -8.97039063 49.25710937 -10.08203125 49.29296875 C-13 49 -13 49 -14.890625 47.62109375 C-16 46 -16 46 -15.9375 43.875 C-14.60043839 39.77467774 -12.82789941 35.90235269 -11 32 C-12.65 32 -14.3 32 -16 32 C-16.185625 33.6396875 -16.185625 33.6396875 -16.375 35.3125 C-17 39 -17 39 -19 42 C-19.99 42 -20.98 42 -22 42 C-21.46515599 36.65155992 -19.53309233 32.64203897 -17 28 C-15.68 28 -14.36 28 -13 28 C-12.91917906 26.04233719 -12.86089222 24.08373272 -12.8125 22.125 C-12.77769531 21.03445312 -12.74289062 19.94390625 -12.70703125 18.8203125 C-12.85205078 17.42425781 -12.85205078 17.42425781 -13 16 C-13.99 15.34 -14.98 14.68 -16 14 C-16.5625 11.3125 -16.5625 11.3125 -16 8 C-11.54788728 1.32863843 -8.07444997 -0.54362633 0 0 Z " fill="#D09843" transform="translate(605,56)"/>
<path d="M0 0 C0.66 0 1.32 0 2 0 C2 8.91 2 17.82 2 27 C2.99 27 3.98 27 5 27 C5 30.63 5 34.26 5 38 C11.27 38.33 17.54 38.66 24 39 C26.54567265 31.47682797 26.54567265 31.47682797 28.1875 23.9375 C28.34605469 22.99777344 28.50460937 22.05804688 28.66796875 21.08984375 C28.77753906 20.40019531 28.88710938 19.71054687 29 19 C29.33 19 29.66 19 30 19 C31.76688996 25.59638919 30.66609065 29.86159333 28 35.9375 C27.72148193 36.58074219 27.44296387 37.22398437 27.15600586 37.88671875 C26.18620903 39.97736133 25.10054507 41.97491051 24 44 C23.37553986 45.27392105 23.37553986 45.27392105 22.73846436 46.57357788 C21.05956236 49.52260662 19.51955836 51.71357149 17 54 C12.31520196 55.27516198 7.88829198 54.91843305 3.078125 54.57421875 C1.72787133 54.51312998 0.37741099 54.4564639 -0.97320557 54.40400696 C-4.51329276 54.25414576 -8.047042 54.04235622 -11.58306885 53.81781006 C-15.18505325 53.60120198 -18.78971087 53.4480032 -22.39453125 53.28710938 C-27.65519648 53.0407421 -32.91392174 52.77270373 -38.17089844 52.45581055 C-39.22678162 52.39233932 -40.28266479 52.3288681 -41.37054443 52.26347351 C-44 52 -44 52 -47 51 C-46.125 44.125 -46.125 44.125 -45 43 C-44.76636119 41.15108054 -44.58696365 39.29511969 -44.4375 37.4375 C-44.35371094 36.42558594 -44.26992188 35.41367187 -44.18359375 34.37109375 C-44.09271484 33.19740234 -44.09271484 33.19740234 -44 32 C-41.85663839 35.4766338 -41.78722374 38.21229195 -41.875 42.25 C-41.89304687 43.32765625 -41.91109375 44.4053125 -41.9296875 45.515625 C-41.96449219 46.74539063 -41.96449219 46.74539063 -42 48 C-40.54207031 47.98259766 -40.54207031 47.98259766 -39.0546875 47.96484375 C-27.01234651 47.87003383 -15.02416586 48.36918008 -3 49 C-3.02320313 48.16339844 -3.04640625 47.32679688 -3.0703125 46.46484375 C-3.18874904 38.82568682 -2.6373802 31.73607481 -1.51171875 24.17578125 C-0.43006629 16.17864588 -0.31079325 8.05608816 0 0 Z " fill="#E4F4F6" transform="translate(657,277)"/>
<path d="M0 0 C5.28 0 10.56 0 16 0 C15.36039402 8.95448377 14.42925902 17.01337783 8.875 24.3125 C5.38682651 29.09481156 5.32112654 33.47893566 5.30078125 39.27734375 C5.20152344 40.17582031 5.10226562 41.07429688 5 42 C1.76085771 44.15942819 0.75140267 44.27232978 -3 44.25 C-3.86625 44.25515625 -4.7325 44.2603125 -5.625 44.265625 C-8 44 -8 44 -11 42 C-11.92886638 36.85163207 -12.21316602 31.29277247 -9.72265625 26.5859375 C-8.23838628 24.82223285 -6.87718447 23.33737236 -5 22 C-4.34 22 -3.68 22 -3 22 C-2.86722656 20.74703125 -2.73445312 19.4940625 -2.59765625 18.203125 C-2.41941709 16.55206754 -2.2410236 14.90102673 -2.0625 13.25 C-1.93198242 12.0125 -1.93198242 12.0125 -1.79882812 10.75 C-1.66831055 9.55117187 -1.66831055 9.55117187 -1.53515625 8.328125 C-1.456604 7.5949707 -1.37805176 6.86181641 -1.29711914 6.10644531 C-1 4 -1 4 0 0 Z " fill="#F0FAFB" transform="translate(614,226)"/>
<path d="M0 0 C4.62 0 9.24 0 14 0 C14.28780438 7.48291379 14.15101616 14.0924783 11 21 C8.375 23.75 8.375 23.75 7.05859375 25.09375 C4.92168235 28.94176757 5.43813203 33.65083627 5.43359375 37.953125 C5 41 5 41 3.22265625 42.40625 C1.04634513 42.98761958 -0.75137367 43.26756739 -3 43.25 C-3.66 43.25515625 -4.32 43.2603125 -5 43.265625 C-7.32576355 42.95673453 -8.96668138 42.14374172 -11 41 C-11.10832169 38.91781638 -11.18573541 36.83400871 -11.25 34.75 C-11.29640625 33.58984375 -11.3428125 32.4296875 -11.390625 31.234375 C-10.91464295 27.29324364 -9.88170031 26.59145711 -7 24 C-4.04466219 19.11975694 -2.94325655 14.14238801 -1.8125 8.625 C-1.63525391 7.79355469 -1.45800781 6.96210938 -1.27539062 6.10546875 C-0.84295493 4.07185226 -0.42045802 2.03612664 0 0 Z " fill="#EDF9FA" transform="translate(645,227)"/>
<path d="M0 0 C1.41805831 0.28482368 2.83440379 0.57818144 4.25 0.875 C5.03890625 1.03742188 5.8278125 1.19984375 6.640625 1.3671875 C8.96831144 1.99150075 10.89031952 2.84838542 13 4 C10.77463552 13.317583 10.77463552 13.317583 7.375 16.3125 C3.45634789 20.74676423 4.09220932 26.27463952 4 32 C4.66 32 5.32 32 6 32 C6 32.66 6 33.32 6 34 C2.89013793 36.07324138 2.10891613 36.27392186 -1.4375 36.25 C-2.19933594 36.25515625 -2.96117187 36.2603125 -3.74609375 36.265625 C-6.21443018 35.9747292 -7.857686 35.22975656 -10 34 C-10.99 34.66 -11.98 35.32 -13 36 C-15.26171875 36.1953125 -15.26171875 36.1953125 -17.6875 36.125 C-18.49574219 36.10695313 -19.30398438 36.08890625 -20.13671875 36.0703125 C-20.75160156 36.04710937 -21.36648438 36.02390625 -22 36 C-22.33 35.34 -22.66 34.68 -23 34 C-19.04 33.34 -15.08 32.68 -11 32 C-11.12375 30.02 -11.2475 28.04 -11.375 26 C-11.38137131 20.10016295 -10.56493122 17.3681899 -6.66796875 13.0546875 C-3.55268626 9.2171264 -1.88390317 4.53470499 0 0 Z " fill="#7FC9D4" transform="translate(599,236)"/>
<path d="M0 0 C-0.72166248 5.17191442 -1.45516909 9.32032617 -5.05859375 13.23828125 C-7.46033485 16.65484253 -7.42069942 18.49976396 -7.25 22.625 C-7.19585938 24.31496094 -7.19585938 24.31496094 -7.140625 26.0390625 C-7.09421875 27.01617187 -7.0478125 27.99328125 -7 29 C-7 29.99 -7 30.98 -7 32 C-11.11862291 34.05931145 -16.47359045 33.18489262 -21 33.1875 C-22.11890625 33.19974609 -23.2378125 33.21199219 -24.390625 33.22460938 C-25.99164062 33.22750977 -25.99164062 33.22750977 -27.625 33.23046875 C-28.60726562 33.23457764 -29.58953125 33.23868652 -30.6015625 33.24291992 C-33 33 -33 33 -35 31 C-31.04 30.34 -27.08 29.68 -23 29 C-23.08701172 27.58847656 -23.08701172 27.58847656 -23.17578125 26.1484375 C-23.58996467 14.71697508 -23.58996467 14.71697508 -20.6875 11.5625 C-19.800625 10.716875 -18.91375 9.87125 -18 9 C-16.82019509 6.71681478 -15.94015562 4.39739683 -15 2 C-13.28724607 0.28724607 -10.96433616 0.63090968 -8.625 0.4375 C-7.15933594 0.31181641 -7.15933594 0.31181641 -5.6640625 0.18359375 C-3.7795199 0.05372058 -1.8890124 0 0 0 Z " fill="#7DC9D4" transform="translate(673,239)"/>
<path d="M0 0 C2.86688248 0.09096556 5.70300515 0.23767988 8.5625 0.4375 C9.36880859 0.48970703 10.17511719 0.54191406 11.00585938 0.59570312 C13.00421738 0.72577376 15.00215386 0.86229056 17 1 C17 1.33 17 1.66 17 2 C14.03 2 11.06 2 8 2 C8.33 2.66 8.66 3.32 9 4 C9.08372659 5.52148326 9.10730027 7.04655778 9.09765625 8.5703125 C9.09443359 9.46621094 9.09121094 10.36210937 9.08789062 11.28515625 C9.07951172 12.22230469 9.07113281 13.15945313 9.0625 14.125 C9.05798828 15.06988281 9.05347656 16.01476562 9.04882812 16.98828125 C9.03702357 19.32558387 9.02055759 21.66276061 9 24 C13.07964281 22.69844994 13.07964281 22.69844994 17 21 C17.66 23.31 18.32 25.62 19 28 C18.34 28 17.68 28 17 28 C17 34.93 17 41.86 17 49 C13.7 49 10.4 49 7 49 C6.34 46.36 5.68 43.72 5 41 C5.99 41 6.98 41 8 41 C8 36.38 8 31.76 8 27 C6.35 27 4.7 27 3 27 C0.6875 26 0.6875 26 -1 25 C-1.02886984 21.02084841 -1.04675406 17.04172347 -1.0625 13.0625 C-1.07087891 11.92619141 -1.07925781 10.78988281 -1.08789062 9.61914062 C-1.09111328 8.53955078 -1.09433594 7.45996094 -1.09765625 6.34765625 C-1.10289307 5.34742432 -1.10812988 4.34719238 -1.11352539 3.31665039 C-1 1 -1 1 0 0 Z " fill="#85D1DC" transform="translate(158,284)"/>
<path d="M0 0 C1.81900072 1.31720742 3.29315116 2.66103387 4.8125 4.3125 C5.369375 4.869375 5.92625 5.42625 6.5 6 C7.1496875 6.6496875 7.1496875 6.6496875 7.8125 7.3125 C6.19981308 4.60025382 4.56348126 1.93897188 2.8125 -0.6875 C5.67609162 -0.38068661 6.92742308 0.40625304 9.1875 2.25 C11.62348872 6.84090183 10.19973688 10.48529059 8.8125 15.3125 C10.4625 15.6425 12.1125 15.9725 13.8125 16.3125 C13.8125 19.6125 13.8125 22.9125 13.8125 26.3125 C13.1525 26.3125 12.4925 26.3125 11.8125 26.3125 C11.8125 26.9725 11.8125 27.6325 11.8125 28.3125 C7.91221775 30.91268816 4.33815431 30.46335514 -0.1875 30.3125 C-1.63537411 27.2237019 -2.35033394 24.4905303 -2.6875 21.125 C-2.7956437 17.29825286 -2.7956437 17.29825286 -5.1875 15.3125 C-5.868125 15.1475 -6.54875 14.9825 -7.25 14.8125 C-7.889375 14.6475 -8.52875 14.4825 -9.1875 14.3125 C-10.9747788 10.73794239 -10.58746941 6.79238681 -9.5625 3 C-7.0796473 -0.04713741 -3.76085858 -1.18198413 0 0 Z " fill="#B5BC9D" transform="translate(137.1875,211.6875)"/>
<path d="M0 0 C4.62 0 9.24 0 14 0 C13.022354 5.86587601 12.12029138 8.87970862 8 13 C7.71793715 16.05932595 7.71793715 16.05932595 7.8125 19.5 C7.81894531 20.6653125 7.82539062 21.830625 7.83203125 23.03125 C7.79942061 25.92882002 7.79942061 25.92882002 9 28 C5.83057116 30.11295256 5.00370047 30.25250929 1.375 30.1875 C0.57835937 30.18105469 -0.21828125 30.17460937 -1.0390625 30.16796875 C-3 30 -3 30 -4 29 C-6.5 28.83333333 -6.5 28.83333333 -9 29 C-9.33 29.33 -9.66 29.66 -10 30 C-12.33297433 30.04092937 -14.66705225 30.04241723 -17 30 C-13 28 -13 28 -10.8828125 27.30859375 C-10.26148438 26.87675781 -9.64015625 26.44492187 -9 26 C-8.51774118 23.18515397 -8.51774118 23.18515397 -8.625 19.9375 C-8.36650354 13.94568463 -7.13886026 10.5954452 -3.47265625 5.90234375 C-1.72305139 3.76923833 -1.72305139 3.76923833 0 0 Z " fill="#7FC9D3" transform="translate(627,242)"/>
<path d="M0 0 C4.95 0 9.9 0 15 0 C15.16547822 4.25406315 15.32786629 8.5080025 15.48217773 12.76245117 C15.53566237 14.21076301 15.59099659 15.65900775 15.64819336 17.10717773 C15.72992512 19.18458582 15.80507768 21.2621417 15.87890625 23.33984375 C15.9260376 24.59144287 15.97316895 25.84304199 16.02172852 27.13256836 C16 30 16 30 15 31 C12.98035801 31.07244053 10.95832876 31.08377188 8.9375 31.0625 C7.28041016 31.04896484 7.28041016 31.04896484 5.58984375 31.03515625 C4.73519531 31.02355469 3.88054688 31.01195312 3 31 C1.91612537 27.74837612 1.69687985 25.00069641 1.46484375 21.58203125 C1.37783203 20.32841797 1.29082031 19.07480469 1.20117188 17.78320312 C1.11416016 16.47287109 1.02714844 15.16253906 0.9375 13.8125 C0.8460625 12.47718888 0.75426975 11.14190204 0.66210938 9.80664062 C0.43790649 6.53799859 0.21850091 3.26902815 0 0 Z " fill="#99D5DE" transform="translate(588,280)"/>
<path d="M0 0 C12 0 12 0 14 1 C14.28734152 11.2165875 13.46764474 20.90994238 12 31 C5.07 30.505 5.07 30.505 -2 30 C-1.34 20.1 -0.68 10.2 0 0 Z " fill="#95D2DC" transform="translate(668,281)"/>
<path d="M0 0 C34.65 0 69.3 0 105 0 C105.495 0.99 105.495 0.99 106 2 C79.93 2 53.86 2 27 2 C26.67 7.28 26.34 12.56 26 18 C25.34 19.98 24.68 21.96 24 24 C23.34 24 22.68 24 22 24 C22.66 21.36 23.32 18.72 24 16 C20.04 14.68 16.08 13.36 12 12 C12.66 8.7 13.32 5.4 14 2 C9.05 2 4.1 2 -1 2 C-0.67 1.34 -0.34 0.68 0 0 Z " fill="#9BD2D9" transform="translate(587,224)"/>
<path d="M0 0 C1.9453125 -0.29296875 1.9453125 -0.29296875 4.125 -0.1875 C5.40375 -0.125625 6.6825 -0.06375 8 0 C7.83965178 8.67338108 6.57747733 16.71096079 4.5625 25.125 C4.34505127 26.03725342 4.12760254 26.94950684 3.90356445 27.8894043 C2.91993792 31.85385172 1.93848668 35.3838879 0 39 C-0.33 39 -0.66 39 -1 39 C-1.18451025 21.14350797 -1.18451025 21.14350797 0 13 C-5.28 12.67 -10.56 12.34 -16 12 C-16.66 10.35 -17.32 8.7 -18 7 C-17.02160156 7.06960938 -17.02160156 7.06960938 -16.0234375 7.140625 C-10.10461838 7.38506001 -6.65118227 7.06978448 -2 3 C-1.34 2.01 -0.68 1.02 0 0 Z " fill="#C2E3E8" transform="translate(688,264)"/>
<path d="M0 0 C0.99 0.33 1.98 0.66 3 1 C3 1.99 3 2.98 3 4 C2.01 4.495 2.01 4.495 1 5 C-0.35423121 8.325241 -1.50746407 11.70177726 -2.68359375 15.09375 C-3.11800781 16.0528125 -3.55242188 17.011875 -4 18 C-7 19 -7 19 -10 18 C-10 19.65 -10 21.3 -10 23 C-9.34 23.33 -8.68 23.66 -8 24 C-9.32 25.65 -10.64 27.3 -12 29 C-13.64309518 25.71380964 -12.90380863 22.14395757 -12.7421875 18.53125 C-12.86980469 17.27828125 -12.86980469 17.27828125 -13 16 C-13.99 15.34 -14.98 14.68 -16 14 C-16.5625 11.3125 -16.5625 11.3125 -16 8 C-11.54788728 1.32863843 -8.07444997 -0.54362633 0 0 Z " fill="#CFBD86" transform="translate(605,56)"/>
<path d="M0 0 C1.32 0 2.64 0 4 0 C4 0.66 4 1.32 4 2 C5.32 2.33 6.64 2.66 8 3 C7.34 3 6.68 3 6 3 C5.9175 3.886875 5.835 4.77375 5.75 5.6875 C4.92714141 11.63173222 2.83990344 17.30913586 1 23 C3.31 23.33 5.62 23.66 8 24 C6.68 25.65 5.36 27.3 4 29 C3.34 28.67 2.68 28.34 2 28 C1.5875 28.515625 1.175 29.03125 0.75 29.5625 C0.1725 30.036875 -0.405 30.51125 -1 31 C-3.1875 30.6875 -3.1875 30.6875 -5 30 C-5 29.34 -5 28.68 -5 28 C-6.65 28 -8.3 28 -10 28 C-9.67 26.68 -9.34 25.36 -9 24 C-9.33 24.33 -9.66 24.66 -10 25 C-10.33 25 -10.66 25 -11 25 C-11 22.36 -11 19.72 -11 17 C-9.02 17.33 -7.04 17.66 -5 18 C-4.67386719 17.07316406 -4.34773437 16.14632812 -4.01171875 15.19140625 C-3.57472656 13.99386719 -3.13773438 12.79632813 -2.6875 11.5625 C-2.25824219 10.36753906 -1.82898438 9.17257813 -1.38671875 7.94140625 C-0.92910156 6.97074219 -0.47148438 6.00007813 0 5 C0.99 4.67 1.98 4.34 3 4 C3 3.01 3 2.02 3 1 C2.01 0.67 1.02 0.34 0 0 Z " fill="#C9B88B" transform="translate(605,56)"/>
<path d="M0 0 C2.97 0 5.94 0 9 0 C9.33 0.99 9.66 1.98 10 3 C9.34 3 8.68 3 8 3 C8 9.93 8 16.86 8 24 C4.7 24 1.4 24 -2 24 C-2.66 21.36 -3.32 18.72 -4 16 C-3.01 16 -2.02 16 -1 16 C-1.01160156 15.01257813 -1.02320313 14.02515625 -1.03515625 13.0078125 C-1.04417969 11.72648437 -1.05320313 10.44515625 -1.0625 9.125 C-1.07410156 7.84882813 -1.08570313 6.57265625 -1.09765625 5.2578125 C-1 2 -1 2 0 0 Z " fill="#7FCCD9" transform="translate(167,309)"/>
<path d="M0 0 C4.64098139 -0.41253168 7.83654133 0.17245096 12.1875 1.875 C17.14765624 3.81415573 21.86262448 4.73466229 27.1171875 5.49609375 C31.27131826 6.2222223 35.04563313 7.55006548 39 9 C39 9.33 39 9.66 39 10 C26.13 10 13.26 10 0 10 C0 6.7 0 3.4 0 0 Z " fill="#D7F0F5" transform="translate(214,323)"/>
<path d="M0 0 C0.99 0.66 1.98 1.32 3 2 C5.74518321 2.24187651 5.74518321 2.24187651 8.6875 2.125 C10.440625 2.08375 12.19375 2.0425 14 2 C14 6.29 14 10.58 14 15 C9.44615385 17.27692308 9.44615385 17.27692308 6 17.25 C5.34 17.25515625 4.68 17.2603125 4 17.265625 C1.67423645 16.95673453 0.03331862 16.14374172 -2 15 C-2.05386629 12.87527424 -2.09273071 10.75016348 -2.125 8.625 C-2.14820313 7.44164062 -2.17140625 6.25828125 -2.1953125 5.0390625 C-2 2 -2 2 0 0 Z " fill="#DDF1F5" transform="translate(636,253)"/>
<path d="M0 0 C0.825 0.144375 1.65 0.28875 2.5 0.4375 C6.70563927 1.11340631 10.75227729 1.08495445 15 1 C15.08078641 3.12438339 15.13909141 5.2496323 15.1875 7.375 C15.23970703 9.15003906 15.23970703 9.15003906 15.29296875 10.9609375 C15.19628906 11.96382813 15.09960938 12.96671875 15 14 C11.76085771 16.15942819 10.75140267 16.27232978 7 16.25 C6.13375 16.25515625 5.2675 16.2603125 4.375 16.265625 C2 16 2 16 -1 14 C-1.328125 10.99609375 -1.328125 10.99609375 -1.25 7.4375 C-1.22679687 5.67212891 -1.22679687 5.67212891 -1.203125 3.87109375 C-1 1 -1 1 0 0 Z " fill="#E4F4F7" transform="translate(604,254)"/>
<path d="M0 0 C0.33 1.32 0.66 2.64 1 4 C1.66 4 2.32 4 3 4 C3 9.94 3 15.88 3 22 C1.618125 22.061875 0.23625 22.12375 -1.1875 22.1875 C-5.97239938 22.69828989 -7.89780936 24.25912305 -11 28 C-14.13411302 30.08940868 -14.97450472 30.27364412 -18.5625 30.25 C-19.74005859 30.25773437 -19.74005859 30.25773437 -20.94140625 30.265625 C-23 30 -23 30 -25 28 C-24.33613281 27.89042969 -23.67226563 27.78085937 -22.98828125 27.66796875 C-16.03973215 26.47776793 -16.03973215 26.47776793 -10 23 C-9.67 22.01 -9.34 21.02 -9 20 C-8.34 20 -7.68 20 -7 20 C-7.04125 18.7625 -7.0825 17.525 -7.125 16.25 C-7.13658291 12.98362038 -6.8568702 10.7853053 -5 8 C-4.34 8 -3.68 8 -3 8 C-2.87625 7.236875 -2.7525 6.47375 -2.625 5.6875 C-2 3 -2 3 0 0 Z " fill="#A4D0D8" transform="translate(694,242)"/>
<path d="M0 0 C0.66 0.33 1.32 0.66 2 1 C3.05484732 6.27423661 3.21782014 9.0715108 1 14 C0.5403002 16.6632608 0.27372006 19.30841941 0 22 C-0.99 22 -1.98 22 -3 22 C-3.66 22.66 -4.32 23.32 -5 24 C-5.5775 23.505 -6.155 23.01 -6.75 22.5 C-9.10400629 20.63019987 -9.10400629 20.63019987 -13 21 C-13.969375 20.484375 -14.93875 19.96875 -15.9375 19.4375 C-19.48613432 17.7718145 -20.32317712 18.19289254 -24 19 C-27.8125 18.0625 -27.8125 18.0625 -31 17 C-31 16.67 -31 16.34 -31 16 C-29.865625 15.855625 -28.73125 15.71125 -27.5625 15.5625 C-24.19222799 15.38828522 -24.19222799 15.38828522 -23 14 C-23.495 13.608125 -23.99 13.21625 -24.5 12.8125 C-26.45593143 10.44908285 -26.24207973 8.98564997 -26 6 C-25.01 5.67 -24.02 5.34 -23 5 C-23.33 6.98 -23.66 8.96 -24 11 C-23.01 11 -22.02 11 -21 11 C-20.01 7.7 -19.02 4.4 -18 1 C-16.35 1 -14.7 1 -13 1 C-13.50189579 3.25853106 -14.11962812 5.29159354 -15 7.4375 C-15.99884306 9.99703535 -16.70451966 12.26680684 -17 15 C-14.31907309 17.68092691 -12.60832637 17.38670257 -8.875 17.625 C-7.77929688 17.69976562 -6.68359375 17.77453125 -5.5546875 17.8515625 C-4.71164062 17.90054688 -3.86859375 17.94953125 -3 18 C-2.32710202 15.00135753 -1.66185815 12.00109725 -1 9 C-0.690625 7.6078125 -0.690625 7.6078125 -0.375 6.1875 C0.11264254 3.71282018 0.11264254 3.71282018 0 0 Z " fill="#F4F7EE" transform="translate(607,87)"/>
<path d="M0 0 C0.99 0.33 1.98 0.66 3 1 C3 6.28 3 11.56 3 17 C3.99 17 4.98 17 6 17 C6.20589721 9.43592467 6.20589721 9.43592467 5 2 C8.83961632 5.59189914 9.92753519 7.50239395 10.1875 12.875 C10.1037829 16.39111821 10.00053004 18.99920493 8 22 C6.04281155 23.1984546 4.06273729 24.15258474 1.96484375 25.08203125 C-0.15918049 25.98430536 -0.15918049 25.98430536 -2.3125 27.8125 C-2.869375 28.204375 -3.42625 28.59625 -4 29 C-4.99 28.67 -5.98 28.34 -7 28 C-6.01 26.35 -5.02 24.7 -4 23 C-3.34 23.66 -2.68 24.32 -2 25 C-1.01 24.01 -0.02 23.02 1 22 C-0.98 21.34 -2.96 20.68 -5 20 C-4.20099966 15.66857709 -3.08800666 11.43583732 -1.9375 7.1875 C-1.75123047 6.49462891 -1.56496094 5.80175781 -1.37304688 5.08789062 C-0.91678802 3.39154359 -0.45859046 1.6957182 0 0 Z " fill="#C2BCA1" transform="translate(611,59)"/>
<path d="M0 0 C0.5671875 0.32484375 1.134375 0.6496875 1.71875 0.984375 C4.18710174 2.08329872 5.81603219 2.26838334 8.5 2.25 C9.2528125 2.25515625 10.005625 2.2603125 10.78125 2.265625 C13.0442325 2.12572355 13.0442325 2.12572355 15.015625 0.9609375 C18.40155164 -0.67870414 21.36952963 0.3949216 25 1 C21.56047179 3.11663275 18.96576991 3 15 3 C14.34 3.66 13.68 4.32 13 5 C6.67148648 6.15063882 0.41643961 6.10615433 -6 6 C-5.97679687 6.88042969 -5.95359375 7.76085937 -5.9296875 8.66796875 C-5.91164063 9.82941406 -5.89359375 10.99085938 -5.875 12.1875 C-5.85179687 13.33605469 -5.82859375 14.48460937 -5.8046875 15.66796875 C-5.99732577 18.95437765 -6.65883264 21.03317524 -8 24 C-8.37593066 25.9924325 -8.71979545 27.9918674 -9 30 C-11 28 -11 28 -11.22705078 25.47802734 C-11.21657715 24.4411377 -11.20610352 23.40424805 -11.1953125 22.3359375 C-11.18886719 21.21445312 -11.18242188 20.09296875 -11.17578125 18.9375 C-11.15902344 17.761875 -11.14226563 16.58625 -11.125 15.375 C-11.11597656 14.19164062 -11.10695313 13.00828125 -11.09765625 11.7890625 C-11.07402812 8.85917477 -11.04108514 5.9296866 -11 3 C-10.28972656 2.86722656 -9.57945312 2.73445313 -8.84765625 2.59765625 C-7.92855469 2.42105469 -7.00945313 2.24445313 -6.0625 2.0625 C-4.68771484 1.80146484 -4.68771484 1.80146484 -3.28515625 1.53515625 C-1.04710156 1.22285012 -1.04710156 1.22285012 0 0 Z " fill="#BDE1E8" transform="translate(589,269)"/>
<path d="M0 0 C0.99 0.33 1.98 0.66 3 1 C3 1.66 3 2.32 3 3 C4.14597656 2.98839844 5.29195312 2.97679687 6.47265625 2.96484375 C8.00260252 2.95545758 9.53255058 2.94635827 11.0625 2.9375 C11.81466797 2.92912109 12.56683594 2.92074219 13.34179688 2.91210938 C18.00633118 2.89191659 22.39923173 3.22404041 27 4 C25.68 4.33 24.36 4.66 23 5 C23 5.99 23 6.98 23 8 C7.82 7.67 -7.36 7.34 -23 7 C-23.33 6.01 -23.66 5.02 -24 4 C-19.9088444 2.7165002 -16.3091525 1.61978066 -12 2 C-11.67 2.33 -11.34 2.66 -11 3 C-8.93335994 3.23790731 -8.93335994 3.23790731 -6.5625 3.25 C-5.75941406 3.27578125 -4.95632813 3.3015625 -4.12890625 3.328125 C-3.07509766 3.16570312 -3.07509766 3.16570312 -2 3 C-1.34 2.01 -0.68 1.02 0 0 Z " fill="#BBDFE5" transform="translate(635,268)"/>
<path d="M0 0 C1.32 0 2.64 0 4 0 C4.19965804 10.30457348 4.07882039 20.19560554 2.51171875 30.3984375 C1.68141629 36.24224563 1.34493596 42.10885681 1 48 C-12.05483123 48.11839878 -24.9746591 47.91405901 -38 47 C-38 41.39 -38 35.78 -38 30 C-37.67 30 -37.34 30 -37 30 C-36.67 35.28 -36.34 40.56 -36 46 C-33.339375 45.505 -33.339375 45.505 -30.625 45 C-25.25 44 -25.25 44 -23 44 C-23 44.66 -23 45.32 -23 46 C-17.06 45.67 -11.12 45.34 -5 45 C-4.505 44.01 -4.505 44.01 -4 43 C-3.01 43.495 -3.01 43.495 -2 44 C-0.8663178 41.7326356 -0.8339203 40.34452667 -0.75390625 37.82421875 C-0.72103516 36.99599609 -0.68816406 36.16777344 -0.65429688 35.31445312 C-0.5935126 33.57498833 -0.53617285 31.83539946 -0.48242188 30.09570312 C-0.2952096 25.53549471 0.25996587 22.23837106 2 18 C2.38196349 15.06967498 2.50625596 12.1387841 2.625 9.1875 C2.66367187 8.39923828 2.70234375 7.61097656 2.7421875 6.79882812 C2.83588844 4.8662462 2.91900779 2.93315624 3 1 C2.01 0.67 1.02 0.34 0 0 Z " fill="#96CED5" transform="translate(653,278)"/>
<path d="M0 0 C4.29 0 8.58 0 13 0 C12.88525534 2.54250021 12.7585303 5.08347338 12.625 7.625 C12.57859375 8.69427734 12.57859375 8.69427734 12.53125 9.78515625 C12.28979845 14.17152608 11.60657269 17.8594834 10 22 C9.34 22 8.68 22 8 22 C8.66 19.36 9.32 16.72 10 14 C6.04 12.68 2.08 11.36 -2 10 C-1.34 6.7 -0.68 3.4 0 0 Z " fill="#BEE4E9" transform="translate(601,226)"/>
<path d="M0 0 C1.85776765 3.13498292 2.20140476 5.37471432 2 9 C1.34 9 0.68 9 0 9 C-0.12375 9.639375 -0.2475 10.27875 -0.375 10.9375 C-0.58125 11.618125 -0.7875 12.29875 -1 13 C-4.25303044 14.62651522 -7.39225602 14.11453156 -11 14 C-12 13 -12 13 -12.09765625 10.49609375 C-12.08605469 9.48675781 -12.07445312 8.47742188 -12.0625 7.4375 C-12.05347656 6.42558594 -12.04445312 5.41367188 -12.03515625 4.37109375 C-12.02355469 3.58863281 -12.01195312 2.80617187 -12 2 C-7.79038695 0.15329583 -4.61179928 -0.18085487 0 0 Z " fill="#E5C57B" transform="translate(148,228)"/>
<path d="M0 0 C3.85998276 0.52161929 5.30946515 1.30946515 8 4 C10.60611077 4.72197162 10.60611077 4.72197162 13 5 C12.45144652 9.571279 11.58255197 13.67435795 10 18 C7.03 17.67 4.06 17.34 1 17 C1.46586199 14.2824717 2.012475 11.97158472 3.125 9.4375 C4.11289877 6.68549627 4.15070151 5.65546502 3 3 C1.52109931 1.26973898 1.52109931 1.26973898 0 0 Z " fill="#D88B22" transform="translate(592,86)"/>
<path d="M0 0 C3.625 0.375 3.625 0.375 7 1 C7.33 1.99 7.66 2.98 8 4 C21.86 4 35.72 4 50 4 C50 4.33 50 4.66 50 5 C35.81 5 21.62 5 7 5 C7 8.3 7 11.6 7 15 C6.67 15.66 6.34 16.32 6 17 C5.34 17 4.68 17 4 17 C4 12.71 4 8.42 4 4 C-0.62 4 -5.24 4 -10 4 C-10 3.67 -10 3.34 -10 3 C-8.72125 2.87625 -7.4425 2.7525 -6.125 2.625 C-2.65209064 2.30957601 -2.65209064 2.30957601 0 0 Z " fill="#C6E7EB" transform="translate(604,271)"/>
<path d="M0 0 C8.25 0 16.5 0 25 0 C25.79946528 9.11136619 26.15511245 18.10585205 26.125 27.25 C26.13080078 29.08111328 26.13080078 29.08111328 26.13671875 30.94921875 C26.13542969 32.10550781 26.13414062 33.26179688 26.1328125 34.453125 C26.13168457 35.49629883 26.13055664 36.53947266 26.12939453 37.61425781 C26 40 26 40 25 41 C17.73237779 42.23412453 10.34505909 42.11358339 3 42 C3 41.67 3 41.34 3 41 C7.95 40.67 12.9 40.34 18 40 C17.67 38.68 17.34 37.36 17 36 C18.485 35.505 18.485 35.505 20 35 C20.33 32.03 20.66 29.06 21 26 C21.33 26 21.66 26 22 26 C22.24954005 27.43410368 22.47392642 28.87260072 22.6875 30.3125 C22.87892578 31.51326172 22.87892578 31.51326172 23.07421875 32.73828125 C23 35 23 35 21.51953125 36.79296875 C21.01808594 37.19128906 20.51664063 37.58960938 20 38 C21.65 38.33 23.3 38.66 25 39 C24.96970703 38.34628418 24.93941406 37.69256836 24.90820312 37.01904297 C24.35884757 25.00294676 23.86328861 13.03060261 24 1 C16.08 1 8.16 1 0 1 C0 0.67 0 0.34 0 0 Z " fill="#E8F6F8" transform="translate(583,275)"/>
<path d="M0 0 C0.33 0 0.66 0 1 0 C1.16820551 1.93736701 1.33451095 3.87489906 1.5 5.8125 C1.5928125 6.89144531 1.685625 7.97039062 1.78125 9.08203125 C2 12 2 12 2 15 C-2.11862291 17.05931145 -7.47359045 16.18489262 -12 16.1875 C-13.11890625 16.19974609 -14.2378125 16.21199219 -15.390625 16.22460938 C-16.99164062 16.22750977 -16.99164062 16.22750977 -18.625 16.23046875 C-19.60726562 16.23457764 -20.58953125 16.23868652 -21.6015625 16.24291992 C-24 16 -24 16 -26 14 C-21.71 13.34 -17.42 12.68 -13 12 C-13 9.69 -13 7.38 -13 5 C-12 7 -11 9 -10 11 C-6.7 11 -3.4 11 0 11 C0 7.37 0 3.74 0 0 Z " fill="#84C5CC" transform="translate(664,256)"/>
<path d="M0 0 C3.11799003 0.75035741 6.18070403 1.63363411 9.25 2.5625 C10.14203125 2.83191406 11.0340625 3.10132812 11.953125 3.37890625 C12.62859375 3.58386719 13.3040625 3.78882812 14 4 C12.68 5.65 11.36 7.3 10 9 C9.34 8.67 8.68 8.34 8 8 C7.5875 8.515625 7.175 9.03125 6.75 9.5625 C5.88375 10.2740625 5.88375 10.2740625 5 11 C2.8125 10.6875 2.8125 10.6875 1 10 C1 9.34 1 8.68 1 8 C-0.65 8 -2.3 8 -4 8 C-2.87548273 5.0280615 -1.77706209 2.66559313 0 0 Z " fill="#E5E9D6" transform="translate(599,76)"/>
<path d="M0 0 C2.19510603 0.25361783 4.38228739 0.57765908 6.5625 0.9375 C8.35880859 1.22947266 8.35880859 1.22947266 10.19140625 1.52734375 C11.11824219 1.68332031 12.04507813 1.83929688 13 2 C13 3.65 13 5.3 13 7 C13.66 7 14.32 7 15 7 C15 8.65 15 10.3 15 12 C14.01 12.33 13.02 12.66 12 13 C12.33 14.98 12.66 16.96 13 19 C12.34 19 11.68 19 11 19 C10.875 12.375 10.875 12.375 12 9 C10.12802546 6.30566683 10.12802546 6.30566683 8 4 C7.67 4.33 7.34 4.66 7 5 C7.495 5.433125 7.99 5.86625 8.5 6.3125 C10 8 10 8 10 11 C9.01 10.67 8.02 10.34 7 10 C6.896875 9.360625 6.79375 8.72125 6.6875 8.0625 C6.460625 7.381875 6.23375 6.70125 6 6 C1.67792868 3.88922098 -1.37301506 3.89833692 -6 5 C-6.33 4.01 -6.66 3.02 -7 2 C-6.030625 1.855625 -5.06125 1.71125 -4.0625 1.5625 C-1.13513227 1.32437659 -1.13513227 1.32437659 0 0 Z " fill="#BBE1D7" transform="translate(135,208)"/>
<path d="M0 0 C0.99 0.33 1.98 0.66 3 1 C3.19818283 7.70518586 3.30844801 13.65176798 1 20 C-0.98 20 -2.96 20 -5 20 C-4.20099966 15.66857709 -3.08800666 11.43583732 -1.9375 7.1875 C-1.75123047 6.49462891 -1.56496094 5.80175781 -1.37304688 5.08789062 C-0.91678802 3.39154359 -0.45859046 1.6957182 0 0 Z " fill="#7EB454" transform="translate(611,59)"/>
<path d="M0 0 C2.86688248 0.09096556 5.70300515 0.23767988 8.5625 0.4375 C9.36880859 0.48970703 10.17511719 0.54191406 11.00585938 0.59570312 C13.00421738 0.72577376 15.00215386 0.86229056 17 1 C17 1.33 17 1.66 17 2 C11.39 2 5.78 2 0 2 C0 9.26 0 16.52 0 24 C2.64 24 5.28 24 8 24 C8 20.7 8 17.4 8 14 C8.33 14 8.66 14 9 14 C9 17.3 9 20.6 9 24 C13.07964281 22.69844994 13.07964281 22.69844994 17 21 C17.33 22.32 17.66 23.64 18 25 C15.03 25 12.06 25 9 25 C9 25.66 9 26.32 9 27 C4.9715651 27.18311068 2.51624755 26.94158017 -1 25 C-1.02886984 21.02084841 -1.04675406 17.04172347 -1.0625 13.0625 C-1.07087891 11.92619141 -1.07925781 10.78988281 -1.08789062 9.61914062 C-1.09111328 8.53955078 -1.09433594 7.45996094 -1.09765625 6.34765625 C-1.10289307 5.34742432 -1.10812988 4.34719238 -1.11352539 3.31665039 C-1 1 -1 1 0 0 Z " fill="#95D5E1" transform="translate(158,284)"/>
<path d="M0 0 C1.32 0 2.64 0 4 0 C2.1668733 5.99932374 -0.07321751 11.44920563 -3 17 C-4.65 16.67 -6.3 16.34 -8 16 C-8.34546748 11.77177848 -7.52620593 9.65144061 -5.125 6.1875 C-4.59132813 5.39730469 -4.05765625 4.60710938 -3.5078125 3.79296875 C-2.76144531 2.90544922 -2.76144531 2.90544922 -2 2 C-1.34 2 -0.68 2 0 2 C0 1.34 0 0.68 0 0 Z " fill="#96C058" transform="translate(603,58)"/>
<path d="M0 0 C1.65 0 3.3 0 5 0 C5.66 3.96 6.32 7.92 7 12 C4.29120665 13.35439668 1.99066732 13.06501451 -1 13 C-2.5121867 9.97562661 -2.17263369 7.33758466 -2 4 C-1 1.5625 -1 1.5625 0 0 Z " fill="#A6B67B" transform="translate(129,213)"/>
<path d="M0 0 C0.02694851 1.95825873 0.04637218 3.91662226 0.0625 5.875 C0.07410156 6.96554687 0.08570313 8.05609375 0.09765625 9.1796875 C0 12 0 12 -1 14 C-0.34 14.33 0.32 14.66 1 15 C0.01 15.99 -0.98 16.98 -2 18 C-2 16.35 -2 14.7 -2 13 C-3.11375 13.61875 -4.2275 14.2375 -5.375 14.875 C-6.00148437 15.22304688 -6.62796875 15.57109375 -7.2734375 15.9296875 C-9.1612614 17.00897274 -9.1612614 17.00897274 -11 19 C-10.67 16.69 -10.34 14.38 -10 12 C-11.32 11.67 -12.64 11.34 -14 11 C-8.06 10.505 -8.06 10.505 -2 10 C-2.66 8.35 -3.32 6.7 -4 5 C-6.64 5.33 -9.28 5.66 -12 6 C-3 0 -3 0 0 0 Z " fill="#ABDFE7" transform="translate(200,297)"/>
<path d="M0 0 C0 0.99 0 1.98 0 3 C1.9375006 5.18777466 1.9375006 5.18777466 4 7 C1.07937259 6.5943573 -0.64686678 6.29617625 -2.9375 4.375 C-5.04153319 2.65860937 -5.04153319 2.65860937 -8.25 3.3125 C-9.1575 3.539375 -10.065 3.76625 -11 4 C-11.185625 5.6396875 -11.185625 5.6396875 -11.375 7.3125 C-12 11 -12 11 -14 14 C-14.99 14 -15.98 14 -17 14 C-16.49514774 8.95147745 -15.07734828 4.09336168 -12 0 C-7.9666286 -1.63355752 -4.18630129 -0.62794519 0 0 Z " fill="#F1C16E" transform="translate(600,84)"/>
<path d="M0 0 C2.31 0 4.62 0 7 0 C5.0230634 5.57136677 2.01069345 13.52484164 -3 17 C-5.69921875 16.85546875 -5.69921875 16.85546875 -8.6875 16.1875 C-9.68136719 15.97480469 -10.67523438 15.76210937 -11.69921875 15.54296875 C-12.45847656 15.36378906 -13.21773437 15.18460938 -14 15 C-14 14.67 -14 14.34 -14 14 C-10.04 13.34 -6.08 12.68 -2 12 C-2 11.34 -2 10.68 -2 10 C-1.34 10 -0.68 10 0 10 C0 6.7 0 3.4 0 0 Z " fill="#BDDDD9" transform="translate(151,228)"/>
<path d="M0 0 C0.99 0 1.98 0 3 0 C3 0.99 3 1.98 3 3 C3.77085937 2.84402344 4.54171875 2.68804687 5.3359375 2.52734375 C6.33882812 2.33269531 7.34171875 2.13804687 8.375 1.9375 C9.87160156 1.64166016 9.87160156 1.64166016 11.3984375 1.33984375 C14 1 14 1 16 2 C16 2.66 16 3.32 16 4 C12.89013793 6.07324138 12.10891613 6.27392186 8.5625 6.25 C7.80066406 6.25515625 7.03882813 6.2603125 6.25390625 6.265625 C3.78556982 5.9747292 2.142314 5.22975656 0 4 C-0.99 4.66 -1.98 5.32 -3 6 C-5.26171875 6.1953125 -5.26171875 6.1953125 -7.6875 6.125 C-8.49574219 6.10695313 -9.30398438 6.08890625 -10.13671875 6.0703125 C-11.05904297 6.03550781 -11.05904297 6.03550781 -12 6 C-12.33 5.34 -12.66 4.68 -13 4 C-8.71 3.34 -4.42 2.68 0 2 C0 1.34 0 0.68 0 0 Z " fill="#8DBDC4" transform="translate(589,266)"/>
<path d="M0 0 C0.66 0 1.32 0 2 0 C2.16470403 8.77163325 1.64617393 17.44232179 1 26.1875 C0.90328878 27.53447962 0.80693243 28.88148477 0.7109375 30.22851562 C0.47743008 33.48594415 0.24037781 36.7430725 0 40 C-0.66 40 -1.32 40 -2 40 C-2.33 41.32 -2.66 42.64 -3 44 C-3.18986279 38.58891041 -2.85239249 33.5470668 -2.0625 28.1875 C-0.71821325 18.82516249 -0.36432554 9.44370146 0 0 Z " fill="#DAF6F9" transform="translate(657,277)"/>
<path d="M0 0 C1.65 0 3.3 0 5 0 C6.85776765 3.13498292 7.20140476 5.37471432 7 9 C6.34 9 5.68 9 5 9 C4.67 9.99 4.34 10.98 4 12 C3.01 11.67 2.02 11.34 1 11 C0.67 9.02 0.34 7.04 0 5 C-1.98 5 -3.96 5 -6 5 C-6 4.34 -6 3.68 -6 3 C-5.195625 2.87625 -4.39125 2.7525 -3.5625 2.625 C-2.716875 2.41875 -1.87125 2.2125 -1 2 C-0.67 1.34 -0.34 0.68 0 0 Z " fill="#DA9D3C" transform="translate(143,228)"/>
<path d="M0 0 C4.95 0 9.9 0 15 0 C15 9.17461773 12.39288574 15.68108364 7 23 C7 22.01 7 21.02 7 20 C6.87625 18.9275 6.7525 17.855 6.625 16.75 C7.0778688 12.22131204 8.42239144 10.84354494 11.58984375 7.7734375 C13.45486258 5.70511138 13.45486258 5.70511138 14 1 C10.04 1 6.08 1 2 1 C1.34 2.32 0.68 3.64 0 5 C-0.33 4.01 -0.66 3.02 -1 2 C-0.67 1.34 -0.34 0.68 0 0 Z " fill="#DDF6FA" transform="translate(586,226)"/>
<path d="M0 0 C2.90670291 1.30300475 4.84824949 2.66114075 7 5 C7.556875 5.556875 8.11375 6.11375 8.6875 6.6875 C9.3371875 7.3371875 9.3371875 7.3371875 10 8 C8.38731308 5.28775382 6.75098126 2.62647188 5 0 C8.25543229 0.34879632 9.01873107 1.02133261 11.25 3.5625 C11.8275 4.366875 12.405 5.17125 13 6 C12.375 8.4375 12.375 8.4375 11 11 C7.875 11.8125 7.875 11.8125 5 12 C4.16180842 10.37750059 3.3295884 8.75191503 2.5 7.125 C2.0359375 6.22007812 1.571875 5.31515625 1.09375 4.3828125 C0 2 0 2 0 0 Z " fill="#9ABE71" transform="translate(135,211)"/>
<path d="M0 0 C0.66 0.33 1.32 0.66 2 1 C1.67 1.99 1.34 2.98 1 4 C0.93259135 5.56118428 0.91485544 7.1250252 0.9375 8.6875 C0.94652344 9.49574219 0.95554687 10.30398437 0.96484375 11.13671875 C0.97644531 11.75160156 0.98804687 12.36648437 1 13 C1.78375 13.12375 2.5675 13.2475 3.375 13.375 C6 14 6 14 8 16 C8.26991906 18.68839385 8.08737357 21.29141936 8 24 C7.34 24 6.68 24 6 24 C5.9175 23.21625 5.835 22.4325 5.75 21.625 C5.27193661 18.85250896 5.27193661 18.85250896 2.9375 17.6875 C2.298125 17.460625 1.65875 17.23375 1 17 C1.33 16.67 1.66 16.34 2 16 C1.175 15.319375 0.35 14.63875 -0.5 13.9375 C-3 11 -3 11 -3.5 7.4375 C-2.99318044 3.95311553 -2.40096632 2.50100658 0 0 Z " fill="#B5DCD4" transform="translate(127,213)"/>
<path d="M0 0 C6.6 0 13.2 0 20 0 C20 0.99 20 1.98 20 3 C19.44441406 2.83886719 18.88882813 2.67773438 18.31640625 2.51171875 C15.79925267 1.95565278 13.5138488 1.83192948 10.9375 1.8125 C10.08027344 1.79832031 9.22304688 1.78414063 8.33984375 1.76953125 C5.72801691 1.84153915 5.72801691 1.84153915 3 4 C2.61588725 6.609621 2.39706803 9.0058074 2.3125 11.625 C2.27833984 12.33140625 2.24417969 13.0378125 2.20898438 13.765625 C2.12648692 15.50985688 2.06156665 17.25490395 2 19 C1.67 19 1.34 19 1 19 C-0.52445829 12.72211269 -0.06004213 6.42450816 0 0 Z " fill="#4C8F94" transform="translate(614,278)"/>
<path d="M0 0 C1.61270411 5.01730167 0.55290597 9.83954431 0 15 C-6.93 14.505 -6.93 14.505 -14 14 C-14 12.35 -14 10.7 -14 9 C-13.67 9.99 -13.34 10.98 -13 12 C-12.38511719 12.06058594 -11.77023437 12.12117188 -11.13671875 12.18359375 C-10.32847656 12.26738281 -9.52023437 12.35117187 -8.6875 12.4375 C-7.88699219 12.51871094 -7.08648438 12.59992188 -6.26171875 12.68359375 C-4 13 -4 13 -1 14 C-1.33 12.35 -1.66 10.7 -2 9 C-3.98 9.99 -3.98 9.99 -6 11 C-5.43518386 7.04628701 -4.28003407 4.28324906 -2 1 C-1.34 0.67 -0.68 0.34 0 0 Z " fill="#A2D6DF" transform="translate(680,297)"/>
<path d="M0 0 C0.66 0.33 1.32 0.66 2 1 C3.05484732 6.27423661 3.21782014 9.0715108 1 14 C0.80053581 15.41242212 0.63595203 16.8300566 0.5 18.25 C0.335 19.4875 0.17 20.725 0 22 C-0.66 22.33 -1.32 22.66 -2 23 C-2.33 21.68 -2.66 20.36 -3 19 C-6.63 19 -10.26 19 -14 19 C-14 18.67 -14 18.34 -14 18 C-10.37 18 -6.74 18 -3 18 C-2.32857684 15.00097657 -1.66186515 12.00112899 -1 9 C-0.79375 8.071875 -0.5875 7.14375 -0.375 6.1875 C0.11264254 3.71282018 0.11264254 3.71282018 0 0 Z " fill="#E4E6D4" transform="translate(607,87)"/>
<path d="M0 0 C0.99 0.33 1.98 0.66 3 1 C3 4.63 3 8.26 3 12 C-2 11 -2 11 -4 10 C-3.67 7.69 -3.34 5.38 -3 3 C-2.34 3 -1.68 3 -1 3 C-0.67 2.01 -0.34 1.02 0 0 Z " fill="#82C8D3" transform="translate(692,247)"/>
<path d="M0 0 C1.65 0 3.3 0 5 0 C4.45144652 4.571279 3.58255197 8.67435795 2 13 C0.68 12.67 -0.64 12.34 -2 12 C-1.85904936 10.3745692 -1.71207913 8.74965949 -1.5625 7.125 C-1.48128906 6.22007813 -1.40007813 5.31515625 -1.31640625 4.3828125 C-1 2 -1 2 0 0 Z " fill="#E89D31" transform="translate(600,91)"/>
<path d="M0 0 C0.99 0.33 1.98 0.66 3 1 C2.49396008 3.16874252 2.00016187 4.99967627 1 7 C-0.32 7 -1.64 7 -3 7 C-3.33 8.98 -3.66 10.96 -4 13 C-4.66 13 -5.32 13 -6 13 C-6.66 11.02 -7.32 9.04 -8 7 C-5.42215154 4.35247996 -3.08351902 2.05567935 0 0 Z " fill="#E3F0EE" transform="translate(616,81)"/>
<path d="M0 0 C0.33 0 0.66 0 1 0 C1.33 5.28 1.66 10.56 2 16 C3.77375 15.67 5.5475 15.34 7.375 15 C12.75 14 12.75 14 15 14 C15 14.66 15 15.32 15 16 C20.28 16 25.56 16 31 16 C31 16.33 31 16.66 31 17 C20.77 17 10.54 17 0 17 C0 11.39 0 5.78 0 0 Z " fill="#85C1C8" transform="translate(615,308)"/>
<path d="M0 0 C0.66 0 1.32 0 2 0 C2 2.64 2 5.28 2 8 C-1.3 8 -4.6 8 -8 8 C-8.33 6.68 -8.66 5.36 -9 4 C-8.43410156 3.79503906 -7.86820313 3.59007812 -7.28515625 3.37890625 C-6.55167969 3.10949219 -5.81820312 2.84007812 -5.0625 2.5625 C-4.33160156 2.29566406 -3.60070312 2.02882813 -2.84765625 1.75390625 C-1.01694322 1.14613052 -1.01694322 1.14613052 0 0 Z " fill="#84C8D6" transform="translate(601,302)"/>
<path d="M0 0 C0.5671875 0.32484375 1.134375 0.6496875 1.71875 0.984375 C4.18710174 2.08329872 5.81603219 2.26838334 8.5 2.25 C9.2528125 2.25515625 10.005625 2.2603125 10.78125 2.265625 C13.0442325 2.12572355 13.0442325 2.12572355 15.015625 0.9609375 C18.40155164 -0.67870414 21.36952963 0.3949216 25 1 C21.56047179 3.11663275 18.96576991 3 15 3 C14.34 3.66 13.68 4.32 13 5 C9.7421875 5.1953125 9.7421875 5.1953125 5.875 5.125 C3.95300781 5.09792969 3.95300781 5.09792969 1.9921875 5.0703125 C0.51105469 5.03550781 0.51105469 5.03550781 -1 5 C-1 4.34 -1 3.68 -1 3 C-1.66 2.67 -2.32 2.34 -3 2 C-2.01 1.34 -1.02 0.68 0 0 Z " fill="#B3D8DE" transform="translate(589,269)"/>
<path d="M0 0 C0.99 0.66 1.98 1.32 3 2 C2.46515599 7.34844008 0.53309233 11.35796103 -2 16 C-2.99 15.34 -3.98 14.68 -5 14 C-4.34580901 8.93001981 -2.1453591 4.58009223 0 0 Z " fill="#F8C368" transform="translate(594,88)"/>
<path d="M0 0 C1.32 0.66 2.64 1.32 4 2 C3.67 5.96 3.34 9.92 3 14 C1.68 14 0.36 14 -1 14 C-1.433125 15.423125 -1.433125 15.423125 -1.875 16.875 C-3 20 -3 20 -5 22 C-6.12377697 18.69564916 -5.89554742 16.9493138 -4.5625 13.75 C-4.27503906 13.04359375 -3.98757813 12.3371875 -3.69140625 11.609375 C-3.46324219 11.07828125 -3.23507812 10.5471875 -3 10 C-2.34 10 -1.68 10 -1 10 C-1 10.66 -1 11.32 -1 12 C-0.34 11.67 0.32 11.34 1 11 C1.46651207 8.87423218 1.46651207 8.87423218 1.625 6.4375 C1.69976563 5.61121094 1.77453125 4.78492187 1.8515625 3.93359375 C1.90054688 3.29550781 1.94953125 2.65742187 2 2 C1.34 2 0.68 2 0 2 C0 1.34 0 0.68 0 0 Z " fill="#E7ECE3" transform="translate(589,70)"/>
<path d="M0 0 C1.65 0 3.3 0 5 0 C4.2990542 3.1542561 3.23666046 6.01746595 2 9 C1.62875 9.928125 1.2575 10.85625 0.875 11.8125 C0.58625 12.534375 0.2975 13.25625 0 14 C-0.33 13.34 -0.66 12.68 -1 12 C-3.01669827 10.86649466 -3.01669827 10.86649466 -5 10 C-4.34 10 -3.68 10 -3 10 C-2.01 6.7 -1.02 3.4 0 0 Z " fill="#FDEBA9" transform="translate(589,88)"/>
<path d="M0 0 C4 2 4 2 4.75 4.125 C5.59259259 13.81481481 5.59259259 13.81481481 4 17 C3.01 17 2.02 17 1 17 C0.67 11.39 0.34 5.78 0 0 Z " fill="#E5E5B4" transform="translate(613,59)"/>
<path d="M0 0 C1.32 0.66 2.64 1.32 4 2 C2.30729015 4.07493465 1.47024878 4.93070018 -1.2265625 5.328125 C-2.01804687 5.30234375 -2.80953125 5.2765625 -3.625 5.25 C-4.42164063 5.23453125 -5.21828125 5.2190625 -6.0390625 5.203125 C-8 5 -8 5 -9 4 C-11.5 3.83333333 -11.5 3.83333333 -14 4 C-14.33 4.33 -14.66 4.66 -15 5 C-17.33297433 5.04092937 -19.66705225 5.04241723 -22 5 C-20.68747118 4.29325371 -19.34721283 3.63815344 -18 3 C-17.175 2.608125 -16.35 2.21625 -15.5 1.8125 C-10.26537619 0.59731947 -5.29525442 1.36594041 0 2 C0 1.34 0 0.68 0 0 Z " fill="#91B6BD" transform="translate(632,267)"/>
<path d="M0 0 C3.86602445 3.61660352 4.92985578 5.52697133 5.1875 10.9375 C5.15827158 14.11170617 4.80180892 16.29728662 3 19 C2.01 19 1.02 19 0 19 C0.165 18.175 0.33 17.35 0.5 16.5 C1.2999271 10.9005103 1.38349789 5.53399154 0 0 Z " fill="#75AE60" transform="translate(616,61)"/>
<path d="M0 0 C4.95 0 9.9 0 15 0 C15 3.63 15 7.26 15 11 C13 7 13 7 12 4 C12.33 3.34 12.66 2.68 13 2 C11.02 3.65 9.04 5.3 7 7 C7.875 3.125 7.875 3.125 9 2 C6.36 1.67 3.72 1.34 1 1 C0.67 2.32 0.34 3.64 0 5 C0 3.35 0 1.7 0 0 Z " fill="#ADDAE2" transform="translate(588,280)"/>
<path d="M0 0 C2.31 0 4.62 0 7 0 C6.04454634 1.46022163 5.08553322 2.91811468 4.125 4.375 C3.59132813 5.18710937 3.05765625 5.99921875 2.5078125 6.8359375 C1 9 1 9 -1 11 C-1.66 11 -2.32 11 -3 11 C-3.33 10.01 -3.66 9.02 -4 8 C-3.34 8 -2.68 8 -2 8 C-2.33 7.01 -2.66 6.02 -3 5 C-2.34 5 -1.68 5 -1 5 C-0.67 3.35 -0.34 1.7 0 0 Z " fill="#E2F4F5" transform="translate(588,57)"/>
<path d="M0 0 C0.375 2.25 0.375 2.25 0 5 C-2.75 7.0625 -2.75 7.0625 -6 9 C-7.35147138 10.31494512 -8.69112542 11.64264858 -10 13 C-10.33 13 -10.66 13 -11 13 C-11.30859375 10.76953125 -11.30859375 10.76953125 -11 8 C-8.84765625 5.76171875 -8.84765625 5.76171875 -6.0625 3.6875 C-5.14597656 2.99011719 -4.22945312 2.29273438 -3.28515625 1.57421875 C-1 0 -1 0 0 0 Z " fill="#83C7D2" transform="translate(602,291)"/>
<path d="M0 0 C0.66 0 1.32 0 2 0 C1.77069943 3.21020798 0.93806165 4.05574452 -1.5 6.25 C-5.74651337 8.37325669 -9.31637817 8.80558296 -14 8 C-14.66 7.34 -15.32 6.68 -16 6 C-15.33613281 5.89042969 -14.67226563 5.78085937 -13.98828125 5.66796875 C-6.33173997 4.33250473 -6.33173997 4.33250473 0 0 Z " fill="#9BB7BB" transform="translate(685,264)"/>
<path d="M0 0 C0 1.98 0 3.96 0 6 C-3.3 6 -6.6 6 -10 6 C-8 2 -8 2 -5.5625 0.75 C-3 0 -3 0 0 0 Z " fill="#9ED4DD" transform="translate(213,327)"/>
<path d="M0 0 C2 3.75 2 3.75 2 6 C0.68 5.67 -0.64 5.34 -2 5 C-1.88617347 6.95901454 -1.75858875 8.9172338 -1.625 10.875 C-1.55539062 11.96554687 -1.48578125 13.05609375 -1.4140625 14.1796875 C-1.26746509 17.13046474 -1.26746509 17.13046474 1 19 C-0.65 18.67 -2.3 18.34 -4 18 C-4.10864945 15.93867858 -4.18588321 13.87568679 -4.25 11.8125 C-4.29640625 10.66394531 -4.3428125 9.51539063 -4.390625 8.33203125 C-3.92924572 4.39646601 -2.70028512 2.82254213 0 0 Z " fill="#8BC9D2" transform="translate(623,250)"/>
<path d="M0 0 C0 1.65 0 3.3 0 5 C0.66 5.33 1.32 5.66 2 6 C-0.75924185 7.80411967 -1.88972103 8.0127245 -5.25 7.625 C-6.1575 7.41875 -7.065 7.2125 -8 7 C-7.8125 5.1875 -7.8125 5.1875 -7 3 C-2.82142857 0 -2.82142857 0 0 0 Z " fill="#B5E5EB" transform="translate(198,310)"/>
<path d="M0 0 C0.33 0 0.66 0 1 0 C1.66131596 5.2905277 0.04553852 8.15696618 -2.7109375 12.4609375 C-3.13632812 12.96882812 -3.56171875 13.47671875 -4 14 C-4.66 14 -5.32 14 -6 14 C-6 17.96 -6 21.92 -6 26 C-6.33 26 -6.66 26 -7 26 C-7.76955806 13.51605819 -7.76955806 13.51605819 -5.95703125 9.9453125 C-4.69474176 8.57567288 -3.348781 7.28455333 -2 6 C-0.67649342 2.78734084 -0.67649342 2.78734084 0 0 Z " fill="#94CCD3" transform="translate(657,242)"/>
<path d="M0 0 C2.97 0 5.94 0 9 0 C6.48592381 4.28324091 4.87685861 6.64531705 0 8 C0 5.36 0 2.72 0 0 Z " fill="#83C6D3" transform="translate(589,281)"/>
<path d="M0 0 C0.66 0.33 1.32 0.66 2 1 C2 3.64 2 6.28 2 9 C-1 10 -1 10 -4 9 C-4 7.35 -4 5.7 -4 4 C-2.68 3.34 -1.36 2.68 0 2 C0 1.34 0 0.68 0 0 Z " fill="#83B84B" transform="translate(599,65)"/>
<path d="M0 0 C0 0.66 0 1.32 0 2 C-0.99 2.66 -1.98 3.32 -3 4 C-4.00168531 5.94832935 -4.00168531 5.94832935 -4.6875 8.125 C-4.93886719 8.84945312 -5.19023438 9.57390625 -5.44921875 10.3203125 C-5.63097656 10.87460938 -5.81273437 11.42890625 -6 12 C-6.99 12 -7.98 12 -9 12 C-9.2211585 8.75634205 -9.35022703 6.63040865 -7.75 3.75 C-5.40136747 1.40136747 -3.37486616 0 0 0 Z " fill="#9DBE68" transform="translate(598,58)"/>
<path d="M0 0 C2.97 0 5.94 0 9 0 C8.01 0.495 8.01 0.495 7 1 C6.27840576 2.64363134 5.60648579 4.31050386 5 6 C4.01 6 3.02 6 2 6 C2 6.66 2 7.32 2 8 C1.34 8 0.68 8 0 8 C0 5.36 0 2.72 0 0 Z " fill="#80C7D2" transform="translate(669,282)"/>
<path d="M0 0 C2.31 0 4.62 0 7 0 C7 1.65 7 3.3 7 5 C7.66 5 8.32 5 9 5 C9 6.65 9 8.3 9 10 C8.01 10.33 7.02 10.66 6 11 C6.33 12.98 6.66 14.96 7 17 C6.34 17 5.68 17 5 17 C4.875 10.375 4.875 10.375 6 7 C4.17805188 4.42414232 2.22875556 2.22875556 0 0 Z " fill="#B0E0D6" transform="translate(141,210)"/>
<path d="M0 0 C0 3.63 0 7.26 0 11 C-2.7839183 9.60804085 -2.97898997 7.84424221 -4 5 C-6.64 5.33 -9.28 5.66 -12 6 C-3 0 -3 0 0 0 Z " fill="#91D0DB" transform="translate(200,297)"/>
<path d="M0 0 C1.32 0 2.64 0 4 0 C4 0.66 4 1.32 4 2 C5.32 2.33 6.64 2.66 8 3 C7.34 3 6.68 3 6 3 C5.67 5.31 5.34 7.62 5 10 C3.35 10.33 1.7 10.66 0 11 C0.99 7.7 1.98 4.4 3 1 C2.01 0.67 1.02 0.34 0 0 Z " fill="#E0DCAE" transform="translate(605,56)"/>
<path d="M0 0 C2.37590142 3.70416126 2.20500286 6.92984573 2.125 11.25 C2.10695313 12.51328125 2.08890625 13.7765625 2.0703125 15.078125 C2.03550781 16.52445312 2.03550781 16.52445312 2 18 C1.690625 17.360625 1.38125 16.72125 1.0625 16.0625 C0.1654837 14.06389179 0.1654837 14.06389179 -1 13 C-1.09873816 11.00200428 -1.12971799 9.00042842 -1.125 7 C-1.12757813 5.906875 -1.13015625 4.81375 -1.1328125 3.6875 C-1 1 -1 1 0 0 Z " fill="#CEEEF2" transform="translate(613,295)"/>
<path d="M0 0 C0.33 0 0.66 0 1 0 C1 3.3 1 6.6 1 10 C5.07964281 8.69844994 5.07964281 8.69844994 9 7 C9.33 8.32 9.66 9.64 10 11 C7.03 11 4.06 11 1 11 C1 11.66 1 12.32 1 13 C-0.98 13 -2.96 13 -5 13 C-5.33 12.34 -5.66 11.68 -6 11 C-4.02 11 -2.04 11 0 11 C0 7.37 0 3.74 0 0 Z " fill="#A1DFE8" transform="translate(166,298)"/>
<path d="M0 0 C0.54140625 0.48082031 1.0828125 0.96164063 1.640625 1.45703125 C4.47897288 3.31323558 6.38792626 3.48737656 9.75 3.6875 C11.22726562 3.78611328 11.22726562 3.78611328 12.734375 3.88671875 C13.85585938 3.94279297 13.85585938 3.94279297 15 4 C14.67 5.65 14.34 7.3 14 9 C13.2575 8.505 12.515 8.01 11.75 7.5 C8.93681812 5.68076525 8.93681812 5.68076525 5 6 C2.9697411 5.06295743 0.96303418 4.07074592 -1 3 C-0.67 2.01 -0.34 1.02 0 0 Z " fill="#E3EDE9" transform="translate(589,102)"/>
<path d="M0 0 C0.66 0 1.32 0 2 0 C2.66 1.98 3.32 3.96 4 6 C5.65 6 7.3 6 9 6 C7 8 7 8 5.0546875 8.1953125 C3.03645833 8.13020833 1.01822917 8.06510417 -1 8 C-1.33 6.35 -1.66 4.7 -2 3 C-1.67 3.99 -1.34 4.98 -1 6 C-0.34 6 0.32 6 1 6 C0.67 4.02 0.34 2.04 0 0 Z " fill="#D1D4B2" transform="translate(138,234)"/>
<path d="M0 0 C5.28 0 10.56 0 16 0 C16 1.98 16 3.96 16 6 C15.67 6 15.34 6 15 6 C15 4.35 15 2.7 15 1 C10.38 1 5.76 1 1 1 C1.33 2.98 1.66 4.96 2 7 C1.0625 9.875 1.0625 9.875 0 12 C-0.33 12 -0.66 12 -1 12 C-1.07329796 7.60212211 -1.07396066 4.29584263 0 0 Z " fill="#D8F1F6" transform="translate(614,226)"/>
<path d="M0 0 C2.475 0.99 2.475 0.99 5 2 C5 2.66 5 3.32 5 4 C5.99 4.33 6.98 4.66 8 5 C8 5.66 8 6.32 8 7 C5.36 7 2.72 7 0 7 C0 4.69 0 2.38 0 0 Z " fill="#73C3CF" transform="translate(158,301)"/>
<path d="M0 0 C2.31 0 4.62 0 7 0 C5.8141763 3.37503669 4.72426311 5.64722731 2 8 C2 7.34 2 6.68 2 6 C1.34 6 0.68 6 0 6 C0 4.02 0 2.04 0 0 Z " fill="#B5DFE8" transform="translate(151,228)"/>
<path d="M0 0 C2.3125 0.125 2.3125 0.125 5 1 C7.02201431 4.20733304 8 6.19154436 8 10 C6.68 10 5.36 10 4 10 C3.67 7.03 3.34 4.06 3 1 C2.01 0.67 1.02 0.34 0 0 Z " fill="#D8D59D" transform="translate(131,212)"/>
<path d="M0 0 C0.99 0.495 0.99 0.495 2 1 C2 2.65 2 4.3 2 6 C3.65 6.33 5.3 6.66 7 7 C7 10.3 7 13.6 7 17 C6.34 17 5.68 17 5 17 C5 17.66 5 18.32 5 19 C4.34 18.67 3.68 18.34 3 18 C3.33 17.34 3.66 16.68 4 16 C4.66 16 5.32 16 6 16 C5.34 13.03 4.68 10.06 4 7 C3.01 7 2.02 7 1 7 C0.67 4.69 0.34 2.38 0 0 Z " fill="#C4CAAF" transform="translate(144,221)"/>
<path d="M0 0 C3.25543229 0.34879632 4.01873107 1.02133261 6.25 3.5625 C6.8275 4.366875 7.405 5.17125 8 6 C7.34 7.65 6.68 9.3 6 11 C5.01 11 4.02 11 3 11 C2.67 9.68 2.34 8.36 2 7 C2.99 7.33 3.98 7.66 5 8 C3.38731308 5.28775382 1.75098126 2.62647188 0 0 Z " fill="#93B781" transform="translate(140,211)"/>
<path d="M0 0 C2.6875 0.6875 2.6875 0.6875 5 2 C5.33 2.66 5.66 3.32 6 4 C5.34 4 4.68 4 4 4 C4 4.66 4 5.32 4 6 C1.6568787 5.74438677 -0.67843403 5.40729228 -3 5 C-3.33 4.34 -3.66 3.68 -4 3 C-2.3125 1.375 -2.3125 1.375 0 0 Z " fill="#E2F2F4" transform="translate(600,78)"/>
<path d="M0 0 C1.24546405 2.49092811 0.7767578 3.41080733 0 6 C0.99 6 1.98 6 3 6 C2.67 8.64 2.34 11.28 2 14 C0.68 14 -0.64 14 -2 14 C-2 13.34 -2 12.68 -2 12 C-1.34 12 -0.68 12 0 12 C0 11.01 0 10.02 0 9 C-0.66 8.67 -1.32 8.34 -2 8 C-1.125 1.125 -1.125 1.125 0 0 Z " fill="#D7D198" transform="translate(606,60)"/>
<path d="M0 0 C0.99 0.33 1.98 0.66 3 1 C3 4.96 3 8.92 3 13 C2.67 13 2.34 13 2 13 C1.67 10.69 1.34 8.38 1 6 C0.34 7.65 -0.32 9.3 -1 11 C-2.60080151 6.99799622 -1.29279692 3.95443764 0 0 Z " fill="#8DBB61" transform="translate(611,59)"/>
<path d="M0 0 C0.99 0.33 1.98 0.66 3 1 C2.67 1.99 2.34 2.98 2 4 C2 3.34 2 2.68 2 2 C0.68 2 -0.64 2 -2 2 C-2.33 2.66 -2.66 3.32 -3 4 C-3 3.34 -3 2.68 -3 2 C-5.97 2.66 -8.94 3.32 -12 4 C-8.39830163 -0.8022645 -5.61949901 -0.44599198 0 0 Z " fill="#B3CE89" transform="translate(605,56)"/>
<path d="M0 0 C2.28062828 3.42094242 2.21925007 4.68187222 2.125 8.6875 C2.10695313 9.68136719 2.08890625 10.67523438 2.0703125 11.69921875 C2.03550781 12.83810547 2.03550781 12.83810547 2 14 C1.01 14 0.02 14 -1 14 C-1.02685938 11.85423363 -1.04633088 9.70837355 -1.0625 7.5625 C-1.07410156 6.36753906 -1.08570313 5.17257812 -1.09765625 3.94140625 C-1 1 -1 1 0 0 Z " fill="#C9EEF5" transform="translate(666,254)"/>
<path d="M0 0 C2.44839588 3.67259383 4 6.54648201 4 11 C2.68 11.33 1.36 11.66 0 12 C0 8.04 0 4.08 0 0 Z " fill="#83AF4E" transform="translate(132,214)"/>
<path d="M0 0 C0.66 0.33 1.32 0.66 2 1 C2 2.98 2 4.96 2 7 C1.01 7.495 1.01 7.495 0 8 C0 6.35 0 4.7 0 3 C-0.66 2.67 -1.32 2.34 -2 2 C-1.34 2 -0.68 2 0 2 C0 1.34 0 0.68 0 0 Z M-1 8 C1 10 1 10 1 13 C-0.32 13.33 -1.64 13.66 -3 14 C-3 12.35 -3 10.7 -3 9 C-2.34 8.67 -1.68 8.34 -1 8 Z " fill="#B6E0EA" transform="translate(150,212)"/>
<path d="M0 0 C0.99 -0.33 1.98 -0.66 3 -1 C3.33 1.31 3.66 3.62 4 6 C3.67 5.34 3.34 4.68 3 4 C1.11235097 3.31527335 1.11235097 3.31527335 -1.0625 2.875 C-1.79597656 2.70742188 -2.52945313 2.53984375 -3.28515625 2.3671875 C-3.85105469 2.24601562 -4.41695312 2.12484375 -5 2 C-5 1.34 -5 0.68 -5 0 C-6.32 -0.33 -7.64 -0.66 -9 -1 C-5.20731707 -2.26422764 -3.70731707 -1.23577236 0 0 Z " fill="#E4F0E4" transform="translate(614,56)"/>
<path d="M0 0 C1.32 0.33 2.64 0.66 4 1 C2.515 3.475 2.515 3.475 1 6 C-1.31 5.67 -3.62 5.34 -6 5 C-5.67 4.01 -5.34 3.02 -5 2 C-3.68 2 -2.36 2 -1 2 C-0.67 1.34 -0.34 0.68 0 0 Z " fill="#AADFE8" transform="translate(185,284)"/>
<path d="M0 0 C-1 3 -1 3 -3 4 C-4.54023996 4.06950541 -6.08334988 4.08452357 -7.625 4.0625 C-8.85089844 4.04896484 -8.85089844 4.04896484 -10.1015625 4.03515625 C-11.04128906 4.01775391 -11.04128906 4.01775391 -12 4 C-12.33 3.34 -12.66 2.68 -13 2 C-11.39658445 1.66307215 -9.79223445 1.33058907 -8.1875 1 C-7.29417969 0.814375 -6.40085937 0.62875 -5.48046875 0.4375 C-3 0 -3 0 0 0 Z " fill="#A0BBBD" transform="translate(589,268)"/>
<path d="M0 0 C-0.99 0.33 -1.98 0.66 -3 1 C-3 1.66 -3 2.32 -3 3 C-4.45792884 3.05399736 -5.91642712 3.09279177 -7.375 3.125 C-8.18710937 3.14820313 -8.99921875 3.17140625 -9.8359375 3.1953125 C-12 3 -12 3 -14 1 C-12.41913952 0.63495397 -10.83516093 0.28339494 -9.25 -0.0625 C-8.36828125 -0.25972656 -7.4865625 -0.45695312 -6.578125 -0.66015625 C-4.01320972 -0.99825872 -2.42908361 -0.81158635 0 0 Z " fill="#9CB6BA" transform="translate(652,269)"/>
<path d="M0 0 C0.66 0.33 1.32 0.66 2 1 C3.27368421 8.17894737 3.27368421 8.17894737 2 12 C1.01 12.33 0.02 12.66 -1 13 C-0.9278125 12.39671875 -0.855625 11.7934375 -0.78125 11.171875 C-0.6884375 10.37265625 -0.595625 9.5734375 -0.5 8.75 C-0.4071875 7.96109375 -0.314375 7.1721875 -0.21875 6.359375 C0.06154619 3.73109603 0.06154619 3.73109603 0 0 Z " fill="#E5DCC2" transform="translate(607,87)"/>
<path d="M0 0 C1.37494222 2.26461071 2.07991957 3.45654694 1.6875 6.125 C1 8 1 8 0 10 C-0.99 10 -1.98 10 -3 10 C-2.49287967 6.28111761 -1.88391785 3.26545761 0 0 Z " fill="#F3CD85" transform="translate(586,88)"/>
<path d="M0 0 C0.33 0 0.66 0 1 0 C1 3.3 1 6.6 1 10 C0.01 10.33 -0.98 10.66 -2 11 C-3.14947895 7.44706507 -3.0868937 6.20023331 -1.5625 2.6875 C-1.046875 1.800625 -0.53125 0.91375 0 0 Z " fill="#70BC46" transform="translate(612,64)"/>
<path d="M0 0 C4.75 0.875 4.75 0.875 7 2 C7 2.66 7 3.32 7 4 C0.25 5.125 0.25 5.125 -2 4 C-2 3.34 -2 2.68 -2 2 C-1.34 2 -0.68 2 0 2 C0 1.34 0 0.68 0 0 Z " fill="#A2C4CB" transform="translate(687,260)"/>
<path d="M0 0 C1.65 0 3.3 0 5 0 C5.33 1.32 5.66 2.64 6 4 C4.35 4.66 2.7 5.32 1 6 C0 5 0 5 -0.0625 2.4375 C-0.041875 1.633125 -0.02125 0.82875 0 0 Z " fill="#C0D9D1" transform="translate(137,224)"/>
<path d="M0 0 C1.32 0.66 2.64 1.32 4 2 C3.67 5.96 3.34 9.92 3 14 C1.68 14 0.36 14 -1 14 C-1 13.34 -1 12.68 -1 12 C-0.34 11.67 0.32 11.34 1 11 C1.46651207 8.87423218 1.46651207 8.87423218 1.625 6.4375 C1.69976563 5.61121094 1.77453125 4.78492187 1.8515625 3.93359375 C1.90054688 3.29550781 1.94953125 2.65742187 2 2 C1.34 2 0.68 2 0 2 C0 1.34 0 0.68 0 0 Z " fill="#EDEBD8" transform="translate(589,70)"/>
<path d="M0 0 C0.33 1.32 0.66 2.64 1 4 C1.99 4 2.98 4 4 4 C3.67 5.32 3.34 6.64 3 8 C3.99 8.33 4.98 8.66 6 9 C2.7 8.67 -0.6 8.34 -4 8 C-3.01 7.34 -2.02 6.68 -1 6 C-0.26656572 2.93443402 -0.26656572 2.93443402 0 0 Z " fill="#BABD88" transform="translate(613,72)"/>
<path d="M0 0 C-0.99 1.485 -0.99 1.485 -2 3 C-4.6015625 3.29296875 -4.6015625 3.29296875 -7.625 3.1875 C-9.12933594 3.14689453 -9.12933594 3.14689453 -10.6640625 3.10546875 C-11.82035156 3.05326172 -11.82035156 3.05326172 -13 3 C-12.67 2.34 -12.34 1.68 -12 1 C-9.78515625 0.33203125 -9.78515625 0.33203125 -7.0625 -0.1875 C-6.16660156 -0.36667969 -5.27070313 -0.54585938 -4.34765625 -0.73046875 C-2 -1 -2 -1 0 0 Z " fill="#B2DDE5" transform="translate(205,330)"/>
<path d="M0 0 C0.33 0 0.66 0 1 0 C1 3.3 1 6.6 1 10 C1.66 10 2.32 10 3 10 C2.625 12.9375 2.625 12.9375 2 16 C1.34 16.33 0.68 16.66 0 17 C0 11.39 0 5.78 0 0 Z " fill="#D9E6EB" transform="translate(687,286)"/>
<path d="M0 0 C1.65 0 3.3 0 5 0 C4.51917969 0.33644531 4.03835938 0.67289062 3.54296875 1.01953125 C1.24390033 3.97048742 1.43016048 7.08708942 1.3125 10.6875 C1.27833984 11.38939453 1.24417969 12.09128906 1.20898438 12.81445312 C1.12670053 14.54241387 1.0616676 16.27118072 1 18 C0.67 18 0.34 18 0 18 C0 12.06 0 6.12 0 0 Z " fill="#308389" transform="translate(615,279)"/>
<path d="M0 0 C-0.33 1.32 -0.66 2.64 -1 4 C-1.99 3.67 -2.98 3.34 -4 3 C-5.89212737 2.77820215 -7.78884472 2.59385985 -9.6875 2.4375 C-10.68136719 2.35371094 -11.67523437 2.26992187 -12.69921875 2.18359375 C-13.83810547 2.09271484 -13.83810547 2.09271484 -15 2 C-15 1.67 -15 1.34 -15 1 C-9.9752761 0.37470103 -5.07471573 -0.13012092 0 0 Z " fill="#E4F3F8" transform="translate(582,84)"/>
<path d="M0 0 C0.66 0.33 1.32 0.66 2 1 C2 2.98 2 4.96 2 7 C2.66 7.33 3.32 7.66 4 8 C2.68 9.65 1.36 11.3 0 13 C-1.36421031 10.27157939 -0.87807211 8.39046682 -0.5625 5.375 C-0.40974609 3.87066406 -0.40974609 3.87066406 -0.25390625 2.3359375 C-0.17011719 1.56507812 -0.08632813 0.79421875 0 0 Z " fill="#B2A67F" transform="translate(593,72)"/>
<path d="M0 0 C1.32 0 2.64 0 4 0 C3.67 1.65 3.34 3.3 3 5 C0.03 5.66 -2.94 6.32 -6 7 C-4.60804085 4.2160817 -2.84424221 4.02101003 0 3 C0 2.01 0 1.02 0 0 Z " fill="#E3F4EE" transform="translate(601,50)"/>
<path d="M0 0 C0.33 1.65 0.66 3.3 1 5 C0.34 5 -0.32 5 -1 5 C-1 7.31 -1 9.62 -1 12 C-1.33 12 -1.66 12 -2 12 C-2.1953125 10.01432292 -2.390625 8.02864583 -2.5859375 6.04296875 C-2.92665391 3.70011858 -2.92665391 3.70011858 -5 1 C-3 0 -3 0 0 0 Z " fill="#B5C6AD" transform="translate(137,225)"/>
<path d="M0 0 C0.66 0.33 1.32 0.66 2 1 C2 3 2 5 2 7 C0.02 7.99 -1.96 8.98 -4 10 C-2.99806563 6.20696275 -2.18975773 3.28463659 0 0 Z " fill="#D0E6EC" transform="translate(48,89)"/>
<path d="M0 0 C2.0625 1.3125 2.0625 1.3125 4 4 C4.05898893 7.72702755 3.58315738 11.32357303 3 15 C2.34 15 1.68 15 1 15 C1.01740234 14.00419922 1.01740234 14.00419922 1.03515625 12.98828125 C1.11893409 6.43693213 1.11893409 6.43693213 0 0 Z " fill="#9DC17A" transform="translate(616,61)"/>
<path d="M0 0 C1.32 0 2.64 0 4 0 C2.375 5.75 2.375 5.75 -1 8 C-1.93065133 5.39417629 -2.14917407 4.35801776 -1.0625 1.75 C-0.711875 1.1725 -0.36125 0.595 0 0 Z " fill="#89BD4B" transform="translate(603,58)"/>
<path d="M0 0 C0.99 0.33 1.98 0.66 3 1 C3 1.66 3 2.32 3 3 C3.99 3.33 4.98 3.66 6 4 C6 4.33 6 4.66 6 5 C0.25 5.125 0.25 5.125 -2 4 C-2 3.01 -2 2.02 -2 1 C-1.34 0.67 -0.68 0.34 0 0 Z " fill="#ECF9F9" transform="translate(637,264)"/>
<path d="M0 0 C2 1 2 1 2.73828125 2.92578125 C2.92777344 3.71339844 3.11726562 4.50101562 3.3125 5.3125 C3.51488281 6.09238281 3.71726562 6.87226562 3.92578125 7.67578125 C4 10 4 10 1 14 C0.67 9.38 0.34 4.76 0 0 Z " fill="#DCF5E1" transform="translate(620,66)"/>
<path d="M0 0 C3.73044765 1.24348255 4.79540326 2.80713575 7 6 C7 6.99 7 7.98 7 9 C6.01 8.67 5.02 8.34 4 8 C3.66666667 6.66666667 3.33333333 5.33333333 3 4 C2.01 3.67 1.02 3.34 0 3 C0 2.01 0 1.02 0 0 Z " fill="#CEDFA3" transform="translate(138,210)"/>
<path d="M0 0 C1.32 0.33 2.64 0.66 4 1 C-0.75 6.75 -0.75 6.75 -3 9 C-2.67 6.69 -2.34 4.38 -2 2 C-1.34 2 -0.68 2 0 2 C0 1.34 0 0.68 0 0 Z " fill="#DCF6E2" transform="translate(591,57)"/>
<path d="M0 0 C0 1.98 0 3.96 0 6 C-2.97 5.505 -2.97 5.505 -6 5 C-6 4.34 -6 3.68 -6 3 C-1.5 0 -1.5 0 0 0 Z " fill="#81C8D1" transform="translate(679,305)"/>
<path d="M0 0 C0.33 0 0.66 0 1 0 C1.12375 0.94875 1.2475 1.8975 1.375 2.875 C1.71687177 6.08667191 1.71687177 6.08667191 4 8 C3.34 10.31 2.68 12.62 2 15 C1.67 15 1.34 15 1 15 C-0.32286246 10.03926578 -0.08893197 5.08888488 0 0 Z " fill="#5DA3AF" transform="translate(615,298)"/>
<path d="M0 0 C-1.0625 1.5 -1.0625 1.5 -3 3 C-6.6875 3.1875 -6.6875 3.1875 -10 3 C-9 1 -9 1 -6.125 -0.1875 C-3 -1 -3 -1 0 0 Z " fill="#8DB2BB" transform="translate(667,269)"/>
<path d="M0 0 C0.99773438 0.02320313 1.99546875 0.04640625 3.0234375 0.0703125 C4.52777344 0.09738281 4.52777344 0.09738281 6.0625 0.125 C6.83335937 0.14820313 7.60421875 0.17140625 8.3984375 0.1953125 C3.57481798 2.69028811 0.79066913 3.27375883 -4.6015625 2.1953125 C-2.6015625 0.1953125 -2.6015625 0.1953125 0 0 Z " fill="#93C3CA" transform="translate(653.6015625,268.8046875)"/>
<path d="M0 0 C-0.75 2.4375 -0.75 2.4375 -2 5 C-4.125 5.8125 -4.125 5.8125 -6 6 C-6 4.68 -6 3.36 -6 2 C-2.25 0 -2.25 0 0 0 Z " fill="#DACC91" transform="translate(602,58)"/>
<path d="M0 0 C2.82328089 2.82328089 2.79396942 5.08541907 3 9 C2.01 9.99 1.02 10.98 0 12 C0 8.04 0 4.08 0 0 Z " fill="#78C4D1" transform="translate(167,310)"/>
<path d="M0 0 C0.5625 1.9375 0.5625 1.9375 1 4 C0.67 4.33 0.34 4.66 0 5 C-0.23363881 6.84891946 -0.41303635 8.70488031 -0.5625 10.5625 C-0.64628906 11.57441406 -0.73007812 12.58632813 -0.81640625 13.62890625 C-0.87699219 14.41136719 -0.93757812 15.19382812 -1 16 C-1.33 16 -1.66 16 -2 16 C-2.05402274 13.89611431 -2.09280256 11.79183286 -2.125 9.6875 C-2.14820313 8.51574219 -2.17140625 7.34398437 -2.1953125 6.13671875 C-2 3 -2 3 0 0 Z " fill="#92CDD2" transform="translate(590,252)"/>
<path d="M0 0 C0.66 0.33 1.32 0.66 2 1 C-1.56741255 3.48889248 -4.89041233 5.54955729 -9 7 C-9.33 6.34 -9.66 5.68 -10 5 C-8.38007835 4.13624104 -6.75388139 3.28424146 -5.125 2.4375 C-4.22007812 1.96183594 -3.31515625 1.48617187 -2.3828125 0.99609375 C-1.20332031 0.50302734 -1.20332031 0.50302734 0 0 Z " fill="#ECF4F5" transform="translate(440,42)"/>
<path d="M0 0 C6.64615385 1.47692308 6.64615385 1.47692308 8.4375 4.125 C8.7159375 5.053125 8.7159375 5.053125 9 6 C4.75177626 5.52797514 2.80010291 3.03344482 0 0 Z " fill="#D8A354" transform="translate(598,85)"/>
<path d="M0 0 C0.33 0 0.66 0 1 0 C1.06058594 0.67546875 1.12117187 1.3509375 1.18359375 2.046875 C1.26738281 2.93890625 1.35117187 3.8309375 1.4375 4.75 C1.51871094 5.63171875 1.59992187 6.5134375 1.68359375 7.421875 C1.96238465 9.69350452 2.38790577 11.79851823 3 14 C2.01 14 1.02 14 0 14 C0 9.38 0 4.76 0 0 Z " fill="#DAD79B" transform="translate(614,62)"/>
<path d="M0 0 C0.66 0 1.32 0 2 0 C2 2.31 2 4.62 2 7 C1.01 7 0.02 7 -1 7 C-1.04254356 5.00045254 -1.04080783 2.99958364 -1 1 C-0.67 0.67 -0.34 0.34 0 0 Z " fill="#618854" transform="translate(590,63)"/>
<path d="M0 0 C3.3 0 6.6 0 10 0 C10 0.99 10 1.98 10 3 C9.46375 2.835 8.9275 2.67 8.375 2.5 C5.54113991 1.90339788 2.8880194 1.9343632 0 2 C0 1.34 0 0.68 0 0 Z " fill="#3D9196" transform="translate(624,278)"/>
<path d="M0 0 C0.99 0 1.98 0 3 0 C3.33 2.31 3.66 4.62 4 7 C3.01 7 2.02 7 1 7 C0.67 4.69 0.34 2.38 0 0 Z " fill="#73AE54" transform="translate(139,216)"/>
<path d="M0 0 C1.32 0.66 2.64 1.32 4 2 C3.67 3.32 3.34 4.64 3 6 C1.68 5.67 0.36 5.34 -1 5 C-0.67 3.35 -0.34 1.7 0 0 Z " fill="#E8C99E" transform="translate(603,67)"/>
<path d="M0 0 C0.66 0 1.32 0 2 0 C2.99 2.31 3.98 4.62 5 7 C3.68 6.67 2.36 6.34 1 6 C0.67 4.02 0.34 2.04 0 0 Z " fill="#FCE8A1" transform="translate(138,234)"/>
<path d="M0 0 C0.66 0 1.32 0 2 0 C2 2.64 2 5.28 2 8 C1.34 8 0.68 8 0 8 C-0.38063221 5.6739143 -0.71269945 3.33944736 -1 1 C-0.67 0.67 -0.34 0.34 0 0 Z " fill="#C1D39B" transform="translate(129,213)"/>
<path d="M0 0 C0.66 0 1.32 0 2 0 C1.25 4.75 1.25 4.75 -1 7 C-1.625 4.625 -1.625 4.625 -2 2 C-1.34 1.34 -0.68 0.68 0 0 Z " fill="#F9C467" transform="translate(592,97)"/>
<path d="M0 0 C0.99 0.33 1.98 0.66 3 1 C0.69 3.31 -1.62 5.62 -4 8 C-4 4.09161134 -2.49432124 2.88405893 0 0 Z " fill="#D4E8EB" transform="translate(55,80)"/>
<path d="M0 0 C0.99 0.33 1.98 0.66 3 1 C3 2.65 3 4.3 3 6 C2.34 6 1.68 6 1 6 C0.67 6.66 0.34 7.32 0 8 C0 5.36 0 2.72 0 0 Z " fill="#E7ECDA" transform="translate(594,73)"/>
<path d="M0 0 C2.475 0.99 2.475 0.99 5 2 C5 2.99 5 3.98 5 5 C3.35 4.67 1.7 4.34 0 4 C0 2.68 0 1.36 0 0 Z " fill="#50883E" transform="translate(595,70)"/>
<path d="M0 0 C1.74627478 2.61941217 2.38722388 4.03824877 3 7 C1.68 7 0.36 7 -1 7 C-0.67 4.69 -0.34 2.38 0 0 Z " fill="#71C2D0" transform="translate(172,326)"/>
<path d="M0 0 C2.64 0.33 5.28 0.66 8 1 C6.75 2.5625 6.75 2.5625 5 4 C2.875 3.875 2.875 3.875 1 3 C0.67 2.01 0.34 1.02 0 0 Z " fill="#B5DEE5" transform="translate(670,271)"/>
<path d="M0 0 C0.66 0 1.32 0 2 0 C2.66 2.31 3.32 4.62 4 7 C3.01 7 2.02 7 1 7 C0.67 4.69 0.34 2.38 0 0 Z " fill="#F4C265" transform="translate(141,233)"/>
<path d="M0 0 C1.32 0 2.64 0 4 0 C4.33 1.32 4.66 2.64 5 4 C4.01 4.33 3.02 4.66 2 5 C1.34 4.34 0.68 3.68 0 3 C0.33 2.67 0.66 2.34 1 2 C0.67 1.34 0.34 0.68 0 0 Z " fill="#B2E0E4" transform="translate(128,227)"/>
<path d="M0 0 C3.24208567 0.35049575 4.61527704 0.56221181 6.8125 3.0625 C7.204375 3.701875 7.59625 4.34125 8 5 C7.01 5.33 6.02 5.66 5 6 C3.35 4.02 1.7 2.04 0 0 Z " fill="#E1A238" transform="translate(592,86)"/>
<path d="M0 0 C1.65 0.33 3.3 0.66 5 1 C3.68 2.65 2.36 4.3 1 6 C0.34 5.67 -0.32 5.34 -1 5 C-0.67 3.35 -0.34 1.7 0 0 Z " fill="#D9DDBF" transform="translate(608,79)"/>
<path d="M0 0 C1.65 0 3.3 0 5 0 C5 0.99 5 1.98 5 3 C3.02 3 1.04 3 -1 3 C-0.67 2.01 -0.34 1.02 0 0 Z " fill="#5A9E4F" transform="translate(607,76)"/>
</svg>
