<svg xmlns="http://www.w3.org/2000/svg"  viewBox="0 0 66 66" width="66px" height="66px"><path fill="#434a54" d="M29.7,48.54h6.61c1.36,0,2.46-1.1,2.46-2.46c0-1.36-1.1-2.46-2.46-2.46H29.7c-1.36,0-2.46,1.1-2.46,2.46 C27.24,47.44,28.34,48.54,29.7,48.54z M29.7,45.44h6.61c0.35,0,0.64,0.29,0.64,0.64c0,0.35-0.29,0.64-0.64,0.64H29.7 c-0.35,0-0.64-0.29-0.64-0.64C29.06,45.73,29.34,45.44,29.7,45.44z"/><path fill="#434a54" d="M19.96,15.95c-5.9,0-10.7,4.8-10.7,10.7s4.8,10.7,10.7,10.7s10.7-4.8,10.7-10.7S25.86,15.95,19.96,15.95z M19.96,35.53c-4.9,0-8.88-3.98-8.88-8.88c0-4.9,3.98-8.88,8.88-8.88c4.9,0,8.88,3.98,8.88,8.88 C28.84,31.54,24.86,35.53,19.96,35.53z"/><path fill="#434a54" d="M19.96,23.39c0.65,0,1.17,0.53,1.17,1.17c0,0.5,0.41,0.91,0.91,0.91c0.5,0,0.91-0.41,0.91-0.91 c0-1.33-0.88-2.45-2.08-2.84v-0.28c0-0.5-0.41-0.91-0.91-0.91c-0.5,0-0.91,0.41-0.91,0.91v0.28c-1.2,0.39-2.08,1.51-2.08,2.84 c0,1.65,1.34,2.99,3,2.99c0.65,0,1.17,0.53,1.17,1.17c0,0.65-0.53,1.17-1.17,1.17c-0.65,0-1.17-0.52-1.17-1.17 c0-0.5-0.41-0.91-0.91-0.91c-0.5,0-0.91,0.41-0.91,0.91c0,1.33,0.88,2.45,2.08,2.84v0.28c0,0.5,0.41,0.91,0.91,0.91 c0.5,0,0.91-0.41,0.91-0.91v-0.28c1.2-0.39,2.08-1.5,2.08-2.84c0-1.65-1.34-3-3-3c-0.65,0-1.17-0.52-1.17-1.17 C18.79,23.92,19.31,23.39,19.96,23.39z"/><path fill="#434a54" d="M42.52,15.38H56.9c1.13,0,2.04-0.92,2.04-2.04V9.2c0-1.13-0.92-2.04-2.04-2.04H42.52 c-1.13,0-2.04,0.92-2.04,2.04v4.14C40.48,14.47,41.4,15.38,42.52,15.38z M42.3,9.2c0-0.12,0.1-0.22,0.22-0.22H56.9 c0.12,0,0.22,0.1,0.22,0.22v4.14c0,0.12-0.1,0.22-0.22,0.22H42.52c-0.12,0-0.22-0.1-0.22-0.22V9.2z"/><path fill="#434a54" d="M46.21,17.34h-3c-1.23,0-2.23,1-2.23,2.23v2.85c0,1.23,1,2.23,2.23,2.23h3c1.23,0,2.23-1,2.23-2.23v-2.85 C48.44,18.34,47.44,17.34,46.21,17.34z M46.62,22.42c0,0.23-0.18,0.41-0.41,0.41h-3c-0.23,0-0.41-0.18-0.41-0.41v-2.85 c0-0.23,0.18-0.41,0.41-0.41h3c0.23,0,0.41,0.18,0.41,0.41V22.42z"/><path fill="#434a54" d="M56.22,17.34h-3c-1.23,0-2.23,1-2.23,2.23v2.85c0,1.23,1,2.23,2.23,2.23h3c1.23,0,2.23-1,2.23-2.23v-2.85 C58.45,18.34,57.45,17.34,56.22,17.34z M56.63,22.42c0,0.23-0.18,0.41-0.41,0.41h-3c-0.23,0-0.41-0.18-0.41-0.41v-2.85 c0-0.23,0.18-0.41,0.41-0.41h3c0.23,0,0.41,0.18,0.41,0.41V22.42z"/><path fill="#434a54" d="M46.21,26.61h-3c-1.23,0-2.23,1-2.23,2.23v2.85c0,1.23,1,2.23,2.23,2.23h3c1.23,0,2.23-1,2.23-2.23v-2.85 C48.44,27.61,47.44,26.61,46.21,26.61z M46.62,31.69c0,0.23-0.18,0.41-0.41,0.41h-3c-0.23,0-0.41-0.18-0.41-0.41v-2.85 c0-0.23,0.18-0.41,0.41-0.41h3c0.23,0,0.41,0.18,0.41,0.41V31.69z"/><path fill="#434a54" d="M56.22,26.61h-3c-1.23,0-2.23,1-2.23,2.23v2.85c0,1.23,1,2.23,2.23,2.23h3c1.23,0,2.23-1,2.23-2.23v-2.85 C58.45,27.61,57.45,26.61,56.22,26.61z M56.63,31.69c0,0.23-0.18,0.41-0.41,0.41h-3c-0.23,0-0.41-0.18-0.41-0.41v-2.85 c0-0.23,0.18-0.41,0.41-0.41h3c0.23,0,0.41,0.18,0.41,0.41V31.69z"/><path fill="#434a54" d="M63.07,42.24l0-26.39v0V7.77c0-2.66-2.17-4.83-4.83-4.83H40.38c-2.66,0-4.83,2.17-4.83,4.83v1.11H9.93 c-3.86,0-7,3.14-7,7v26.36c0,0,0,0,0,0c0,0,0,0,0,0v2.5c0,3.86,3.14,7,7,7H25.5l-2.89,4.11H20.2c-1.99,0-3.6,1.62-3.6,3.6 s1.62,3.6,3.6,3.6H45.8c1.99,0,3.6-1.62,3.6-3.6s-1.62-3.6-3.6-3.6h-2.41l-2.89-4.11h15.56c3.86,0,7-3.14,7-7V42.24 C63.07,42.24,63.07,42.24,63.07,42.24C63.07,42.24,63.07,42.24,63.07,42.24z M37.38,7.77c0-1.66,1.35-3.01,3.01-3.01h17.86 c1.66,0,3.01,1.35,3.01,3.01v8.08v17.67c0,1.66-1.35,3.01-3.01,3.01H40.38c-1.66,0-3.01-1.35-3.01-3.01V9.79V7.77z M4.76,15.88 c0-2.85,2.32-5.17,5.18-5.17h25.62v22.82c0,2.66,2.17,4.83,4.83,4.83h17.86c0.31,0,0.61-0.04,0.91-0.09 c0.1-0.02,0.19-0.05,0.28-0.07c0.2-0.05,0.39-0.11,0.57-0.18c0.1-0.04,0.2-0.09,0.3-0.14c0.17-0.08,0.33-0.17,0.48-0.26 c0.1-0.06,0.19-0.12,0.28-0.19c0.06-0.04,0.13-0.08,0.18-0.12v4.03H4.76V15.88z M47.58,59.45c0,0.98-0.8,1.78-1.78,1.78H20.2 c-0.98,0-1.78-0.8-1.78-1.78c0-0.98,0.8-1.78,1.78-1.78h2.89h19.83h2.88C46.78,57.67,47.58,58.47,47.58,59.45z M41.16,55.85H24.84 l2.89-4.11h10.55L41.16,55.85z M61.24,44.74c0,2.86-2.32,5.18-5.18,5.18h-17.3c-0.01,0-0.01,0-0.01,0h-11.5c-0.01,0-0.01,0-0.01,0 H9.94c-2.86,0-5.18-2.32-5.18-5.18v-1.59h56.49V44.74z"/></svg>