<svg xmlns="http://www.w3.org/2000/svg" xmlns:xlink="http://www.w3.org/1999/xlink" viewBox="0,0,256,256" width="66px" height="66px" fill-rule="nonzero"><g fill="#82fd6e" fill-rule="nonzero" stroke="none" stroke-width="1" stroke-linecap="butt" stroke-linejoin="miter" stroke-miterlimit="10" stroke-dasharray="" stroke-dashoffset="0" font-family="none" font-weight="none" font-size="none" text-anchor="none" style="mix-blend-mode: normal"><g transform="scale(3.87879,3.87879)"><path d="M29.7,48.54h6.61c1.36,0 2.46,-1.1 2.46,-2.46c0,-1.36 -1.1,-2.46 -2.46,-2.46h-6.61c-1.36,0 -2.46,1.1 -2.46,2.46c0,1.36 1.1,2.46 2.46,2.46zM29.7,45.44h6.61c0.35,0 0.64,0.29 0.64,0.64c0,0.35 -0.29,0.64 -0.64,0.64h-6.61c-0.35,0 -0.64,-0.29 -0.64,-0.64c0,-0.35 0.28,-0.64 0.64,-0.64z"></path><path d="M19.96,15.95c-5.9,0 -10.7,4.8 -10.7,10.7c0,5.9 4.8,10.7 10.7,10.7c5.9,0 10.7,-4.8 10.7,-10.7c0,-5.9 -4.8,-10.7 -10.7,-10.7zM19.96,35.53c-4.9,0 -8.88,-3.98 -8.88,-8.88c0,-4.9 3.98,-8.88 8.88,-8.88c4.9,0 8.88,3.98 8.88,8.88c0,4.89 -3.98,8.88 -8.88,8.88z"></path><path d="M19.96,23.39c0.65,0 1.17,0.53 1.17,1.17c0,0.5 0.41,0.91 0.91,0.91c0.5,0 0.91,-0.41 0.91,-0.91c0,-1.33 -0.88,-2.45 -2.08,-2.84v-0.28c0,-0.5 -0.41,-0.91 -0.91,-0.91c-0.5,0 -0.91,0.41 -0.91,0.91v0.28c-1.2,0.39 -2.08,1.51 -2.08,2.84c0,1.65 1.34,2.99 3,2.99c0.65,0 1.17,0.53 1.17,1.17c0,0.65 -0.53,1.17 -1.17,1.17c-0.65,0 -1.17,-0.52 -1.17,-1.17c0,-0.5 -0.41,-0.91 -0.91,-0.91c-0.5,0 -0.91,0.41 -0.91,0.91c0,1.33 0.88,2.45 2.08,2.84v0.28c0,0.5 0.41,0.91 0.91,0.91c0.5,0 0.91,-0.41 0.91,-0.91v-0.28c1.2,-0.39 2.08,-1.5 2.08,-2.84c0,-1.65 -1.34,-3 -3,-3c-0.65,0 -1.17,-0.52 -1.17,-1.17c0,-0.63 0.52,-1.16 1.17,-1.16z"></path><path d="M42.52,15.38h14.38c1.13,0 2.04,-0.92 2.04,-2.04v-4.14c0,-1.13 -0.92,-2.04 -2.04,-2.04h-14.38c-1.13,0 -2.04,0.92 -2.04,2.04v4.14c0,1.13 0.92,2.04 2.04,2.04zM42.3,9.2c0,-0.12 0.1,-0.22 0.22,-0.22h14.38c0.12,0 0.22,0.1 0.22,0.22v4.14c0,0.12 -0.1,0.22 -0.22,0.22h-14.38c-0.12,0 -0.22,-0.1 -0.22,-0.22z"></path><path d="M46.21,17.34h-3c-1.23,0 -2.23,1 -2.23,2.23v2.85c0,1.23 1,2.23 2.23,2.23h3c1.23,0 2.23,-1 2.23,-2.23v-2.85c0,-1.23 -1,-2.23 -2.23,-2.23zM46.62,22.42c0,0.23 -0.18,0.41 -0.41,0.41h-3c-0.23,0 -0.41,-0.18 -0.41,-0.41v-2.85c0,-0.23 0.18,-0.41 0.41,-0.41h3c0.23,0 0.41,0.18 0.41,0.41z"></path><path d="M56.22,17.34h-3c-1.23,0 -2.23,1 -2.23,2.23v2.85c0,1.23 1,2.23 2.23,2.23h3c1.23,0 2.23,-1 2.23,-2.23v-2.85c0,-1.23 -1,-2.23 -2.23,-2.23zM56.63,22.42c0,0.23 -0.18,0.41 -0.41,0.41h-3c-0.23,0 -0.41,-0.18 -0.41,-0.41v-2.85c0,-0.23 0.18,-0.41 0.41,-0.41h3c0.23,0 0.41,0.18 0.41,0.41z"></path><path d="M46.21,26.61h-3c-1.23,0 -2.23,1 -2.23,2.23v2.85c0,1.23 1,2.23 2.23,2.23h3c1.23,0 2.23,-1 2.23,-2.23v-2.85c0,-1.23 -1,-2.23 -2.23,-2.23zM46.62,31.69c0,0.23 -0.18,0.41 -0.41,0.41h-3c-0.23,0 -0.41,-0.18 -0.41,-0.41v-2.85c0,-0.23 0.18,-0.41 0.41,-0.41h3c0.23,0 0.41,0.18 0.41,0.41z"></path><path d="M56.22,26.61h-3c-1.23,0 -2.23,1 -2.23,2.23v2.85c0,1.23 1,2.23 2.23,2.23h3c1.23,0 2.23,-1 2.23,-2.23v-2.85c0,-1.23 -1,-2.23 -2.23,-2.23zM56.63,31.69c0,0.23 -0.18,0.41 -0.41,0.41h-3c-0.23,0 -0.41,-0.18 -0.41,-0.41v-2.85c0,-0.23 0.18,-0.41 0.41,-0.41h3c0.23,0 0.41,0.18 0.41,0.41z"></path><path d="M63.07,42.24v-26.39v0v-8.08c0,-2.66 -2.17,-4.83 -4.83,-4.83h-17.86c-2.66,0 -4.83,2.17 -4.83,4.83v1.11h-25.62c-3.86,0 -7,3.14 -7,7v26.36v0v0v2.5c0,3.86 3.14,7 7,7h15.57l-2.89,4.11h-2.41c-1.99,0 -3.6,1.62 -3.6,3.6c0,1.98 1.62,3.6 3.6,3.6h25.6c1.99,0 3.6,-1.62 3.6,-3.6c0,-1.98 -1.62,-3.6 -3.6,-3.6h-2.41l-2.89,-4.11h15.56c3.86,0 7,-3.14 7,-7v-2.5c0.01,0 0.01,0 0.01,0zM37.38,7.77c0,-1.66 1.35,-3.01 3.01,-3.01h17.86c1.66,0 3.01,1.35 3.01,3.01v8.08v17.67c0,1.66 -1.35,3.01 -3.01,3.01h-17.87c-1.66,0 -3.01,-1.35 -3.01,-3.01v-23.73v-2.02zM4.76,15.88c0,-2.85 2.32,-5.17 5.18,-5.17h25.62v22.82c0,2.66 2.17,4.83 4.83,4.83h17.86c0.31,0 0.61,-0.04 0.91,-0.09c0.1,-0.02 0.19,-0.05 0.28,-0.07c0.2,-0.05 0.39,-0.11 0.57,-0.18c0.1,-0.04 0.2,-0.09 0.3,-0.14c0.17,-0.08 0.33,-0.17 0.48,-0.26c0.1,-0.06 0.19,-0.12 0.28,-0.19c0.06,-0.04 0.13,-0.08 0.18,-0.12v4.03h-56.49zM47.58,59.45c0,0.98 -0.8,1.78 -1.78,1.78h-25.6c-0.98,0 -1.78,-0.8 -1.78,-1.78c0,-0.98 0.8,-1.78 1.78,-1.78h2.89h19.83h2.88c0.98,0 1.78,0.8 1.78,1.78zM41.16,55.85h-16.32l2.89,-4.11h10.55zM61.24,44.74c0,2.86 -2.32,5.18 -5.18,5.18h-17.3c-0.01,0 -0.01,0 -0.01,0h-11.5c-0.01,0 -0.01,0 -0.01,0h-17.3c-2.86,0 -5.18,-2.32 -5.18,-5.18v-1.59h56.49v1.59z"></path></g></g></svg>