<svg xmlns="http://www.w3.org/2000/svg" xmlns:xlink="http://www.w3.org/1999/xlink" viewBox="0,0,256,256" width="128px" height="128px" fill-rule="nonzero"><g fill="#82fd6e" fill-rule="nonzero" stroke="none" stroke-width="1" stroke-linecap="butt" stroke-linejoin="miter" stroke-miterlimit="10" stroke-dasharray="" stroke-dashoffset="0" font-family="none" font-weight="none" font-size="none" text-anchor="none" style="mix-blend-mode: normal"><g transform="scale(2,2)"><path d="M96.30078,5.90039c-8.8,0 -16,7.2 -16,16v3.40039c0,1.7 1.3,3 3,3c8.8,-0.1 16,-7.20156 16,-16.10156v-3.29883c0,-1.7 -1.3,-3 -3,-3zM93.30078,12.40039c0,4.4 -3,8.10039 -7,9.40039c0,-4.4 3,-8.20039 7,-9.40039zM65.09961,17.19922c-1.08759,0.0001 -2.13058,0.43233 -2.89944,1.20155c-0.76886,0.76923 -1.20059,1.81242 -1.20017,2.90001c0.00022,2.26406 1.83555,4.09939 4.09961,4.09961c2.26406,-0.00022 4.09939,-1.83555 4.09961,-4.09961c0.00041,-1.08759 -0.43131,-2.13078 -1.20017,-2.90001c-0.76886,-0.76923 -1.81185,-1.20145 -2.89944,-1.20155zM34.19922,22.09961c-1.7,0 -3,1.3 -3,3v5.90039c0,14.2 11.50117,25.69922 25.70117,25.69922c1.7,0 3,-1.3 3,-3v-5.89844c0,-14.2 -11.50117,-25.70117 -25.70117,-25.70117zM37.19922,28.30078c9.5,1.4 16.70117,22.19922 16.70117,22.19922c-9.4,-1.5 -16.70117,-9.7 -16.70117,-19.5zM77.26172,28.4375c-0.7625,-0.0125 -1.5125,0.26328 -2.0625,0.86328c-5.8,5.8 -9,13.59844 -9,21.89844v32.5c-0.1,1.5 1.30039,2.80078 2.90039,2.80078c1.7,0 3,-1.3 3,-3v-32.40039c0,-6.7 2.60078,-12.89961 7.30078,-17.59961c1.2,-1.2 1.2,-3.09922 0,-4.19922c-0.6,-0.55 -1.37617,-0.85078 -2.13867,-0.86328zM114.80078,32.09961c-19.6,0 -35.5,15.9 -35.5,35.5v8.40039c0,1.7 1.3,3 3,3c19.6,0 35.5,-15.9 35.5,-35.5v-8.40039c0,-1.7 -1.4,-3 -3,-3zM82.90039,36c-1.65685,0 -3,1.34315 -3,3c0,1.65685 1.34315,3 3,3c1.65685,0 3,-1.34315 3,-3c0,-1.65685 -1.34315,-3 -3,-3zM111.80078,38.30078c0,-0.1 -11.6,33.09961 -26.5,34.59961v-5.30078c0,-15.2 11.6,-27.79883 26.5,-29.29883zM53.90039,65.80078c-3.36863,0.00022 -6.09939,2.73098 -6.09961,6.09961c0.00022,3.36863 2.73098,6.09939 6.09961,6.09961c3.36863,-0.00022 6.09939,-2.73098 6.09961,-6.09961c-0.00022,-3.36863 -2.73098,-6.09939 -6.09961,-6.09961zM15.59961,79.59961c-1.7,0 -3,1.3 -3,3c0,1.7 1.3,3 3,3h14.30078c0.1,0 0.19922,0.09961 0.19922,0.09961v0.70117v24.40039v1h-14.5c-1.7,0 -3,1.3 -3,3c0,1.7 1.3,3 3,3h14.5c2.3,0 4.30078,-1.30156 5.30078,-3.10156l25.59961,8c0.3,0.1 4.29961,1.20117 9.09961,1.20117c2.6,0 5.30078,-0.30078 7.80078,-1.30078c5.3,-2.1 25.2,-12.6 33.5,-17c2.9,-1.5 5.1,-5.09922 3.5,-8.69922c-0.9,-2.2 -3.5,-5.70078 -10,-3.80078h-0.09961l-11.70117,3.90039c-1.6,0.5 -2.40039,2.20078 -1.90039,3.80078c0.5,1.6 2.20078,2.39844 3.80078,1.89844l11.5,-3.89844c2.4,-0.7 2.60078,-0.20156 2.80078,0.39844c0.2,0.5 -0.60117,1.10156 -0.70117,1.10156c-13.3,7 -28.9,15.09883 -33,16.79883c-5.2,2.1 -12.90039,-0.09961 -12.90039,-0.09961l-20.69922,-6.40039v-21h3.19922c3.8,0 14.50039,1.20078 18.40039,6.80078c0.6,0.8 1.5,1.29883 2.5,1.29883h14.59961c1.3,0 2.50156,0.90156 2.60156,2.10156v0.29883v0.20117v0.19922c0,0.1 -0.00156,0.19922 -0.10156,0.19922c0,0.1 0.00039,0.10117 -0.09961,0.20117c-0.4,0.8 -1.19922,1.40039 -2.19922,1.40039h-21.09961c-1.7,0 -3,1.3 -3,3c0,1.7 1.3,3 3,3h21.19922c2.9,0 5.5,-1.50078 7,-3.80078l0.09961,-0.09961c0.1,-0.1 0.10117,-0.20078 0.20117,-0.30078c0,-0.1 0.09961,-0.19922 0.09961,-0.19922c0.1,-0.2 0.19883,-0.40117 0.29883,-0.70117v-0.09961c0.1,-0.2 0.20117,-0.39922 0.20117,-0.69922v-0.20117c0.1,-0.2 0.09922,-0.39961 0.19922,-0.59961v-0.19922c0,-0.2 0.09961,-0.39961 0.09961,-0.59961v-0.20117c0,-0.5 0.1,-1 0,-1.5c-0.4,-4.3 -4.09961,-7.59961 -8.59961,-7.59961h-13c-7,-8 -21.69883,-8.09961 -22.29883,-8.09961h-9.70117c-0.9,-2.2 -3.09922,-3.80078 -5.69922,-3.80078z"></path></g></g></svg>