<?xml version="1.0"?><svg xmlns="http://www.w3.org/2000/svg"  viewBox="0 0 128 128" width="128px" height="128px">    <path d="M 96.300781 5.9003906 C 87.500781 5.9003906 80.300781 13.100391 80.300781 21.900391 L 80.300781 25.300781 C 80.300781 27.000781 81.600781 28.300781 83.300781 28.300781 C 92.100781 28.200781 99.300781 21.099219 99.300781 12.199219 L 99.300781 8.9003906 C 99.300781 7.2003906 98.000781 5.9003906 96.300781 5.9003906 z M 93.300781 12.400391 C 93.300781 16.800391 90.300781 20.500781 86.300781 21.800781 C 86.300781 17.400781 89.300781 13.600391 93.300781 12.400391 z M 65.099609 17.199219 A 4.0999999 4.0999999 0 0 0 61 21.300781 A 4.0999999 4.0999999 0 0 0 65.099609 25.400391 A 4.0999999 4.0999999 0 0 0 69.199219 21.300781 A 4.0999999 4.0999999 0 0 0 65.099609 17.199219 z M 34.199219 22.099609 C 32.499219 22.099609 31.199219 23.399609 31.199219 25.099609 L 31.199219 31 C 31.199219 45.2 42.700391 56.699219 56.900391 56.699219 C 58.600391 56.699219 59.900391 55.399219 59.900391 53.699219 L 59.900391 47.800781 C 59.900391 33.600781 48.399219 22.099609 34.199219 22.099609 z M 37.199219 28.300781 C 46.699219 29.700781 53.900391 50.5 53.900391 50.5 C 44.500391 49 37.199219 40.8 37.199219 31 L 37.199219 28.300781 z M 77.261719 28.4375 C 76.499219 28.425 75.749219 28.700781 75.199219 29.300781 C 69.399219 35.100781 66.199219 42.899219 66.199219 51.199219 L 66.199219 83.699219 C 66.099219 85.199219 67.499609 86.5 69.099609 86.5 C 70.799609 86.5 72.099609 85.2 72.099609 83.5 L 72.099609 51.099609 C 72.099609 44.399609 74.700391 38.2 79.400391 33.5 C 80.600391 32.3 80.600391 30.400781 79.400391 29.300781 C 78.800391 28.750781 78.024219 28.45 77.261719 28.4375 z M 114.80078 32.099609 C 95.200781 32.099609 79.300781 47.999609 79.300781 67.599609 L 79.300781 76 C 79.300781 77.7 80.600781 79 82.300781 79 C 101.90078 79 117.80078 63.1 117.80078 43.5 L 117.80078 35.099609 C 117.80078 33.399609 116.40078 32.099609 114.80078 32.099609 z M 82.900391 36 A 3 3 0 0 0 79.900391 39 A 3 3 0 0 0 82.900391 42 A 3 3 0 0 0 85.900391 39 A 3 3 0 0 0 82.900391 36 z M 111.80078 38.300781 C 111.80078 38.200781 100.20078 71.400391 85.300781 72.900391 L 85.300781 67.599609 C 85.300781 52.399609 96.900781 39.800781 111.80078 38.300781 z M 53.900391 65.800781 A 6.0999999 6.0999999 0 0 0 47.800781 71.900391 A 6.0999999 6.0999999 0 0 0 53.900391 78 A 6.0999999 6.0999999 0 0 0 60 71.900391 A 6.0999999 6.0999999 0 0 0 53.900391 65.800781 z M 15.599609 79.599609 C 13.899609 79.599609 12.599609 80.899609 12.599609 82.599609 C 12.599609 84.299609 13.899609 85.599609 15.599609 85.599609 L 29.900391 85.599609 C 30.000391 85.599609 30.099609 85.699219 30.099609 85.699219 L 30.099609 86.400391 L 30.099609 110.80078 L 30.099609 111.80078 L 15.599609 111.80078 C 13.899609 111.80078 12.599609 113.10078 12.599609 114.80078 C 12.599609 116.50078 13.899609 117.80078 15.599609 117.80078 L 30.099609 117.80078 C 32.399609 117.80078 34.400391 116.49922 35.400391 114.69922 L 61 122.69922 C 61.3 122.79922 65.299609 123.90039 70.099609 123.90039 C 72.699609 123.90039 75.400391 123.59961 77.900391 122.59961 C 83.200391 120.49961 103.10039 109.99961 111.40039 105.59961 C 114.30039 104.09961 116.50039 100.50039 114.90039 96.900391 C 114.00039 94.700391 111.40039 91.199609 104.90039 93.099609 L 104.80078 93.099609 L 93.099609 97 C 91.499609 97.5 90.699219 99.200781 91.199219 100.80078 C 91.699219 102.40078 93.4 103.19922 95 102.69922 L 106.5 98.800781 C 108.9 98.100781 109.10078 98.599219 109.30078 99.199219 C 109.50078 99.699219 108.69961 100.30078 108.59961 100.30078 C 95.299609 107.30078 79.699609 115.39961 75.599609 117.09961 C 70.399609 119.19961 62.699219 117 62.699219 117 L 42 110.59961 L 42 89.599609 L 45.199219 89.599609 C 48.999219 89.599609 59.699609 90.800391 63.599609 96.400391 C 64.199609 97.200391 65.099609 97.699219 66.099609 97.699219 L 80.699219 97.699219 C 81.999219 97.699219 83.200781 98.600781 83.300781 99.800781 L 83.300781 100.09961 L 83.300781 100.30078 L 83.300781 100.5 C 83.300781 100.6 83.299219 100.69922 83.199219 100.69922 C 83.199219 100.79922 83.199609 100.80039 83.099609 100.90039 C 82.699609 101.70039 81.900391 102.30078 80.900391 102.30078 L 59.800781 102.30078 C 58.100781 102.30078 56.800781 103.60078 56.800781 105.30078 C 56.800781 107.00078 58.100781 108.30078 59.800781 108.30078 L 81 108.30078 C 83.9 108.30078 86.5 106.8 88 104.5 L 88.099609 104.40039 C 88.199609 104.30039 88.200781 104.19961 88.300781 104.09961 C 88.300781 103.99961 88.400391 103.90039 88.400391 103.90039 C 88.500391 103.70039 88.599219 103.49922 88.699219 103.19922 L 88.699219 103.09961 C 88.799219 102.89961 88.900391 102.70039 88.900391 102.40039 L 88.900391 102.19922 C 89.000391 101.99922 88.999609 101.79961 89.099609 101.59961 L 89.099609 101.40039 C 89.099609 101.20039 89.199219 101.00078 89.199219 100.80078 L 89.199219 100.59961 C 89.199219 100.09961 89.299219 99.599609 89.199219 99.099609 C 88.799219 94.799609 85.099609 91.5 80.599609 91.5 L 67.599609 91.5 C 60.599609 83.5 45.900781 83.400391 45.300781 83.400391 L 35.599609 83.400391 C 34.699609 81.200391 32.500391 79.599609 29.900391 79.599609 L 15.599609 79.599609 z"/></svg>