<svg xmlns="http://www.w3.org/2000/svg"  viewBox="0 0 64 64" width="64px" height="64px"><path d="M 13 2 A 1 1 0 0 0 12 3 L 12 9 A 1 1 0 0 0 13 10 L 15 10 L 15 14.171875 A 3 3 0 1 0 19 17 A 1 1 0 0 0 17 17 A 1 1 0 1 1 16 16 A 1 1 0 0 0 17 15 L 17 10 L 45 10 L 45 19 A 1 1 0 0 0 46 20 L 55 20 L 55 22.585938 L 51 26.585938 L 51 23 A 1 1 0 0 0 49 23 L 49 52 L 47 52 A 1 1 0 0 0 46.292969 52.292969 L 42.292969 56.292969 A 1 1 0 0 0 42 57 L 42 61 A 1 1 0 0 0 43 62 L 61 62 A 1 1 0 0 0 62 61 L 62 53 A 1 1 0 0 0 61 52 L 57 52 L 57 20 L 58 20 A 1 1 0 0 0 59 19 L 59 10 L 61 10 A 1 1 0 0 0 61.707031 8.2929688 L 57.414062 4 L 61 4 A 1 1 0 0 0 61 2 L 13 2 z M 14 4 L 16.585938 4 L 14 6.5859375 L 14 4 z M 21.414062 4 L 28.585938 4 L 25 7.5859375 L 21.414062 4 z M 33.414062 4 L 40.585938 4 L 36.585938 8 L 27.414062 8 L 31 4.4140625 L 33.068359 6.4824219 A 1 1 0 0 0 34.482422 5.0683594 L 33.414062 4 z M 45.414062 4 L 52.585938 4 L 49 7.5859375 L 45.414062 4 z M 19 4.4140625 L 22.585938 8 L 15.414062 8 L 19 4.4140625 z M 43 4.4140625 L 46.585938 8 L 39.414062 8 L 43 4.4140625 z M 55 4.4140625 L 58.585938 8 L 51.414062 8 L 55 4.4140625 z M 47 10 L 57 10 L 57 18 L 47 18 L 47 10 z M 24.998047 13.001953 A 1 1 0 0 0 24 14 L 24 18 L 21 18 A 1 1 0 0 0 20 19 L 20 22 L 19 22 A 1 1 0 0 0 19 24 L 37 24 L 37 34 L 29 34 L 29 28 L 33 28 L 33 31 A 1 1 0 0 0 35 31 L 35 27 A 1 1 0 0 0 34 26 L 22 26 A 1 1 0 0 0 21 27 L 21 34 L 19 34 L 19 27 A 1 1 0 0 0 18 26 L 10 26 A 1 1 0 0 0 9 27 L 9 34 L 7 34 L 7 24 L 15 24 A 1 1 0 0 0 15 22 L 11 22 L 11 19 A 1 1 0 0 0 9 19 L 9 22 L 7 22 L 7 19 A 1 1 0 0 0 5 19 L 5 38 L 3 38 A 1 1 0 0 0 2 39 L 2 43 A 1 1 0 0 0 3 44 L 37 44 L 37 60 L 19 60 L 19 51 A 3 3 0 0 0 16 48 L 12 48 A 3 3 0 0 0 9 51 L 9 60 L 7 60 L 7 47 A 1 1 0 0 0 5 47 L 5 61 A 1 1 0 0 0 6 62 L 38 62 A 1 1 0 0 0 39 61 L 39 44 L 41 44 A 1 1 0 0 0 41 42 L 4 42 L 4 40 L 41 40 A 1 1 0 0 0 41 38 L 39 38 L 39 24 L 41 24 A 1 1 0 0 0 42 23 L 42 19 A 0.992 0.992 0 0 0 41.927734 18.644531 A 0.948 0.948 0 0 0 41.876953 18.544922 A 0.937 0.937 0 0 0 41.740234 18.34375 A 0.893 0.893 0 0 0 41.654297 18.257812 A 1.012 1.012 0 0 0 41.453125 18.125 A 1.041 1.041 0 0 0 41.34375 18.070312 C 41.32675 18.064312 41.311969 18.050922 41.292969 18.044922 L 25.292969 13.044922 A 1 1 0 0 0 24.998047 13.001953 z M 26 15.359375 L 34.447266 18 L 26 18 L 26 15.359375 z M 22 20 L 24 20 L 24 22 L 22 22 L 22 20 z M 26 20 L 28 20 L 28 22 L 26 22 L 26 20 z M 30 20 L 32 20 L 32 22 L 30 22 L 30 20 z M 34 20 L 36 20 L 36 22 L 34 22 L 34 20 z M 38 20 L 40 20 L 40 22 L 38 22 L 38 20 z M 55 25.414062 L 55 32.585938 L 51.414062 29 L 55 25.414062 z M 11 28 L 17 28 L 17 34 L 11 34 L 11 28 z M 23 28 L 27 28 L 27 34 L 23 34 L 23 28 z M 51 31.414062 L 54.585938 35 L 51 38.585938 L 51 31.414062 z M 7 36 L 9 36 L 9 38 L 7 38 L 7 36 z M 11 36 L 13 36 L 13 38 L 11 38 L 11 36 z M 15 36 L 17 36 L 17 38 L 15 38 L 15 36 z M 19 36 L 21 36 L 21 38 L 19 38 L 19 36 z M 23 36 L 25 36 L 25 38 L 23 38 L 23 36 z M 27 36 L 29 36 L 29 38 L 27 38 L 27 36 z M 31 36 L 33 36 L 33 38 L 31 38 L 31 36 z M 35 36 L 37 36 L 37 38 L 35 38 L 35 36 z M 55 37.414062 L 55 44.585938 L 51.414062 41 L 55 37.414062 z M 51 43.414062 L 54.585938 47 L 51 50.585938 L 51 43.414062 z M 22 48 A 1 1 0 0 0 21 49 L 21 57 A 1 1 0 0 0 22 58 L 34 58 A 1 1 0 0 0 34 56 L 29 56 L 29 50 L 33 50 L 33 53 A 1 1 0 0 0 34 54 A 1 1 0 0 0 35 53 L 35 49 A 1 1 0 0 0 34 48 L 22 48 z M 55 49.414062 L 55 52 L 52.414062 52 L 55 49.414062 z M 12 50 L 16 50 A 1 1 0 0 1 17 51 L 17 54 L 16 54 A 1 1 0 0 0 16 56 L 17 56 L 17 60 L 11 60 L 11 51 A 1 1 0 0 1 12 50 z M 23 50 L 27 50 L 27 56 L 23 56 L 23 50 z M 47.414062 54 L 60 54 L 60 60 L 44 60 L 44 57.414062 L 47.414062 54 z"/></svg>