<svg xmlns="http://www.w3.org/2000/svg" xmlns:xlink="http://www.w3.org/1999/xlink" viewBox="0,0,256,256" width="64px" height="64px" fill-rule="nonzero"><g fill="#82fd6e" fill-rule="nonzero" stroke="none" stroke-width="1" stroke-linecap="butt" stroke-linejoin="miter" stroke-miterlimit="10" stroke-dasharray="" stroke-dashoffset="0" font-family="none" font-weight="none" font-size="none" text-anchor="none" style="mix-blend-mode: normal"><g transform="scale(4,4)"><path d="M13,2c-0.55228,0 -1,0.44772 -1,1v6c0,0.55228 0.44772,1 1,1h2v4.17188c-1.43843,0.50856 -2.26607,2.01572 -1.92331,3.5024c0.34276,1.48668 1.74673,2.47934 3.26262,2.30678c1.51589,-0.17256 2.66084,-1.45537 2.66069,-2.98105c0,-0.55228 -0.44772,-1 -1,-1c-0.55228,0 -1,0.44772 -1,1c0,0.55228 -0.44772,1 -1,1c-0.55228,0 -1,-0.44772 -1,-1c0,-0.55228 0.44772,-1 1,-1c0.55228,0 1,-0.44772 1,-1v-5h28v9c0,0.55228 0.44772,1 1,1h9v2.58594l-4,4v-3.58594c0,-0.55228 -0.44772,-1 -1,-1c-0.55228,0 -1,0.44772 -1,1v29h-2c-0.2652,0.00004 -0.51953,0.10542 -0.70703,0.29297l-4,4c-0.18755,0.18751 -0.29293,0.44183 -0.29297,0.70703v4c0,0.55228 0.44772,1 1,1h18c0.55228,0 1,-0.44772 1,-1v-8c0,-0.55228 -0.44772,-1 -1,-1h-4v-32h1c0.55228,0 1,-0.44772 1,-1v-9h2c0.40442,-0.00006 0.76898,-0.2437 0.92374,-0.61734c0.15475,-0.37363 0.06923,-0.8037 -0.21671,-1.08969l-4.29297,-4.29297h3.58594c0.55228,0 1,-0.44772 1,-1c0,-0.55228 -0.44772,-1 -1,-1zM14,4h2.58594l-2.58594,2.58594zM21.41406,4h7.17188l-3.58594,3.58594zM33.41406,4h7.17188l-4,4h-9.17188l3.58594,-3.58594l2.06836,2.06836c0.3921,0.38081 1.01731,0.37625 1.40381,-0.01025c0.3865,-0.3865 0.39106,-1.01171 0.01025,-1.40381zM45.41406,4h7.17188l-3.58594,3.58594zM19,4.41406l3.58594,3.58594h-7.17188zM43,4.41406l3.58594,3.58594h-7.17188zM55,4.41406l3.58594,3.58594h-7.17188zM47,10h10v8h-10zM24.99805,13.00195c-0.55076,0.00107 -0.99697,0.44729 -0.99805,0.99805v4h-3c-0.55228,0 -1,0.44772 -1,1v3h-1c-0.55228,0 -1,0.44772 -1,1c0,0.55228 0.44772,1 1,1h18v10h-8v-6h4v3c0,0.55228 0.44772,1 1,1c0.55228,0 1,-0.44772 1,-1v-4c0,-0.55228 -0.44772,-1 -1,-1h-12c-0.55228,0 -1,0.44772 -1,1v7h-2v-7c0,-0.55228 -0.44772,-1 -1,-1h-8c-0.55228,0 -1,0.44772 -1,1v7h-2v-10h8c0.55228,0 1,-0.44772 1,-1c0,-0.55228 -0.44772,-1 -1,-1h-4v-3c0,-0.55228 -0.44772,-1 -1,-1c-0.55228,0 -1,0.44772 -1,1v3h-2v-3c0,-0.55228 -0.44772,-1 -1,-1c-0.55228,0 -1,0.44772 -1,1v19h-2c-0.55228,0 -1,0.44772 -1,1v4c0,0.55228 0.44772,1 1,1h34v16h-18v-9c0,-1.65685 -1.34315,-3 -3,-3h-4c-1.65685,0 -3,1.34315 -3,3v9h-2v-13c0,-0.55228 -0.44772,-1 -1,-1c-0.55228,0 -1,0.44772 -1,1v14c0,0.55228 0.44772,1 1,1h32c0.55228,0 1,-0.44772 1,-1v-17h2c0.55228,0 1,-0.44772 1,-1c0,-0.55228 -0.44772,-1 -1,-1h-37v-2h37c0.55228,0 1,-0.44772 1,-1c0,-0.55228 -0.44772,-1 -1,-1h-2v-14h2c0.55228,0 1,-0.44772 1,-1v-4c-0.00204,-0.12192 -0.02653,-0.24243 -0.07227,-0.35547c-0.01495,-0.03417 -0.03191,-0.06743 -0.05078,-0.09961c-0.03664,-0.07271 -0.0826,-0.14034 -0.13672,-0.20117c-0.02666,-0.03056 -0.05537,-0.05928 -0.08594,-0.08594c-0.06153,-0.05213 -0.12906,-0.09671 -0.20117,-0.13281c-0.03536,-0.02036 -0.07188,-0.03862 -0.10937,-0.05469c-0.017,-0.006 -0.03178,-0.01939 -0.05078,-0.02539l-16,-5c-0.09561,-0.02897 -0.19502,-0.04346 -0.29492,-0.04297zM26,15.35938l8.44727,2.64063h-8.44727zM22,20h2v2h-2zM26,20h2v2h-2zM30,20h2v2h-2zM34,20h2v2h-2zM38,20h2v2h-2zM55,25.41406v7.17188l-3.58594,-3.58594zM11,28h6v6h-6zM23,28h4v6h-4zM51,31.41406l3.58594,3.58594l-3.58594,3.58594zM7,36h2v2h-2zM11,36h2v2h-2zM15,36h2v2h-2zM19,36h2v2h-2zM23,36h2v2h-2zM27,36h2v2h-2zM31,36h2v2h-2zM35,36h2v2h-2zM55,37.41406v7.17188l-3.58594,-3.58594zM51,43.41406l3.58594,3.58594l-3.58594,3.58594zM22,48c-0.55228,0 -1,0.44772 -1,1v8c0,0.55228 0.44772,1 1,1h12c0.55228,0 1,-0.44772 1,-1c0,-0.55228 -0.44772,-1 -1,-1h-5v-6h4v3c0,0.55228 0.44772,1 1,1c0.55228,0 1,-0.44772 1,-1v-4c0,-0.55228 -0.44772,-1 -1,-1zM55,49.41406v2.58594h-2.58594zM12,50h4c0.55228,0 1,0.44772 1,1v3h-1c-0.55228,0 -1,0.44772 -1,1c0,0.55228 0.44772,1 1,1h1v4h-6v-9c0,-0.55228 0.44772,-1 1,-1zM23,50h4v6h-4zM47.41406,54h12.58594v6h-16v-2.58594z"></path></g></g></svg>