<svg xmlns="http://www.w3.org/2000/svg"  viewBox="0 0 100 100" width="100px" height="100px"><path d="M 49.671875 14.072266 C 47.765582 14.092166 45.866639 14.26839 43.988281 14.601562 C 43.988281 14.601562 43.986328 14.601562 43.986328 14.601562 C 42.992007 14.764237 42.26564 15.689678 42.333984 16.699219 A 1.0001 1.0001 0 0 0 42.333984 16.701172 C 42.555849 19.887362 41.536106 21.836002 39.121094 23.082031 C 37.623692 23.850185 36.321572 24.05643 35.070312 23.794922 C 33.81836 23.533268 32.560355 22.774973 31.259766 21.390625 A 1.0001 1.0001 0 0 0 31.242188 21.373047 C 30.552993 20.67243 29.388295 20.572698 28.595703 21.181641 C 25.487545 23.494752 22.811628 26.239638 20.650391 29.335938 A 1.0001 1.0001 0 0 0 20.648438 29.337891 C 20.069751 30.170002 20.224334 31.316239 20.978516 31.972656 C 22.268679 33.125897 23.024443 34.273273 23.347656 35.435547 C 23.671688 36.600764 23.58814 37.819674 23.033203 39.226562 A 1.0001 1.0001 0 0 0 23.03125 39.228516 C 22.472797 40.653674 21.699083 41.608357 20.662109 42.238281 C 19.625135 42.868205 18.276759 43.185791 16.521484 43.134766 C 15.525173 43.099004 14.631194 43.844704 14.482422 44.830078 A 1.0001 1.0001 0 0 0 14.482422 44.837891 C 13.93802 48.62919 14.002788 52.46382 14.679688 56.21875 C 14.841095 57.196191 15.743753 57.92133 16.730469 57.880859 A 1.0001 1.0001 0 0 0 16.742188 57.878906 C 20.125394 57.699332 22.011086 58.774656 23.222656 61.445312 C 23.852574 62.850454 23.995882 64.078742 23.724609 65.265625 C 23.453373 66.452347 22.742441 67.64221 21.486328 68.865234 C 20.764091 69.561535 20.696682 70.692893 21.263672 71.482422 A 1.0001 1.0001 0 0 0 21.273438 71.498047 C 23.53501 74.535752 26.28062 77.189537 29.417969 79.382812 C 29.417969 79.382812 29.419922 79.382812 29.419922 79.382812 C 30.217312 79.957555 31.353267 79.846667 32.019531 79.132812 A 1.0001 1.0001 0 0 0 32.021484 79.130859 C 34.327846 76.653279 36.427938 76.116379 39.15625 77.169922 C 41.968079 78.264411 43.144029 80.113999 43.117188 83.533203 A 1.0001 1.0001 0 0 0 43.117188 83.542969 C 43.119188 84.51338 43.83043 85.360388 44.796875 85.525391 A 1.0001 1.0001 0 0 0 44.822266 85.529297 C 48.577957 86.074132 52.373722 86.024503 56.089844 85.367188 C 56.333374 85.344247 56.500298 85.270608 56.570312 85.240234 C 57.336391 84.915878 57.76827 84.235868 57.8125 83.447266 C 57.82478 83.339577 57.851616 83.219456 57.822266 82.984375 L 57.830078 83.070312 C 57.723602 80.253128 59.100331 77.988668 61.382812 76.982422 A 1.0001 1.0001 0 0 0 61.472656 76.9375 C 63.952011 75.892038 66.465816 76.410083 68.445312 78.398438 A 1.0001 1.0001 0 0 0 68.457031 78.410156 C 68.762078 78.707345 69.202931 79.033386 69.814453 79.138672 C 70.425976 79.243958 71.148388 79.058882 71.757812 78.597656 A 1.0001 1.0001 0 0 0 71.759766 78.595703 C 74.523123 76.494893 76.956576 74.010015 79.005859 71.207031 A 1.0001 1.0001 0 0 0 79.035156 71.164062 C 79.112776 71.045175 79.181615 70.944593 79.216797 70.900391 A 1.0001 1.0001 0 0 0 79.292969 70.791016 L 79.361328 70.673828 L 79.326172 70.728516 C 79.892002 69.908472 79.734753 68.834307 79.068359 68.173828 A 1.0001 1.0001 0 0 0 79.046875 68.154297 C 76.765403 66.019807 76.170679 64.055477 76.982422 61.544922 A 1.0001 1.0001 0 0 0 76.984375 61.537109 C 77.478541 59.963032 78.23192 58.904957 79.275391 58.195312 C 80.318862 57.48567 81.708137 57.104729 83.552734 57.109375 A 1.0001 1.0001 0 0 0 83.576172 57.109375 C 84.536796 57.089565 85.379197 56.384855 85.529297 55.408203 C 86.110626 51.624432 86.088731 47.811513 85.441406 44.072266 C 85.283171 43.089065 84.403792 42.374621 83.410156 42.408203 A 1.0001 1.0001 0 0 0 83.408203 42.408203 C 80.046196 42.526819 78.172263 41.453589 76.976562 38.796875 C 76.349457 37.400404 76.2059 36.173531 76.478516 34.984375 C 76.751131 33.795219 77.465763 32.603071 78.728516 31.376953 L 78.708984 31.394531 C 79.382885 30.774049 79.525979 29.769234 79.066406 28.982422 C 78.352827 27.675703 76.823929 25.977572 75.158203 24.339844 C 73.485614 22.695367 71.832608 21.232549 70.541016 20.615234 L 70.541016 20.617188 C 69.743063 20.23433 68.779993 20.424984 68.189453 21.089844 C 67.04859 22.360616 65.915462 23.099597 64.761719 23.410156 C 63.606585 23.721089 62.389543 23.628174 60.982422 23.066406 A 1.0001 1.0001 0 0 0 60.980469 23.066406 C 59.565623 22.505052 58.617422 21.726847 57.990234 20.683594 C 57.363047 19.640341 57.046231 18.283885 57.099609 16.521484 A 1.0001 1.0001 0 0 0 57.101562 16.498047 C 57.109363 15.523486 56.410567 14.630256 55.400391 14.482422 C 53.496415 14.191441 51.580832 14.052339 49.671875 14.072266 z M 49.693359 16.072266 C 51.494959 16.053466 53.303407 16.183576 55.103516 16.458984 A 1.0001 1.0001 0 0 0 55.111328 16.458984 C 55.096658 16.456884 55.102316 16.462986 55.103516 16.478516 C 55.044726 18.505191 55.408022 20.270124 56.275391 21.712891 C 57.145176 23.159676 58.50982 24.236154 60.242188 24.923828 C 61.961065 25.61006 63.672383 25.774864 65.28125 25.341797 C 66.890117 24.90873 68.353896 23.902284 69.681641 22.421875 C 70.341389 22.738151 72.15749 24.194121 73.755859 25.765625 C 75.35552 27.338398 76.884916 29.144911 77.324219 29.955078 C 75.871147 31.369456 74.906073 32.893603 74.529297 34.537109 C 74.151412 36.185453 74.38645 37.911659 75.152344 39.617188 C 76.62386 42.886733 79.581727 44.543609 83.472656 44.408203 C 84.083046 47.930651 84.102705 51.525786 83.552734 55.105469 C 83.552835 55.104817 83.544536 55.109175 83.535156 55.109375 L 83.558594 55.109375 C 81.433191 55.103975 79.60442 55.552159 78.150391 56.541016 C 76.698617 57.528338 75.676315 59.035909 75.080078 60.929688 C 74.062424 64.077082 75.024899 67.113721 77.664062 69.59375 C 77.669062 69.60065 77.670361 69.61015 77.681641 69.59375 A 1.0001 1.0001 0 0 0 77.673828 69.605469 A 1.0001 1.0001 0 0 0 77.646484 69.648438 L 77.578125 69.759766 L 77.576172 69.763672 C 77.508862 69.855952 77.443029 69.946982 77.390625 70.027344 C 75.453908 72.67636 73.15747 75.020717 70.548828 77.003906 C 70.282293 77.204698 70.216154 77.176666 70.154297 77.166016 C 70.092067 77.155306 69.973516 77.095376 69.851562 76.976562 C 67.367424 74.49017 63.860612 73.751432 60.681641 75.097656 C 60.642821 75.112506 60.529428 75.165876 60.380859 75.277344 C 57.466501 76.669057 55.699736 79.697845 55.830078 83.146484 A 1.0001 1.0001 0 0 0 55.837891 83.232422 C 55.824271 83.123494 55.835396 83.153816 55.822266 83.291016 A 1.0001 1.0001 0 0 0 55.818359 83.333984 C 55.819077 83.320034 55.765429 83.394558 55.792969 83.392578 C 52.283866 84.018889 48.692272 84.065166 45.130859 83.550781 C 45.119859 83.547581 45.117198 83.543883 45.117188 83.539062 C 45.145173 79.575369 43.314124 76.643019 39.880859 75.306641 A 1.0001 1.0001 0 0 0 39.878906 75.304688 C 36.534121 74.012309 33.24982 74.892389 30.576172 77.751953 C 27.609938 75.680344 25.021858 73.178618 22.888672 70.316406 C 22.869662 70.289936 22.87323 70.306387 22.875 70.304688 A 1.0001 1.0001 0 0 0 22.876953 70.302734 C 24.33209 68.887273 25.297132 67.359076 25.673828 65.710938 C 26.050525 64.062798 25.814345 62.337086 25.044922 60.623047 A 1.0001 1.0001 0 0 0 25.042969 60.619141 C 23.554376 57.337847 20.570036 55.679243 16.650391 55.882812 A 1.0001 1.0001 0 0 0 16.648438 55.876953 C 16.008216 52.33343 15.947501 48.715759 16.460938 45.132812 A 1.0001 1.0001 0 0 0 16.464844 45.132812 C 18.493569 45.191783 20.259396 44.823092 21.701172 43.947266 C 23.142228 43.071877 24.209987 41.701538 24.892578 39.960938 C 25.572641 38.236826 25.724858 36.516673 25.275391 34.900391 C 24.825923 33.284108 23.801636 31.81146 22.300781 30.472656 A 1.0001 1.0001 0 0 0 22.298828 30.470703 C 24.335362 27.555697 26.857991 24.965498 29.800781 22.777344 A 1.0001 1.0001 0 0 0 29.810547 22.769531 C 29.810547 22.769531 29.8125 22.769531 29.8125 22.769531 A 1.0001 1.0001 0 0 0 29.814453 22.767578 C 29.828963 22.756428 29.823606 22.770284 29.816406 22.771484 C 31.306808 24.3535 32.916462 25.387527 34.660156 25.751953 C 36.409454 26.11755 38.235558 25.784173 40.037109 24.859375 A 1.0001 1.0001 0 0 0 40.039062 24.859375 C 43.0747 23.293133 44.584072 20.304273 44.328125 16.574219 C 46.100088 16.259402 47.893059 16.091055 49.693359 16.072266 z M 47.119141 26.171875 A 0.50005 0.50005 0 0 0 47.083984 26.175781 C 35.204832 27.614725 26 37.737889 26 50 C 26 63.249206 36.750794 74 50 74 C 63.249206 74 74 63.249206 74 50 C 74 39.859168 67.705259 31.180635 58.806641 27.667969 A 0.50005 0.50005 0 1 0 58.439453 28.597656 C 66.964835 31.96299 73 40.272832 73 50 C 73 62.708794 62.708794 73 50 73 C 37.291206 73 27 62.708794 27 50 C 27 38.238111 35.820233 28.547031 47.205078 27.167969 A 0.50005 0.50005 0 0 0 47.119141 26.171875 z M 54.835938 26.505859 A 0.50005 0.50005 0 0 0 54.779297 27.498047 C 55.222757 27.592027 55.661916 27.697923 56.095703 27.816406 A 0.5001117 0.5001117 0 0 0 56.359375 26.851562 C 55.907162 26.728047 55.448868 26.617553 54.986328 26.519531 A 0.50005 0.50005 0 0 0 54.886719 26.505859 A 0.50005 0.50005 0 0 0 54.835938 26.505859 z M 50 32 C 48.769998 32 47.568868 32.12498 46.408203 32.359375 A 0.50005 0.50005 0 0 0 46.046875 33.046875 L 48.287109 38.271484 A 0.50005 0.50005 0 1 0 49.205078 37.878906 L 47.234375 33.277344 C 48.139417 33.128347 49.05327 33 50 33 C 58.88934 33 66.108169 39.831774 66.865234 48.523438 L 57.582031 47.462891 C 56.621285 44.598872 54.084123 42.458407 51.003906 42.070312 L 50.373047 40.599609 A 0.50005 0.50005 0 0 0 49.900391 40.291016 A 0.50005 0.50005 0 0 0 49.453125 40.994141 L 49.886719 42.005859 C 47.726925 42.036319 45.770823 42.921555 44.347656 44.34375 L 40.527344 35.394531 A 0.50005 0.50005 0 0 0 40.050781 35.089844 A 0.50005 0.50005 0 0 0 39.783203 35.177734 C 35.08091 38.424703 32 43.855915 32 50 C 32 54.751237 33.843369 59.078066 36.853516 62.294922 A 0.50005 0.50005 0 0 0 37.615234 62.259766 L 43.496094 54.642578 C 44.653639 56.259632 46.392386 57.433722 48.410156 57.841797 L 42.460938 65.677734 A 0.50005 0.50005 0 0 0 42.654297 66.4375 C 43.596529 66.859241 44.581936 67.202792 45.601562 67.458984 A 0.50046707 0.50046707 0 1 0 45.845703 66.488281 C 45.094051 66.29942 44.380401 66.021789 43.671875 65.736328 L 49.5625 57.978516 C 49.70832 57.98646 49.852226 58 50 58 C 52.401591 58 54.554042 56.932116 56.021484 55.251953 L 65.6875 56.367188 C 63.456595 61.848872 58.511928 65.943048 52.470703 66.822266 A 0.50022292 0.50022292 0 1 0 52.613281 67.8125 C 59.249779 66.846649 64.711514 62.261831 66.931641 56.123047 A 0.50005 0.50005 0 0 0 66.519531 55.457031 L 56.720703 54.326172 C 57.527068 53.077594 58 51.594214 58 50 C 58 49.487771 57.947846 48.98763 57.855469 48.501953 L 67.396484 49.591797 A 0.50005 0.50005 0 0 0 67.953125 49.070312 C 67.465778 39.568073 59.620887 32 50 32 z M 39.876953 36.419922 L 43.621094 45.189453 C 42.607644 46.529975 42 48.193188 42 50 C 42 51.349699 42.339336 52.620045 42.931641 53.736328 L 37.216797 61.140625 C 34.611357 58.153489 33 54.277431 33 50 C 33 44.418119 35.727108 39.519504 39.876953 36.419922 z M 50 43 C 50.197825 43 50.392314 43.013284 50.585938 43.029297 A 0.50047757 0.50047757 0 0 0 50.673828 43.033203 C 50.673828 43.033203 50.675781 43.033203 50.675781 43.033203 C 53.554963 43.307977 55.917043 45.31993 56.710938 48.011719 A 0.5003987 0.5003987 0 0 0 56.728516 48.082031 C 56.901554 48.692001 57 49.333854 57 50 C 57 51.639298 56.436578 53.142299 55.496094 54.333984 A 0.50005 0.50005 0 0 0 55.357422 54.507812 C 54.074332 56.031718 52.152544 57 50 57 C 49.802833 57 49.609011 56.986611 49.416016 56.970703 A 0.50005 0.50005 0 0 0 49.341797 56.962891 A 0.50005 0.50005 0 0 0 49.283203 56.964844 C 47.03047 56.736741 45.104211 55.438866 43.998047 53.591797 A 0.50005 0.50005 0 0 0 43.90625 53.443359 C 43.331541 52.426739 43 51.253393 43 50 C 43 48.33063 43.582823 46.801352 44.554688 45.599609 A 0.50009348 0.50009348 0 0 0 44.607422 45.53125 C 45.890415 43.984093 47.828528 43 50 43 z M 50 46.5 C 48.875 46.5 47.968589 46.939878 47.376953 47.605469 C 46.785317 48.27106 46.5 49.138889 46.5 50 C 46.5 50.861111 46.785317 51.72894 47.376953 52.394531 C 47.968589 53.060122 48.875 53.5 50 53.5 C 51.125 53.5 52.031411 53.060122 52.623047 52.394531 C 53.214683 51.72894 53.5 50.861111 53.5 50 C 53.5 49.138889 53.214683 48.27106 52.623047 47.605469 C 52.031411 46.939878 51.125 46.5 50 46.5 z M 50 47.5 C 50.875 47.5 51.46859 47.810122 51.876953 48.269531 C 52.285317 48.72894 52.5 49.361111 52.5 50 C 52.5 50.638889 52.285317 51.27106 51.876953 51.730469 C 51.46859 52.189878 50.875 52.5 50 52.5 C 49.125 52.5 48.53141 52.189878 48.123047 51.730469 C 47.714683 51.27106 47.5 50.638889 47.5 50 C 47.5 49.361111 47.714683 48.72894 48.123047 48.269531 C 48.53141 47.810122 49.125 47.5 50 47.5 z M 48.089844 66.896484 A 0.50005 0.50005 0 0 0 48.033203 67.894531 C 48.451819 67.939791 48.872485 67.969888 49.298828 67.986328 A 0.50005 0.50005 0 1 0 49.337891 66.988281 C 48.934234 66.972721 48.536009 66.943131 48.140625 66.900391 A 0.50005 0.50005 0 0 0 48.089844 66.896484 z"/></svg>