<svg xmlns="http://www.w3.org/2000/svg" xmlns:xlink="http://www.w3.org/1999/xlink" viewBox="0,0,256,256" width="100px" height="100px" fill-rule="nonzero"><g fill="#82fd6e" fill-rule="nonzero" stroke="none" stroke-width="1" stroke-linecap="butt" stroke-linejoin="miter" stroke-miterlimit="10" stroke-dasharray="" stroke-dashoffset="0" font-family="none" font-weight="none" font-size="none" text-anchor="none" style="mix-blend-mode: normal"><g transform="scale(2.56,2.56)"><path d="M49.67188,14.07227c-1.90629,0.0199 -3.80524,0.19612 -5.68359,0.5293h-0.00195c-0.99432,0.16268 -1.72069,1.08812 -1.65234,2.09766c0,0.00065 0,0.0013 0,0.00195c0.22187,3.18619 -0.79788,5.13483 -3.21289,6.38086c-1.4974,0.76815 -2.79952,0.9744 -4.05078,0.71289c-1.25195,-0.26165 -2.50996,-1.01995 -3.81055,-2.4043c-0.00579,-0.00593 -0.01165,-0.01179 -0.01758,-0.01758c-0.68919,-0.70062 -1.85389,-0.80035 -2.64648,-0.19141c-3.10816,2.31311 -5.78408,5.058 -7.94531,8.1543c-0.00065,0.00065 -0.0013,0.0013 -0.00195,0.00195c-0.57869,0.83211 -0.4241,1.97835 0.33008,2.63477c1.29016,1.15324 2.04593,2.30062 2.36914,3.46289c0.32403,1.16522 0.24048,2.38413 -0.31445,3.79102c-0.00065,0.00065 -0.0013,0.0013 -0.00195,0.00195c-0.55845,1.42516 -1.33217,2.37984 -2.36914,3.00977c-1.03697,0.62992 -2.38535,0.94751 -4.14062,0.89648c-0.99631,-0.03576 -1.89029,0.70994 -2.03906,1.69531c-0.00001,0.0026 -0.00001,0.00521 0,0.00781c-0.5444,3.7913 -0.47963,7.62593 0.19727,11.38086c0.16141,0.97744 1.06406,1.70258 2.05078,1.66211c0.00391,-0.00063 0.00782,-0.00128 0.01172,-0.00195c3.38321,-0.17957 5.2689,0.89575 6.48047,3.56641c0.62992,1.40514 0.77323,2.63343 0.50195,3.82031c-0.27124,1.18672 -0.98217,2.37659 -2.23828,3.59961c-0.72224,0.6963 -0.78965,1.82766 -0.22266,2.61719c0.00321,0.00524 0.00646,0.01045 0.00977,0.01563c2.26157,3.03771 5.00718,5.69149 8.14453,7.88477h0.00195c0.79739,0.57474 1.93334,0.46385 2.59961,-0.25c0.00065,-0.00065 0.0013,-0.0013 0.00195,-0.00195c2.30636,-2.47758 4.40645,-3.01448 7.13477,-1.96094c2.81183,1.09449 3.98778,2.94408 3.96094,6.36328c-0.00002,0.00326 -0.00002,0.00651 0,0.00977c0.002,0.97041 0.71324,1.81742 1.67969,1.98242c0.00845,0.00141 0.01691,0.00271 0.02539,0.00391c3.75569,0.54484 7.55146,0.49521 11.26758,-0.16211c0.24353,-0.02294 0.41045,-0.09658 0.48047,-0.12695c0.76608,-0.32436 1.19796,-1.00437 1.24219,-1.79297c0.01228,-0.10769 0.03912,-0.22781 0.00977,-0.46289l0.00781,0.08594c-0.10648,-2.81718 1.27025,-5.08164 3.55273,-6.08789c0.03068,-0.01346 0.06067,-0.02845 0.08984,-0.04492c2.47935,-1.04546 4.99316,-0.52742 6.97266,1.46094c0.00387,0.00394 0.00778,0.00784 0.01172,0.01172c0.30505,0.29719 0.7459,0.62323 1.35742,0.72852c0.61152,0.10529 1.33393,-0.07979 1.94336,-0.54102c0.00065,-0.00065 0.0013,-0.0013 0.00195,-0.00195c2.76336,-2.10081 5.19681,-4.58569 7.24609,-7.38867c0.01014,-0.01407 0.01991,-0.02839 0.0293,-0.04297c0.07762,-0.11889 0.14646,-0.21947 0.18164,-0.26367c0.02779,-0.03472 0.05324,-0.07126 0.07617,-0.10937l0.06836,-0.11719l-0.03516,0.05469c0.56583,-0.82004 0.40858,-1.89421 -0.25781,-2.55469c-0.00707,-0.00661 -0.01423,-0.01312 -0.02148,-0.01953c-2.28147,-2.13449 -2.8762,-4.09882 -2.06445,-6.60937c0.00066,-0.0026 0.00131,-0.00521 0.00195,-0.00781c0.49417,-1.57408 1.24755,-2.63215 2.29102,-3.3418c1.04347,-0.70964 2.43275,-1.09058 4.27734,-1.08594c0.00781,0.00009 0.01563,0.00009 0.02344,0c0.96062,-0.01981 1.80303,-0.72452 1.95313,-1.70117c0.58133,-3.78377 0.55943,-7.59669 -0.08789,-11.33594c-0.15824,-0.9832 -1.03761,-1.69765 -2.03125,-1.66406c-0.00065,0 -0.0013,0 -0.00195,0c-3.36201,0.11862 -5.23594,-0.95461 -6.43164,-3.61133c-0.62711,-1.39647 -0.77066,-2.62334 -0.49805,-3.8125c0.27262,-1.18916 0.98725,-2.3813 2.25,-3.60742l-0.01953,0.01758c0.6739,-0.62048 0.817,-1.6253 0.35742,-2.41211c-0.71358,-1.30672 -2.24248,-3.00485 -3.9082,-4.64258c-1.67259,-1.64448 -3.3256,-3.1073 -4.61719,-3.72461v0.00195c-0.79795,-0.38286 -1.76102,-0.1922 -2.35156,0.47266c-1.14086,1.27077 -2.27399,2.00975 -3.42773,2.32031c-1.15513,0.31093 -2.37218,0.21802 -3.7793,-0.34375c-0.00065,0 -0.0013,0 -0.00195,0c-1.41485,-0.56135 -2.36305,-1.33956 -2.99023,-2.38281c-0.62719,-1.04325 -0.944,-2.39971 -0.89062,-4.16211c0.00074,-0.0078 0.00139,-0.01562 0.00195,-0.02344c0.0078,-0.97456 -0.691,-1.86779 -1.70117,-2.01562c-1.90398,-0.29098 -3.81956,-0.43008 -5.72852,-0.41016zM49.69336,16.07227c1.8016,-0.0188 3.61005,0.11131 5.41016,0.38672c0.0026,0.00001 0.00521,0.00001 0.00781,0c-0.01467,-0.0021 -0.00901,0.004 -0.00781,0.01953c-0.05879,2.02668 0.30451,3.79161 1.17188,5.23438c0.86979,1.44679 2.23443,2.52326 3.9668,3.21094c1.71888,0.68623 3.4302,0.85104 5.03906,0.41797c1.60887,-0.43307 3.07265,-1.43951 4.40039,-2.91992c0.65975,0.31628 2.47585,1.77225 4.07422,3.34375c1.59966,1.57277 3.12906,3.37929 3.56836,4.18945c-1.45307,1.41438 -2.41815,2.93852 -2.79492,4.58203c-0.37789,1.64834 -0.14285,3.37455 0.62305,5.08008c1.47152,3.26955 4.42938,4.92642 8.32031,4.79102c0.61039,3.52245 0.63005,7.11758 0.08008,10.69727c0.0001,-0.00065 -0.0082,0.00371 -0.01758,0.00391h0.02344c-2.1254,-0.0054 -3.95417,0.44278 -5.4082,1.43164c-1.45177,0.98732 -2.47408,2.49489 -3.07031,4.38867c-1.01765,3.14739 -0.05518,6.18403 2.58398,8.66406c0.005,0.0069 0.0063,0.0164 0.01758,0c-0.00263,0.00389 -0.00524,0.00779 -0.00781,0.01172c-0.00948,0.01409 -0.0186,0.02842 -0.02734,0.04297l-0.06836,0.11133l-0.00195,0.00391c-0.06731,0.09228 -0.13314,0.18331 -0.18555,0.26367c-1.93672,2.64902 -4.23315,4.99337 -6.8418,6.97656c-0.26654,0.20079 -0.33267,0.17276 -0.39453,0.16211c-0.06223,-0.01071 -0.18078,-0.07064 -0.30273,-0.18945c-2.48414,-2.48639 -5.99095,-3.22513 -9.16992,-1.87891c-0.03882,0.01485 -0.15221,0.06822 -0.30078,0.17969c-2.91436,1.39171 -4.68112,4.4205 -4.55078,7.86914c0.00137,0.02875 0.00397,0.05742 0.00781,0.08594c-0.01362,-0.10893 -0.00249,-0.07861 -0.01562,0.05859c-0.00161,0.01429 -0.00291,0.02862 -0.00391,0.04297c0.00072,-0.01395 -0.05293,0.06057 -0.02539,0.05859c-3.5091,0.62631 -7.1007,0.67259 -10.66211,0.1582c-0.011,-0.0032 -0.01366,-0.0069 -0.01367,-0.01172c0.02799,-3.96369 -1.80306,-6.89604 -5.23633,-8.23242c-0.00065,-0.00065 -0.0013,-0.0013 -0.00195,-0.00195c-3.34479,-1.29238 -6.62909,-0.4123 -9.30273,2.44727c-2.96623,-2.07161 -5.55431,-4.57333 -7.6875,-7.43555c-0.01901,-0.02647 -0.01544,-0.01002 -0.01367,-0.01172c0.00065,-0.00065 0.0013,-0.0013 0.00195,-0.00195c1.45514,-1.41546 2.42018,-2.94366 2.79688,-4.5918c0.3767,-1.64814 0.14052,-3.37385 -0.62891,-5.08789c-0.00065,-0.0013 -0.0013,-0.00261 -0.00195,-0.00391c-1.48859,-3.28129 -4.47293,-4.9399 -8.39258,-4.73633c-0.00064,-0.00196 -0.0013,-0.00391 -0.00195,-0.00586c-0.64022,-3.54352 -0.70094,-7.16119 -0.1875,-10.74414c0.0013,0 0.0026,0 0.00391,0c2.02873,0.05897 3.79455,-0.30972 5.23633,-1.18555c1.44106,-0.87539 2.50882,-2.24573 3.19141,-3.98633c0.68006,-1.72411 0.83228,-3.44427 0.38281,-5.06055c-0.44947,-1.61628 -1.47376,-3.08893 -2.97461,-4.42773c-0.00065,-0.00065 -0.0013,-0.0013 -0.00195,-0.00195c2.03653,-2.91501 4.55916,-5.5052 7.50195,-7.69336c0.00327,-0.00258 0.00653,-0.00519 0.00977,-0.00781h0.00195c0.00065,-0.00065 0.0013,-0.0013 0.00195,-0.00195c0.01451,-0.01115 0.00915,0.00271 0.00195,0.00391c1.4904,1.58202 3.10006,2.61604 4.84375,2.98047c1.7493,0.3656 3.5754,0.03222 5.37695,-0.89258c0.00065,0 0.0013,0 0.00195,0c3.03564,-1.56624 4.54501,-4.5551 4.28906,-8.28516c1.77196,-0.31482 3.56493,-0.48316 5.36523,-0.50195zM47.11914,26.17188c-0.01176,0.00089 -0.02349,0.00219 -0.03516,0.00391c-11.87915,1.43894 -21.08398,11.56211 -21.08398,23.82422c0,13.24921 10.75079,24 24,24c13.24921,0 24,-10.75079 24,-24c0,-10.14083 -6.29474,-18.81937 -15.19336,-22.33203c-0.1675,-0.07253 -0.3612,-0.04803 -0.50537,0.06391c-0.14417,0.11194 -0.21589,0.29354 -0.18713,0.47378c0.02877,0.18024 0.15346,0.33049 0.32531,0.39199c8.52538,3.36533 14.56055,11.67518 14.56055,21.40234c0,12.70879 -10.29121,23 -23,23c-12.70879,0 -23,-10.29121 -23,-23c0,-11.76189 8.82023,-21.45297 20.20508,-22.83203c0.26969,-0.03 0.46624,-0.26962 0.44291,-0.53997c-0.02332,-0.27035 -0.25801,-0.47276 -0.52885,-0.45613zM54.83594,26.50586c-0.2541,0.01405 -0.45712,0.21671 -0.47162,0.47079c-0.0145,0.25408 0.16413,0.47852 0.41498,0.5214c0.44346,0.09398 0.88262,0.19988 1.31641,0.31836c0.26643,0.07281 0.54145,-0.08415 0.61426,-0.35059c0.07281,-0.26643 -0.08415,-0.54145 -0.35059,-0.61426c-0.45221,-0.12352 -0.91051,-0.23401 -1.37305,-0.33203c-0.03266,-0.00789 -0.06603,-0.01247 -0.09961,-0.01367c-0.01692,-0.00086 -0.03386,-0.00086 -0.05078,0zM50,32c-1.23,0 -2.43113,0.12498 -3.5918,0.35938c-0.14778,0.0296 -0.27432,0.12427 -0.34444,0.25768c-0.07012,0.13341 -0.07632,0.29133 -0.01689,0.42982l2.24023,5.22461c0.06289,0.17465 0.21736,0.30009 0.40121,0.32581c0.18384,0.02571 0.3668,-0.05253 0.4752,-0.20322c0.1084,-0.15069 0.1244,-0.34904 0.04156,-0.51516l-1.9707,-4.60156c0.90504,-0.149 1.81889,-0.27734 2.76563,-0.27734c8.88934,0 16.10817,6.83177 16.86523,15.52344l-9.2832,-1.06055c-0.96075,-2.86402 -3.49791,-5.00448 -6.57812,-5.39258l-0.63086,-1.4707c-0.07888,-0.19046 -0.26656,-0.31299 -0.47266,-0.30859c-0.16754,0.00323 -0.32233,0.09018 -0.41227,0.23157c-0.08994,0.14139 -0.10308,0.31844 -0.035,0.47156l0.43359,1.01172c-2.15979,0.03046 -4.1159,0.9157 -5.53906,2.33789l-3.82031,-8.94922c-0.08063,-0.19028 -0.27001,-0.31136 -0.47656,-0.30469c-0.09577,0.00305 -0.18865,0.03356 -0.26758,0.08789c-4.70229,3.24697 -7.7832,8.67818 -7.7832,14.82227c0,4.75124 1.84337,9.07807 4.85352,12.29492c0.10007,0.10746 0.24231,0.1655 0.389,0.15873c0.14668,-0.00677 0.28297,-0.07767 0.37272,-0.19389l5.88086,-7.61719c1.15754,1.61705 2.89629,2.79114 4.91406,3.19922l-5.94922,7.83594c-0.09266,0.12145 -0.12472,0.2786 -0.08704,0.42664c0.03768,0.14804 0.14096,0.27074 0.2804,0.33313c0.94223,0.42174 1.92764,0.76529 2.94727,1.02148c0.17341,0.04363 0.35692,-0.00857 0.4814,-0.13693c0.12448,-0.12837 0.17102,-0.3134 0.12208,-0.48538c-0.04894,-0.17198 -0.18592,-0.30479 -0.35934,-0.34839c-0.75165,-0.18886 -1.4653,-0.46649 -2.17383,-0.75195l5.89063,-7.75781c0.14582,0.00794 0.28973,0.02148 0.4375,0.02148c2.40159,0 4.55404,-1.06788 6.02148,-2.74805l9.66602,1.11523c-2.2309,5.48168 -7.17557,9.57586 -13.2168,10.45508c-0.17691,0.02545 -0.3268,0.14335 -0.3932,0.30929c-0.0664,0.16594 -0.03922,0.35469 0.07129,0.49516c0.11052,0.14046 0.28758,0.21129 0.46448,0.18579c6.6365,-0.96585 12.09823,-5.55067 14.31836,-11.68945c0.05167,-0.14352 0.03501,-0.30279 -0.04526,-0.4325c-0.08027,-0.12972 -0.21535,-0.2157 -0.36685,-0.23351l-9.79883,-1.13086c0.80636,-1.24858 1.2793,-2.73196 1.2793,-4.32617c0,-0.51223 -0.05215,-1.01237 -0.14453,-1.49805l9.54102,1.08984c0.14593,0.0168 0.29188,-0.03141 0.39908,-0.13184c0.1072,-0.10043 0.16482,-0.24292 0.15756,-0.38964c-0.48735,-9.50224 -8.33224,-17.07031 -17.95312,-17.07031zM39.87695,36.41992l3.74414,8.76953c-1.01345,1.34052 -1.62109,3.00373 -1.62109,4.81055c0,1.3497 0.33934,2.62004 0.93164,3.73633l-5.71484,7.4043c-2.60544,-2.98714 -4.2168,-6.86319 -4.2168,-11.14062c0,-5.58188 2.72711,-10.4805 6.87695,-13.58008zM50,43c0.19783,0 0.39231,0.01328 0.58594,0.0293c0.02913,0.00388 0.05854,0.00519 0.08789,0.00391h0.00195c2.87918,0.27477 5.24126,2.28673 6.03516,4.97852c0.00415,0.02383 0.01003,0.04733 0.01758,0.07031c0.17304,0.60997 0.27148,1.25182 0.27148,1.91797c0,1.6393 -0.56342,3.1423 -1.50391,4.33398c-0.05868,0.0468 -0.10608,0.10621 -0.13867,0.17383c-1.28309,1.52391 -3.20488,2.49219 -5.35742,2.49219c-0.19717,0 -0.39099,-0.01339 -0.58398,-0.0293c-0.02451,-0.00445 -0.04932,-0.00706 -0.07422,-0.00781c-0.01955,-0.0005 -0.03912,0.00016 -0.05859,0.00195c-2.25273,-0.2281 -4.17899,-1.52598 -5.28516,-3.37305c-0.02166,-0.05448 -0.05273,-0.10472 -0.0918,-0.14844c-0.57471,-1.01662 -0.90625,-2.18997 -0.90625,-3.44336c0,-1.66937 0.58282,-3.19865 1.55469,-4.40039c0.01952,-0.02122 0.03716,-0.0441 0.05273,-0.06836c1.28299,-1.54716 3.22111,-2.53125 5.39258,-2.53125zM50,46.5c-1.125,0 -2.03141,0.43988 -2.62305,1.10547c-0.59164,0.66559 -0.87695,1.53342 -0.87695,2.39453c0,0.86111 0.28532,1.72894 0.87695,2.39453c0.59164,0.66559 1.49805,1.10547 2.62305,1.10547c1.125,0 2.03141,-0.43988 2.62305,-1.10547c0.59164,-0.66559 0.87695,-1.53342 0.87695,-2.39453c0,-0.86111 -0.28532,-1.72894 -0.87695,-2.39453c-0.59164,-0.66559 -1.49805,-1.10547 -2.62305,-1.10547zM50,47.5c0.875,0 1.46859,0.31012 1.87695,0.76953c0.40836,0.45941 0.62305,1.09158 0.62305,1.73047c0,0.63889 -0.21468,1.27106 -0.62305,1.73047c-0.40836,0.45941 -1.00195,0.76953 -1.87695,0.76953c-0.875,0 -1.46859,-0.31012 -1.87695,-0.76953c-0.40836,-0.45941 -0.62305,-1.09158 -0.62305,-1.73047c0,-0.63889 0.21468,-1.27106 0.62305,-1.73047c0.40836,-0.45941 1.00195,-0.76953 1.87695,-0.76953zM48.08984,66.89648c-0.27025,-0.00724 -0.49732,0.20162 -0.51264,0.47154c-0.01532,0.26991 0.18666,0.50313 0.456,0.52651c0.41862,0.04526 0.83928,0.07536 1.26563,0.0918c0.18397,0.01658 0.36209,-0.0696 0.46326,-0.22414c0.10117,-0.15454 0.10891,-0.35227 0.02013,-0.51424c-0.08878,-0.16198 -0.25963,-0.26182 -0.44433,-0.25966c-0.40366,-0.01556 -0.80188,-0.04515 -1.19727,-0.08789c-0.01685,-0.00216 -0.0338,-0.00347 -0.05078,-0.00391z"></path></g></g></svg>