<svg xmlns="http://www.w3.org/2000/svg"  viewBox="0 0 32 32" width="32px" height="32px"><line x1="16.5" x2="10.5" y1="4.5" y2="4.5" fill="none" stroke="#455A64" stroke-linecap="round" stroke-linejoin="round" stroke-miterlimit="10"/><path fill="none" stroke="#455A64" stroke-linecap="round" stroke-linejoin="round" stroke-miterlimit="10" d="M11.5,30.5h18c0.553,0,1-0.448,1-1v-24c0-0.552-0.447-1-1-1h-6"/><polyline fill="none" stroke="#455A64" stroke-linecap="round" stroke-linejoin="round" stroke-miterlimit="10" points="11.5,12.5 11.5,28.5 23.5,28.5"/><line x1="14.5" x2="11.5" y1="6.5" y2="6.5" fill="none" stroke="#455A64" stroke-linecap="round" stroke-linejoin="round" stroke-miterlimit="10"/><circle cx="6" cy="4" r="2.5" fill="none" stroke="#455A64" stroke-linecap="round" stroke-linejoin="round" stroke-miterlimit="10"/><path fill="none" stroke="#455A64" stroke-linecap="round" stroke-linejoin="round" stroke-miterlimit="10" d="M9.5,30.5v-20h9c0.553,0,1-0.447,1-1l0,0c0-0.553-0.447-1-1-1c-2.214,0-8.42,0-9.5,0H4.5c-1.657,0-3,1.343-3,3v7 c0,0.55,0.45,1,1,1s1-0.45,1-1l-2,12"/><line x1="3.5" x2="3.5" y1="12.5" y2="18.5" fill="none" stroke="#455A64" stroke-linecap="round" stroke-linejoin="round" stroke-miterlimit="10"/><polyline fill="none" stroke="#455A64" stroke-linecap="round" stroke-linejoin="round" stroke-miterlimit="10" points="7.5,30.5 6.5,19 3.5,30.5"/><polyline fill="none" stroke="#455A64" stroke-linecap="round" stroke-linejoin="round" stroke-miterlimit="10" points="25.5,6.5 28.5,6.5 28.5,23.5"/><path fill="none" stroke="#455A64" stroke-linecap="round" stroke-linejoin="round" stroke-miterlimit="10" d="M16.5,6.5v-2c0-0.552,0.447-1,1-1h5c0.553,0,1,0.448,1,1v2H16.5z"/><path fill="none" stroke="#455A64" stroke-linecap="round" stroke-linejoin="round" stroke-miterlimit="10" d="M18.586,3.503C18.53,3.346,18.5,3.176,18.5,3c0-0.829,0.672-1.5,1.5-1.5s1.5,0.671,1.5,1.5c0,0.176-0.03,0.344-0.086,0.5"/><line x1="18.5" x2="21" y1="23.5" y2="23.5" fill="none" stroke="#455A64" stroke-linecap="round" stroke-linejoin="round" stroke-miterlimit="10"/><polyline fill="none" stroke="#455A64" stroke-linecap="round" stroke-linejoin="round" stroke-miterlimit="10" points="13.5,23.1 14.6,24.5 16.6,22.438"/><line x1="18.5" x2="25.5" y1="18.5" y2="18.5" fill="none" stroke="#455A64" stroke-linecap="round" stroke-linejoin="round" stroke-miterlimit="10"/><polyline fill="none" stroke="#455A64" stroke-linecap="round" stroke-linejoin="round" stroke-miterlimit="10" points="13.5,18.1 14.6,19.5 16.6,17.438"/><line x1="18.5" x2="25.5" y1="13.5" y2="13.5" fill="none" stroke="#455A64" stroke-linecap="round" stroke-linejoin="round" stroke-miterlimit="10"/><polyline fill="none" stroke="#455A64" stroke-linecap="round" stroke-linejoin="round" stroke-miterlimit="10" points="13.5,13.1 14.6,14.5 16.6,12.438"/><polyline fill="none" stroke="#455A64" stroke-linecap="round" stroke-linejoin="round" stroke-miterlimit="10" points="26,23.5 23.5,23.5 23.5,28.5 28.5,23.5"/><g><line x1="16.5" x2="10.5" y1="4.5" y2="4.5" fill="none" stroke="#455A64" stroke-linecap="round" stroke-linejoin="round" stroke-miterlimit="10"/><path fill="none" stroke="#455A64" stroke-linecap="round" stroke-linejoin="round" stroke-miterlimit="10" d="M11.5,30.5h18c0.553,0,1-0.448,1-1v-24c0-0.552-0.447-1-1-1h-6"/><polyline fill="none" stroke="#455A64" stroke-linecap="round" stroke-linejoin="round" stroke-miterlimit="10" points="11.5,12.5 11.5,28.5 23.5,28.5"/><line x1="14.5" x2="11.5" y1="6.5" y2="6.5" fill="none" stroke="#455A64" stroke-linecap="round" stroke-linejoin="round" stroke-miterlimit="10"/><circle cx="6" cy="4" r="2.5" fill="none" stroke="#455A64" stroke-linecap="round" stroke-linejoin="round" stroke-miterlimit="10"/><path fill="none" stroke="#455A64" stroke-linecap="round" stroke-linejoin="round" stroke-miterlimit="10" d="M9.5,30.5v-20h9c0.553,0,1-0.447,1-1l0,0c0-0.553-0.447-1-1-1c-2.214,0-8.42,0-9.5,0H4.5c-1.657,0-3,1.343-3,3v7 c0,0.55,0.45,1,1,1s1-0.45,1-1l-2,12"/><line x1="3.5" x2="3.5" y1="12.5" y2="18.5" fill="none" stroke="#455A64" stroke-linecap="round" stroke-linejoin="round" stroke-miterlimit="10"/><polyline fill="none" stroke="#455A64" stroke-linecap="round" stroke-linejoin="round" stroke-miterlimit="10" points="7.5,30.5 6.5,19 3.5,30.5"/><polyline fill="none" stroke="#455A64" stroke-linecap="round" stroke-linejoin="round" stroke-miterlimit="10" points="25.5,6.5 28.5,6.5 28.5,23.5"/><path fill="none" stroke="#455A64" stroke-linecap="round" stroke-linejoin="round" stroke-miterlimit="10" d="M16.5,6.5v-2c0-0.552,0.447-1,1-1h5c0.553,0,1,0.448,1,1v2H16.5z"/><path fill="none" stroke="#455A64" stroke-linecap="round" stroke-linejoin="round" stroke-miterlimit="10" d="M18.586,3.503C18.53,3.346,18.5,3.176,18.5,3c0-0.829,0.672-1.5,1.5-1.5s1.5,0.671,1.5,1.5c0,0.176-0.03,0.344-0.086,0.5"/><line x1="18.5" x2="21" y1="23.5" y2="23.5" fill="none" stroke="#455A64" stroke-linecap="round" stroke-linejoin="round" stroke-miterlimit="10"/><polyline fill="none" stroke="#455A64" stroke-linecap="round" stroke-linejoin="round" stroke-miterlimit="10" points="13.5,23.1 14.6,24.5 16.6,22.438"/><line x1="18.5" x2="25.5" y1="18.5" y2="18.5" fill="none" stroke="#455A64" stroke-linecap="round" stroke-linejoin="round" stroke-miterlimit="10"/><polyline fill="none" stroke="#455A64" stroke-linecap="round" stroke-linejoin="round" stroke-miterlimit="10" points="13.5,18.1 14.6,19.5 16.6,17.438"/><line x1="18.5" x2="25.5" y1="13.5" y2="13.5" fill="none" stroke="#455A64" stroke-linecap="round" stroke-linejoin="round" stroke-miterlimit="10"/><polyline fill="none" stroke="#455A64" stroke-linecap="round" stroke-linejoin="round" stroke-miterlimit="10" points="13.5,13.1 14.6,14.5 16.6,12.438"/><polyline fill="none" stroke="#455A64" stroke-linecap="round" stroke-linejoin="round" stroke-miterlimit="10" points="26,23.5 23.5,23.5 23.5,28.5 28.5,23.5"/></g><g><line x1="16.5" x2="10.5" y1="4.5" y2="4.5" fill="none" stroke="#263238" stroke-linecap="round" stroke-linejoin="round" stroke-miterlimit="10"/><path fill="none" stroke="#263238" stroke-linecap="round" stroke-linejoin="round" stroke-miterlimit="10" d="M11.5,30.5h18c0.553,0,1-0.448,1-1v-24c0-0.552-0.447-1-1-1h-6"/><polyline fill="none" stroke="#263238" stroke-linecap="round" stroke-linejoin="round" stroke-miterlimit="10" points="11.5,12.5 11.5,28.5 23.5,28.5"/><line x1="14.5" x2="11.5" y1="6.5" y2="6.5" fill="none" stroke="#263238" stroke-linecap="round" stroke-linejoin="round" stroke-miterlimit="10"/><circle cx="6" cy="4" r="2.5" fill="none" stroke="#263238" stroke-linecap="round" stroke-linejoin="round" stroke-miterlimit="10"/><path fill="none" stroke="#263238" stroke-linecap="round" stroke-linejoin="round" stroke-miterlimit="10" d="M9.5,30.5v-20h9c0.553,0,1-0.447,1-1l0,0c0-0.553-0.447-1-1-1c-2.214,0-8.42,0-9.5,0H4.5c-1.657,0-3,1.343-3,3v7 c0,0.55,0.45,1,1,1s1-0.45,1-1l-2,12"/><line x1="3.5" x2="3.5" y1="12.5" y2="18.5" fill="none" stroke="#263238" stroke-linecap="round" stroke-linejoin="round" stroke-miterlimit="10"/><polyline fill="none" stroke="#263238" stroke-linecap="round" stroke-linejoin="round" stroke-miterlimit="10" points="7.5,30.5 6.5,19 3.5,30.5"/><polyline fill="none" stroke="#263238" stroke-linecap="round" stroke-linejoin="round" stroke-miterlimit="10" points="25.5,6.5 28.5,6.5 28.5,23.5"/><path fill="none" stroke="#263238" stroke-linecap="round" stroke-linejoin="round" stroke-miterlimit="10" d="M16.5,6.5v-2c0-0.552,0.447-1,1-1h5c0.553,0,1,0.448,1,1v2H16.5z"/><path fill="none" stroke="#263238" stroke-linecap="round" stroke-linejoin="round" stroke-miterlimit="10" d="M18.586,3.503C18.53,3.346,18.5,3.176,18.5,3c0-0.829,0.672-1.5,1.5-1.5s1.5,0.671,1.5,1.5c0,0.176-0.03,0.344-0.086,0.5"/><line x1="18.5" x2="21" y1="23.5" y2="23.5" fill="none" stroke="#263238" stroke-linecap="round" stroke-linejoin="round" stroke-miterlimit="10"/><polyline fill="none" stroke="#263238" stroke-linecap="round" stroke-linejoin="round" stroke-miterlimit="10" points="13.5,23.1 14.6,24.5 16.6,22.438"/><line x1="18.5" x2="25.5" y1="18.5" y2="18.5" fill="none" stroke="#263238" stroke-linecap="round" stroke-linejoin="round" stroke-miterlimit="10"/><polyline fill="none" stroke="#263238" stroke-linecap="round" stroke-linejoin="round" stroke-miterlimit="10" points="13.5,18.1 14.6,19.5 16.6,17.438"/><line x1="18.5" x2="25.5" y1="13.5" y2="13.5" fill="none" stroke="#263238" stroke-linecap="round" stroke-linejoin="round" stroke-miterlimit="10"/><polyline fill="none" stroke="#263238" stroke-linecap="round" stroke-linejoin="round" stroke-miterlimit="10" points="13.5,13.1 14.6,14.5 16.6,12.438"/><polyline fill="none" stroke="#263238" stroke-linecap="round" stroke-linejoin="round" stroke-miterlimit="10" points="26,23.5 23.5,23.5 23.5,28.5 28.5,23.5"/><g><line x1="16.5" x2="10.5" y1="4.5" y2="4.5" fill="none" stroke="#263238" stroke-linecap="round" stroke-linejoin="round" stroke-miterlimit="10"/><path fill="none" stroke="#263238" stroke-linecap="round" stroke-linejoin="round" stroke-miterlimit="10" d="M11.5,30.5h18c0.553,0,1-0.448,1-1v-24c0-0.552-0.447-1-1-1h-6"/><polyline fill="none" stroke="#263238" stroke-linecap="round" stroke-linejoin="round" stroke-miterlimit="10" points="11.5,12.5 11.5,28.5 23.5,28.5"/><line x1="14.5" x2="11.5" y1="6.5" y2="6.5" fill="none" stroke="#263238" stroke-linecap="round" stroke-linejoin="round" stroke-miterlimit="10"/><circle cx="6" cy="4" r="2.5" fill="none" stroke="#263238" stroke-linecap="round" stroke-linejoin="round" stroke-miterlimit="10"/><path fill="none" stroke="#263238" stroke-linecap="round" stroke-linejoin="round" stroke-miterlimit="10" d="M9.5,30.5v-20h9c0.553,0,1-0.447,1-1l0,0c0-0.553-0.447-1-1-1c-2.214,0-8.42,0-9.5,0H4.5c-1.657,0-3,1.343-3,3v7 c0,0.55,0.45,1,1,1s1-0.45,1-1l-2,12"/><line x1="3.5" x2="3.5" y1="12.5" y2="18.5" fill="none" stroke="#263238" stroke-linecap="round" stroke-linejoin="round" stroke-miterlimit="10"/><polyline fill="none" stroke="#263238" stroke-linecap="round" stroke-linejoin="round" stroke-miterlimit="10" points="7.5,30.5 6.5,19 3.5,30.5"/><polyline fill="none" stroke="#263238" stroke-linecap="round" stroke-linejoin="round" stroke-miterlimit="10" points="25.5,6.5 28.5,6.5 28.5,23.5"/><path fill="none" stroke="#263238" stroke-linecap="round" stroke-linejoin="round" stroke-miterlimit="10" d="M16.5,6.5v-2c0-0.552,0.447-1,1-1h5c0.553,0,1,0.448,1,1v2H16.5z"/><path fill="none" stroke="#263238" stroke-linecap="round" stroke-linejoin="round" stroke-miterlimit="10" d="M18.586,3.503C18.53,3.346,18.5,3.176,18.5,3c0-0.829,0.672-1.5,1.5-1.5s1.5,0.671,1.5,1.5c0,0.176-0.03,0.344-0.086,0.5"/><line x1="18.5" x2="21" y1="23.5" y2="23.5" fill="none" stroke="#263238" stroke-linecap="round" stroke-linejoin="round" stroke-miterlimit="10"/><polyline fill="none" stroke="#263238" stroke-linecap="round" stroke-linejoin="round" stroke-miterlimit="10" points="13.5,23.1 14.6,24.5 16.6,22.438"/><line x1="18.5" x2="25.5" y1="18.5" y2="18.5" fill="none" stroke="#263238" stroke-linecap="round" stroke-linejoin="round" stroke-miterlimit="10"/><polyline fill="none" stroke="#263238" stroke-linecap="round" stroke-linejoin="round" stroke-miterlimit="10" points="13.5,18.1 14.6,19.5 16.6,17.438"/><line x1="18.5" x2="25.5" y1="13.5" y2="13.5" fill="none" stroke="#263238" stroke-linecap="round" stroke-linejoin="round" stroke-miterlimit="10"/><polyline fill="none" stroke="#263238" stroke-linecap="round" stroke-linejoin="round" stroke-miterlimit="10" points="13.5,13.1 14.6,14.5 16.6,12.438"/><polyline fill="none" stroke="#263238" stroke-linecap="round" stroke-linejoin="round" stroke-miterlimit="10" points="26,23.5 23.5,23.5 23.5,28.5 28.5,23.5"/></g><g><line x1="16.5" x2="10.5" y1="4.5" y2="4.5" fill="none" stroke="#263238" stroke-linecap="round" stroke-linejoin="round" stroke-miterlimit="10"/><path fill="none" stroke="#263238" stroke-linecap="round" stroke-linejoin="round" stroke-miterlimit="10" d="M11.5,30.5h18c0.553,0,1-0.448,1-1v-24c0-0.552-0.447-1-1-1h-6"/><polyline fill="none" stroke="#263238" stroke-linecap="round" stroke-linejoin="round" stroke-miterlimit="10" points="11.5,12.5 11.5,28.5 23.5,28.5"/><line x1="14.5" x2="11.5" y1="6.5" y2="6.5" fill="none" stroke="#263238" stroke-linecap="round" stroke-linejoin="round" stroke-miterlimit="10"/><circle cx="6" cy="4" r="2.5" fill="none" stroke="#263238" stroke-linecap="round" stroke-linejoin="round" stroke-miterlimit="10"/><path fill="none" stroke="#263238" stroke-linecap="round" stroke-linejoin="round" stroke-miterlimit="10" d="M9.5,30.5v-20h9c0.553,0,1-0.447,1-1l0,0c0-0.553-0.447-1-1-1c-2.214,0-8.42,0-9.5,0H4.5c-1.657,0-3,1.343-3,3v7 c0,0.55,0.45,1,1,1s1-0.45,1-1l-2,12"/><line x1="3.5" x2="3.5" y1="12.5" y2="18.5" fill="none" stroke="#263238" stroke-linecap="round" stroke-linejoin="round" stroke-miterlimit="10"/><polyline fill="none" stroke="#263238" stroke-linecap="round" stroke-linejoin="round" stroke-miterlimit="10" points="7.5,30.5 6.5,19 3.5,30.5"/><polyline fill="none" stroke="#263238" stroke-linecap="round" stroke-linejoin="round" stroke-miterlimit="10" points="25.5,6.5 28.5,6.5 28.5,23.5"/><path fill="none" stroke="#263238" stroke-linecap="round" stroke-linejoin="round" stroke-miterlimit="10" d="M16.5,6.5v-2c0-0.552,0.447-1,1-1h5c0.553,0,1,0.448,1,1v2H16.5z"/><path fill="none" stroke="#263238" stroke-linecap="round" stroke-linejoin="round" stroke-miterlimit="10" d="M18.586,3.503C18.53,3.346,18.5,3.176,18.5,3c0-0.829,0.672-1.5,1.5-1.5s1.5,0.671,1.5,1.5c0,0.176-0.03,0.344-0.086,0.5"/><line x1="18.5" x2="21" y1="23.5" y2="23.5" fill="none" stroke="#263238" stroke-linecap="round" stroke-linejoin="round" stroke-miterlimit="10"/><polyline fill="none" stroke="#263238" stroke-linecap="round" stroke-linejoin="round" stroke-miterlimit="10" points="13.5,23.1 14.6,24.5 16.6,22.438"/><line x1="18.5" x2="25.5" y1="18.5" y2="18.5" fill="none" stroke="#263238" stroke-linecap="round" stroke-linejoin="round" stroke-miterlimit="10"/><polyline fill="none" stroke="#263238" stroke-linecap="round" stroke-linejoin="round" stroke-miterlimit="10" points="13.5,18.1 14.6,19.5 16.6,17.438"/><line x1="18.5" x2="25.5" y1="13.5" y2="13.5" fill="none" stroke="#263238" stroke-linecap="round" stroke-linejoin="round" stroke-miterlimit="10"/><polyline fill="none" stroke="#263238" stroke-linecap="round" stroke-linejoin="round" stroke-miterlimit="10" points="13.5,13.1 14.6,14.5 16.6,12.438"/><polyline fill="none" stroke="#263238" stroke-linecap="round" stroke-linejoin="round" stroke-miterlimit="10" points="26,23.5 23.5,23.5 23.5,28.5 28.5,23.5"/></g></g></svg>