<svg xmlns="http://www.w3.org/2000/svg" xmlns:xlink="http://www.w3.org/1999/xlink" viewBox="0,0,256,256" width="32px" height="32px" fill-rule="nonzero"><g fill="none" fill-rule="nonzero" stroke="#82fd6e" stroke-width="1" stroke-linecap="round" stroke-linejoin="round" stroke-miterlimit="10" stroke-dasharray="" stroke-dashoffset="0" font-family="none" font-weight="none" font-size="none" text-anchor="none" style="mix-blend-mode: normal"><g transform="scale(8,8)"><path d="M16.5,4.5h-6"></path><path d="M11.5,30.5h18c0.553,0 1,-0.448 1,-1v-24c0,-0.552 -0.447,-1 -1,-1h-6"></path><path d="M11.5,12.5v16h12"></path><path d="M14.5,6.5h-3"></path><circle cx="6" cy="4" r="2.5"></circle><path d="M9.5,30.5v-20h9c0.553,0 1,-0.447 1,-1v0c0,-0.553 -0.447,-1 -1,-1c-2.214,0 -8.42,0 -9.5,0h-4.5c-1.657,0 -3,1.343 -3,3v7c0,0.55 0.45,1 1,1c0.55,0 1,-0.45 1,-1l-2,12"></path><path d="M3.5,12.5v6"></path><path d="M7.5,30.5l-1,-11.5l-3,11.5"></path><path d="M25.5,6.5h3v17"></path><path d="M16.5,6.5v-2c0,-0.552 0.447,-1 1,-1h5c0.553,0 1,0.448 1,1v2z"></path><path d="M18.586,3.503c-0.056,-0.157 -0.086,-0.327 -0.086,-0.503c0,-0.829 0.672,-1.5 1.5,-1.5c0.828,0 1.5,0.671 1.5,1.5c0,0.176 -0.03,0.344 -0.086,0.5"></path><path d="M18.5,23.5h2.5"></path><path d="M13.5,23.1l1.1,1.4l2,-2.062"></path><path d="M18.5,18.5h7"></path><path d="M13.5,18.1l1.1,1.4l2,-2.062"></path><path d="M18.5,13.5h7"></path><path d="M13.5,13.1l1.1,1.4l2,-2.062"></path><path d="M26,23.5h-2.5v5l5,-5"></path><g><path d="M16.5,4.5h-6"></path><path d="M11.5,30.5h18c0.553,0 1,-0.448 1,-1v-24c0,-0.552 -0.447,-1 -1,-1h-6"></path><path d="M11.5,12.5v16h12"></path><path d="M14.5,6.5h-3"></path><circle cx="6" cy="4" r="2.5"></circle><path d="M9.5,30.5v-20h9c0.553,0 1,-0.447 1,-1v0c0,-0.553 -0.447,-1 -1,-1c-2.214,0 -8.42,0 -9.5,0h-4.5c-1.657,0 -3,1.343 -3,3v7c0,0.55 0.45,1 1,1c0.55,0 1,-0.45 1,-1l-2,12"></path><path d="M3.5,12.5v6"></path><path d="M7.5,30.5l-1,-11.5l-3,11.5"></path><path d="M25.5,6.5h3v17"></path><path d="M16.5,6.5v-2c0,-0.552 0.447,-1 1,-1h5c0.553,0 1,0.448 1,1v2z"></path><path d="M18.586,3.503c-0.056,-0.157 -0.086,-0.327 -0.086,-0.503c0,-0.829 0.672,-1.5 1.5,-1.5c0.828,0 1.5,0.671 1.5,1.5c0,0.176 -0.03,0.344 -0.086,0.5"></path><path d="M18.5,23.5h2.5"></path><path d="M13.5,23.1l1.1,1.4l2,-2.062"></path><path d="M18.5,18.5h7"></path><path d="M13.5,18.1l1.1,1.4l2,-2.062"></path><path d="M18.5,13.5h7"></path><path d="M13.5,13.1l1.1,1.4l2,-2.062"></path><path d="M26,23.5h-2.5v5l5,-5"></path></g><g><path d="M16.5,4.5h-6"></path><path d="M11.5,30.5h18c0.553,0 1,-0.448 1,-1v-24c0,-0.552 -0.447,-1 -1,-1h-6"></path><path d="M11.5,12.5v16h12"></path><path d="M14.5,6.5h-3"></path><circle cx="6" cy="4" r="2.5"></circle><path d="M9.5,30.5v-20h9c0.553,0 1,-0.447 1,-1v0c0,-0.553 -0.447,-1 -1,-1c-2.214,0 -8.42,0 -9.5,0h-4.5c-1.657,0 -3,1.343 -3,3v7c0,0.55 0.45,1 1,1c0.55,0 1,-0.45 1,-1l-2,12"></path><path d="M3.5,12.5v6"></path><path d="M7.5,30.5l-1,-11.5l-3,11.5"></path><path d="M25.5,6.5h3v17"></path><path d="M16.5,6.5v-2c0,-0.552 0.447,-1 1,-1h5c0.553,0 1,0.448 1,1v2z"></path><path d="M18.586,3.503c-0.056,-0.157 -0.086,-0.327 -0.086,-0.503c0,-0.829 0.672,-1.5 1.5,-1.5c0.828,0 1.5,0.671 1.5,1.5c0,0.176 -0.03,0.344 -0.086,0.5"></path><path d="M18.5,23.5h2.5"></path><path d="M13.5,23.1l1.1,1.4l2,-2.062"></path><path d="M18.5,18.5h7"></path><path d="M13.5,18.1l1.1,1.4l2,-2.062"></path><path d="M18.5,13.5h7"></path><path d="M13.5,13.1l1.1,1.4l2,-2.062"></path><path d="M26,23.5h-2.5v5l5,-5"></path><g><path d="M16.5,4.5h-6"></path><path d="M11.5,30.5h18c0.553,0 1,-0.448 1,-1v-24c0,-0.552 -0.447,-1 -1,-1h-6"></path><path d="M11.5,12.5v16h12"></path><path d="M14.5,6.5h-3"></path><circle cx="6" cy="4" r="2.5"></circle><path d="M9.5,30.5v-20h9c0.553,0 1,-0.447 1,-1v0c0,-0.553 -0.447,-1 -1,-1c-2.214,0 -8.42,0 -9.5,0h-4.5c-1.657,0 -3,1.343 -3,3v7c0,0.55 0.45,1 1,1c0.55,0 1,-0.45 1,-1l-2,12"></path><path d="M3.5,12.5v6"></path><path d="M7.5,30.5l-1,-11.5l-3,11.5"></path><path d="M25.5,6.5h3v17"></path><path d="M16.5,6.5v-2c0,-0.552 0.447,-1 1,-1h5c0.553,0 1,0.448 1,1v2z"></path><path d="M18.586,3.503c-0.056,-0.157 -0.086,-0.327 -0.086,-0.503c0,-0.829 0.672,-1.5 1.5,-1.5c0.828,0 1.5,0.671 1.5,1.5c0,0.176 -0.03,0.344 -0.086,0.5"></path><path d="M18.5,23.5h2.5"></path><path d="M13.5,23.1l1.1,1.4l2,-2.062"></path><path d="M18.5,18.5h7"></path><path d="M13.5,18.1l1.1,1.4l2,-2.062"></path><path d="M18.5,13.5h7"></path><path d="M13.5,13.1l1.1,1.4l2,-2.062"></path><path d="M26,23.5h-2.5v5l5,-5"></path></g><g><path d="M16.5,4.5h-6"></path><path d="M11.5,30.5h18c0.553,0 1,-0.448 1,-1v-24c0,-0.552 -0.447,-1 -1,-1h-6"></path><path d="M11.5,12.5v16h12"></path><path d="M14.5,6.5h-3"></path><circle cx="6" cy="4" r="2.5"></circle><path d="M9.5,30.5v-20h9c0.553,0 1,-0.447 1,-1v0c0,-0.553 -0.447,-1 -1,-1c-2.214,0 -8.42,0 -9.5,0h-4.5c-1.657,0 -3,1.343 -3,3v7c0,0.55 0.45,1 1,1c0.55,0 1,-0.45 1,-1l-2,12"></path><path d="M3.5,12.5v6"></path><path d="M7.5,30.5l-1,-11.5l-3,11.5"></path><path d="M25.5,6.5h3v17"></path><path d="M16.5,6.5v-2c0,-0.552 0.447,-1 1,-1h5c0.553,0 1,0.448 1,1v2z"></path><path d="M18.586,3.503c-0.056,-0.157 -0.086,-0.327 -0.086,-0.503c0,-0.829 0.672,-1.5 1.5,-1.5c0.828,0 1.5,0.671 1.5,1.5c0,0.176 -0.03,0.344 -0.086,0.5"></path><path d="M18.5,23.5h2.5"></path><path d="M13.5,23.1l1.1,1.4l2,-2.062"></path><path d="M18.5,18.5h7"></path><path d="M13.5,18.1l1.1,1.4l2,-2.062"></path><path d="M18.5,13.5h7"></path><path d="M13.5,13.1l1.1,1.4l2,-2.062"></path><path d="M26,23.5h-2.5v5l5,-5"></path></g></g></g></g></svg>