<svg xmlns="http://www.w3.org/2000/svg" xmlns:xlink="http://www.w3.org/1999/xlink" viewBox="0,0,256,256" width="64px" height="64px" fill-rule="nonzero"><g fill="#82fd6e" fill-rule="nonzero" stroke="none" stroke-width="1" stroke-linecap="butt" stroke-linejoin="miter" stroke-miterlimit="10" stroke-dasharray="" stroke-dashoffset="0" font-family="none" font-weight="none" font-size="none" text-anchor="none" style="mix-blend-mode: normal"><g transform="scale(0.49231,0.49231)"><path d="M117.83203,25c-24.997,0 -45.33203,20.33503 -45.33203,45.33203v379.33594c0,24.997 20.33503,45.33203 45.33203,45.33203h179.33594c24.997,0 45.33203,-20.33698 45.33203,-45.33398v-44.66602h12.29492c2.476,0 4.57736,-1.81177 4.94336,-4.25977l5.34375,-35.72461c5.19,-0.98599 10.31745,-2.3557 15.31445,-4.0957l22.48829,28.22852c1.542,1.935 4.26229,2.45079 6.40429,1.21679l17.67774,-10.17968c2.147,-1.237 3.06425,-3.85807 2.15625,-6.16407l-13.23828,-33.61523c3.997,-3.459 7.75189,-7.21389 11.21289,-11.21289l33.61523,13.23828c2.308,0.908 4.92806,-0.00925 6.16406,-2.15625l10.17969,-17.67578c1.233,-2.143 0.7182,-4.86525 -1.2168,-6.40625l-28.23046,-22.49024c1.74,-4.997 3.11165,-10.12154 4.09765,-15.31054l35.68555,-5.34375c2.448,-0.367 4.25976,-2.47031 4.25976,-4.94531v-20.39844c-0.001,-2.474 -1.80886,-4.57436 -4.25586,-4.94336l-35.68945,-5.38086c-0.985,-5.189 -2.35665,-10.31645 -4.09765,-15.31445l28.23046,-22.49024c1.936,-1.542 2.45185,-4.26715 1.21485,-6.41015l-10.18164,-17.63672c-1.236,-2.142 -3.84925,-3.05835 -6.15625,-2.15235l-33.62696,13.20508c-3.473,-3.993 -7.22507,-7.73569 -11.20507,-11.17969l13.23828,-33.61523c0.906,-2.303 -0.00839,-4.92116 -2.15039,-6.16016l-17.67578,-10.21875c-2.143,-1.24 -4.87011,-0.72311 -6.41211,1.21289l-22.5,28.24219c-4.994,-1.72 -10.11483,-3.09075 -15.29883,-4.09375l-5.34766,-35.70117c-0.367,-2.448 -2.46836,-4.25781 -4.94336,-4.25781h-12.29492v-40.47852c0,-24.997 -20.33503,-45.33203 -45.33203,-45.33203zM117.83203,35h179.33594c19.482,0 35.33203,15.84903 35.33203,35.33203v14.66797h-250v-14.66797c0,-19.483 15.84903,-35.33203 35.33203,-35.33203zM187.16797,55c-2.761,0 -5,2.239 -5,5c0,2.761 2.239,5 5,5h40.33203c2.761,0 5,-2.239 5,-5c0,-2.761 -2.239,-5 -5,-5zM380,60c-4.14214,0 -7.5,3.35786 -7.5,7.5c0,4.14214 3.35786,7.5 7.5,7.5c4.14214,0 7.5,-3.35786 7.5,-7.5c0,-4.14214 -3.35786,-7.5 -7.5,-7.5zM442.5,60c-11.028,0 -20,8.972 -20,20c0,11.028 8.972,20 20,20c11.028,0 20,-8.972 20,-20c0,-11.028 -8.972,-20 -20,-20zM442.5,70c5.514,0 10,4.486 10,10c0,5.514 -4.486,10 -10,10c-5.514,0 -10,-4.486 -10,-10c0,-5.514 4.486,-10 10,-10zM82.5,95h250v330h-250zM102.5,110c-2.761,0 -5,2.239 -5,5v290c0,2.762 2.239,5 5,5h210c2.762,0 5,-2.238 5,-5v-290c0,-2.761 -2.238,-5 -5,-5zM60,120c-4.14214,0 -7.5,3.35786 -7.5,7.5c0,4.14214 3.35786,7.5 7.5,7.5c4.14214,0 7.5,-3.35786 7.5,-7.5c0,-4.14214 -3.35786,-7.5 -7.5,-7.5zM107.5,120h200v255h-65c-2.761,0 -5,2.238 -5,5c0,2.762 2.239,5 5,5h65v15h-200v-15h30c2.761,0 5,-2.238 5,-5c0,-2.762 -2.239,-5 -5,-5h-30zM342.5,120.80859h7.98633l5.24023,34.99805c0.323,2.155 2.00621,3.85427 4.15821,4.19727c6.949,1.109 13.80962,2.94212 20.39062,5.45312c2.033,0.775 4.33536,0.14731 5.69336,-1.55469l22.05273,-27.68164l10.21875,5.90821l-12.98046,32.96289c-0.8,2.032 -0.18824,4.3477 1.50976,5.7207c5.446,4.401 10.46874,9.41062 14.92774,14.89062c1.373,1.689 3.68303,2.29405 5.70703,1.49805l32.96093,-12.94531l5.87696,10.17969l-27.6836,22.05468c-1.71,1.362 -2.33687,3.6788 -1.54687,5.7168c2.541,6.563 4.37045,13.40585 5.43945,20.33985c0.333,2.162 2.03427,3.85659 4.19727,4.18359l35.00195,5.27539v11.79102l-34.99805,5.24023c-2.165,0.324 -3.86817,2.01959 -4.20117,4.18359c-1.069,6.935 -2.89845,13.77685 -5.43945,20.33985c-0.79,2.038 -0.16313,4.35479 1.54687,5.71679l27.6875,22.06055l-5.88281,10.21094l-32.95508,-12.97852c-2.028,-0.799 -4.3487,-0.18923 -5.7207,1.50977c-4.426,5.476 -9.44597,10.49401 -14.91797,14.91601c-1.698,1.372 -2.30976,3.68966 -1.50976,5.72266l12.97851,32.95508l-10.21094,5.88281l-22.05859,-27.68945c-1.363,-1.711 -3.6808,-2.33788 -5.7168,-1.54688c-6.56,2.54 -13.40279,4.37141 -20.34179,5.44141c-2.163,0.334 -3.8586,2.03617 -4.1836,4.20117l-5.24023,35.03711h-7.98633v-72.22266c36.135,1.262 67.00781,-27.92357 67.00781,-64.89257c0,-36.593 -30.45781,-66.14358 -67.00781,-64.89258zM470,125c-4.14214,0 -7.5,3.35786 -7.5,7.5c0,4.14214 3.35786,7.5 7.5,7.5c4.14214,0 7.5,-3.35786 7.5,-7.5c0,-4.14214 -3.35786,-7.5 -7.5,-7.5zM187.5,130c-2.76142,0 -5,2.23858 -5,5c0,2.76142 2.23858,5 5,5c2.76142,0 5,-2.23858 5,-5c0,-2.76142 -2.23858,-5 -5,-5zM202.5,130c-2.761,0 -5,2.239 -5,5c0,2.761 2.239,5 5,5h85c2.762,0 5,-2.239 5,-5c0,-2.761 -2.238,-5 -5,-5zM187.5,150c-2.76142,0 -5,2.23858 -5,5c0,2.76142 2.23858,5 5,5c2.76142,0 5,-2.23858 5,-5c0,-2.76142 -2.23858,-5 -5,-5zM202.5,150c-2.761,0 -5,2.239 -5,5c0,2.761 2.239,5 5,5h85c2.762,0 5,-2.239 5,-5c0,-2.761 -2.238,-5 -5,-5zM187.5,170c-2.76142,0 -5,2.23858 -5,5c0,2.76142 2.23858,5 5,5c2.76142,0 5,-2.23858 5,-5c0,-2.76142 -2.23858,-5 -5,-5zM202.5,170c-2.761,0 -5,2.239 -5,5c0,2.761 2.239,5 5,5h85c2.762,0 5,-2.239 5,-5c0,-2.761 -2.238,-5 -5,-5zM187.5,190c-2.76142,0 -5,2.23858 -5,5c0,2.76142 2.23858,5 5,5c2.76142,0 5,-2.23858 5,-5c0,-2.76142 -2.23858,-5 -5,-5zM202.5,190c-2.761,0 -5,2.239 -5,5c0,2.761 2.239,5 5,5h85c2.762,0 5,-2.239 5,-5c0,-2.761 -2.238,-5 -5,-5zM47.5,195c-11.028,0 -20,8.972 -20,20c0,11.028 8.972,20 20,20c11.028,0 20,-8.972 20,-20c0,-11.028 -8.972,-20 -20,-20zM345.40039,202.97656c29.79071,0.36477 54.10742,24.82561 54.10742,54.90821c0,31.291 -26.17481,56.12718 -57.00781,54.86718v-109.73437c0.97175,-0.039 1.9394,-0.05278 2.90039,-0.04102zM47.5,205c5.514,0 10,4.486 10,10c0,5.514 -4.486,10 -10,10c-5.514,0 -10,-4.486 -10,-10c0,-5.514 4.486,-10 10,-10zM187.5,210c-2.76142,0 -5,2.23858 -5,5c0,2.76142 2.23858,5 5,5c2.76142,0 5,-2.23858 5,-5c0,-2.76142 -2.23858,-5 -5,-5zM202.5,210c-2.761,0 -5,2.239 -5,5c0,2.761 2.239,5 5,5h85c2.762,0 5,-2.239 5,-5c0,-2.761 -2.238,-5 -5,-5zM216.46484,241.57617c-1.95389,0.07163 -3.768,1.29353 -4.5,3.23828l-3.0332,8.0625c-6.159,-1.633 -12.36752,-2.44531 -18.85352,-2.44531c-10.943,0 -19.23476,2.71927 -19.13476,2.69727c-0.004,0.001 -0.00672,0.0029 -0.01172,0.0039c-28.522,8.267 -48.43164,34.68111 -48.43164,64.28711c0,37.264 30.31512,67.58008 67.57812,67.58008c36.938,0 66.98829,-30.31608 66.98829,-67.58008c0,-7.378 -0.92338,-13.95544 -2.73438,-19.64844l7.71289,-2.81054c2.619,-0.955 3.95503,-3.87238 2.95703,-6.48438c-8.187,-21.411 -25.16126,-38.38626 -46.57226,-46.57226c-0.64725,-0.24725 -1.31355,-0.352 -1.96485,-0.32813zM219.49023,253.20703c15.033,7.015 27.15955,19.1312 34.18555,34.1582l-54.5,19.86133zM188.79102,260.44727c5.5845,-0.13203 11.20421,0.49203 16.60546,1.83203l-14.3164,38.06445l-12.25,-38.83203c3.27112,-0.63263 6.61023,-0.98524 9.96094,-1.06445zM169.20898,264.25195c17.275,54.732 16.59005,52.83263 16.99805,53.64063c0.213,0.422 0.47111,0.78876 0.78711,1.13476c0.042,0.045 0.07514,0.09663 0.11914,0.14063c0.016,0.017 0.03674,0.02697 0.05274,0.04297c0.601,0.591 1.42668,1.07497 2.30468,1.29297l55.15235,13.58984c-7.093,23.643 -28.85793,40.90625 -54.54493,40.90625c-31.74899,0 -57.57812,-25.83008 -57.57812,-57.58008c0,-23.59 14.87198,-44.79897 36.70898,-53.16797zM244.93359,301.19531c2.117,6.903 2.59289,15.65366 1.71289,23.09766l-38.83593,-9.57031zM50,350c-4.14214,0 -7.5,3.35786 -7.5,7.5c0,4.14214 3.35786,7.5 7.5,7.5c4.14214,0 7.5,-3.35786 7.5,-7.5c0,-4.14214 -3.35786,-7.5 -7.5,-7.5zM480,375c-4.14214,0 -7.5,3.35786 -7.5,7.5c0,4.14214 3.35786,7.5 7.5,7.5c4.14214,0 7.5,-3.35786 7.5,-7.5c0,-4.14214 -3.35786,-7.5 -7.5,-7.5zM412.5,410c-16.542,0 -30,13.458 -30,30c0,16.542 13.458,30 30,30c16.542,0 30,-13.458 30,-30c0,-16.542 -13.458,-30 -30,-30zM412.5,420c11.028,0 20,8.972 20,20c0,11.028 -8.972,20 -20,20c-11.028,0 -20,-8.972 -20,-20c0,-11.028 8.972,-20 20,-20zM82.5,435h250v14.66602c0,19.483 -15.85003,35.33398 -35.33203,35.33398h-179.33594c-19.483,0 -35.33203,-15.85003 -35.33203,-35.33203zM207.5,440c-11.028,0 -20,8.972 -20,20c0,11.028 8.972,20 20,20c11.028,0 20,-8.972 20,-20c0,-11.028 -8.972,-20 -20,-20zM207.5,450c5.514,0 10,4.486 10,10c0,5.514 -4.486,10 -10,10c-5.514,0 -10,-4.486 -10,-10c0,-5.514 4.486,-10 10,-10zM370,455c-4.14214,0 -7.5,3.35786 -7.5,7.5c0,4.14214 3.35786,7.5 7.5,7.5c4.14214,0 7.5,-3.35786 7.5,-7.5c0,-4.14214 -3.35786,-7.5 -7.5,-7.5z"></path></g></g></svg>