<svg xmlns="http://www.w3.org/2000/svg"  viewBox="0 0 520 520" width="64px" height="64px"><path d="M 117.83203 25 C 92.835031 25 72.5 45.335031 72.5 70.332031 L 72.5 449.66797 C 72.5 474.66497 92.835031 495 117.83203 495 L 297.16797 495 C 322.16497 495 342.5 474.66302 342.5 449.66602 L 342.5 405 L 354.79492 405 C 357.27092 405 359.37228 403.18823 359.73828 400.74023 L 365.08203 365.01562 C 370.27203 364.02963 375.39948 362.65992 380.39648 360.91992 L 402.88477 389.14844 C 404.42677 391.08344 407.14706 391.59923 409.28906 390.36523 L 426.9668 380.18555 C 429.1138 378.94855 430.03105 376.32748 429.12305 374.02148 L 415.88477 340.40625 C 419.88177 336.94725 423.63666 333.19236 427.09766 329.19336 L 460.71289 342.43164 C 463.02089 343.33964 465.64095 342.42239 466.87695 340.27539 L 477.05664 322.59961 C 478.28964 320.45661 477.77484 317.73436 475.83984 316.19336 L 447.60938 293.70312 C 449.34938 288.70612 450.72103 283.58158 451.70703 278.39258 L 487.39258 273.04883 C 489.84058 272.68183 491.65234 270.57852 491.65234 268.10352 L 491.65234 247.70508 C 491.65134 245.23108 489.84348 243.13072 487.39648 242.76172 L 451.70703 237.38086 C 450.72203 232.19186 449.35038 227.06441 447.60938 222.06641 L 475.83984 199.57617 C 477.77584 198.03417 478.29169 195.30902 477.05469 193.16602 L 466.87305 175.5293 C 465.63705 173.3873 463.0238 172.47095 460.7168 173.37695 L 427.08984 186.58203 C 423.61684 182.58903 419.86477 178.84634 415.88477 175.40234 L 429.12305 141.78711 C 430.02905 139.48411 429.11466 136.86595 426.97266 135.62695 L 409.29688 125.4082 C 407.15388 124.1682 404.42677 124.68509 402.88477 126.62109 L 380.38477 154.86328 C 375.39077 153.14328 370.26994 151.77253 365.08594 150.76953 L 359.73828 115.06836 C 359.37128 112.62036 357.26992 110.81055 354.79492 110.81055 L 342.5 110.81055 L 342.5 70.332031 C 342.5 45.335031 322.16497 25 297.16797 25 L 117.83203 25 z M 117.83203 35 L 297.16797 35 C 316.64997 35 332.5 50.849031 332.5 70.332031 L 332.5 85 L 82.5 85 L 82.5 70.332031 C 82.5 50.849031 98.349031 35 117.83203 35 z M 187.16797 55 C 184.40697 55 182.16797 57.239 182.16797 60 C 182.16797 62.761 184.40697 65 187.16797 65 L 227.5 65 C 230.261 65 232.5 62.761 232.5 60 C 232.5 57.239 230.261 55 227.5 55 L 187.16797 55 z M 380 60 A 7.5 7.5 0 0 0 380 75 A 7.5 7.5 0 0 0 380 60 z M 442.5 60 C 431.472 60 422.5 68.972 422.5 80 C 422.5 91.028 431.472 100 442.5 100 C 453.528 100 462.5 91.028 462.5 80 C 462.5 68.972 453.528 60 442.5 60 z M 442.5 70 C 448.014 70 452.5 74.486 452.5 80 C 452.5 85.514 448.014 90 442.5 90 C 436.986 90 432.5 85.514 432.5 80 C 432.5 74.486 436.986 70 442.5 70 z M 82.5 95 L 332.5 95 L 332.5 425 L 82.5 425 L 82.5 95 z M 102.5 110 C 99.739 110 97.5 112.239 97.5 115 L 97.5 405 C 97.5 407.762 99.739 410 102.5 410 L 312.5 410 C 315.262 410 317.5 407.762 317.5 405 L 317.5 115 C 317.5 112.239 315.262 110 312.5 110 L 102.5 110 z M 60 120 A 7.5 7.5 0 0 0 60 135 A 7.5 7.5 0 0 0 60 120 z M 107.5 120 L 307.5 120 L 307.5 375 L 242.5 375 C 239.739 375 237.5 377.238 237.5 380 C 237.5 382.762 239.739 385 242.5 385 L 307.5 385 L 307.5 400 L 107.5 400 L 107.5 385 L 137.5 385 C 140.261 385 142.5 382.762 142.5 380 C 142.5 377.238 140.261 375 137.5 375 L 107.5 375 L 107.5 120 z M 342.5 120.80859 L 350.48633 120.80859 L 355.72656 155.80664 C 356.04956 157.96164 357.73277 159.66091 359.88477 160.00391 C 366.83377 161.11291 373.69439 162.94603 380.27539 165.45703 C 382.30839 166.23203 384.61075 165.60434 385.96875 163.90234 L 408.02148 136.2207 L 418.24023 142.12891 L 405.25977 175.0918 C 404.45977 177.1238 405.07153 179.4395 406.76953 180.8125 C 412.21553 185.2135 417.23827 190.22312 421.69727 195.70312 C 423.07027 197.39212 425.3803 197.99717 427.4043 197.20117 L 460.36523 184.25586 L 466.24219 194.43555 L 438.55859 216.49023 C 436.84859 217.85223 436.22172 220.16903 437.01172 222.20703 C 439.55272 228.77003 441.38217 235.61288 442.45117 242.54688 C 442.78417 244.70888 444.48544 246.40347 446.64844 246.73047 L 481.65039 252.00586 L 481.65039 263.79688 L 446.65234 269.03711 C 444.48734 269.36111 442.78417 271.0567 442.45117 273.2207 C 441.38217 280.1557 439.55272 286.99755 437.01172 293.56055 C 436.22172 295.59855 436.84859 297.91534 438.55859 299.27734 L 466.24609 321.33789 L 460.36328 331.54883 L 427.4082 318.57031 C 425.3802 317.77131 423.0595 318.38108 421.6875 320.08008 C 417.2615 325.55608 412.24153 330.57409 406.76953 334.99609 C 405.07153 336.36809 404.45977 338.68575 405.25977 340.71875 L 418.23828 373.67383 L 408.02734 379.55664 L 385.96875 351.86719 C 384.60575 350.15619 382.28795 349.52931 380.25195 350.32031 C 373.69195 352.86031 366.84916 354.69172 359.91016 355.76172 C 357.74716 356.09572 356.05156 357.79789 355.72656 359.96289 L 350.48633 395 L 342.5 395 L 342.5 322.77734 C 378.635 324.03934 409.50781 294.85377 409.50781 257.88477 C 409.50781 221.29177 379.05 191.74119 342.5 192.99219 L 342.5 120.80859 z M 470 125 A 7.5 7.5 0 0 0 470 140 A 7.5 7.5 0 0 0 470 125 z M 187.5 130 A 5 5 0 0 0 187.5 140 A 5 5 0 0 0 187.5 130 z M 202.5 130 C 199.739 130 197.5 132.239 197.5 135 C 197.5 137.761 199.739 140 202.5 140 L 287.5 140 C 290.262 140 292.5 137.761 292.5 135 C 292.5 132.239 290.262 130 287.5 130 L 202.5 130 z M 187.5 150 A 5 5 0 0 0 187.5 160 A 5 5 0 0 0 187.5 150 z M 202.5 150 C 199.739 150 197.5 152.239 197.5 155 C 197.5 157.761 199.739 160 202.5 160 L 287.5 160 C 290.262 160 292.5 157.761 292.5 155 C 292.5 152.239 290.262 150 287.5 150 L 202.5 150 z M 187.5 170 A 5 5 0 0 0 187.5 180 A 5 5 0 0 0 187.5 170 z M 202.5 170 C 199.739 170 197.5 172.239 197.5 175 C 197.5 177.761 199.739 180 202.5 180 L 287.5 180 C 290.262 180 292.5 177.761 292.5 175 C 292.5 172.239 290.262 170 287.5 170 L 202.5 170 z M 187.5 190 A 5 5 0 0 0 187.5 200 A 5 5 0 0 0 187.5 190 z M 202.5 190 C 199.739 190 197.5 192.239 197.5 195 C 197.5 197.761 199.739 200 202.5 200 L 287.5 200 C 290.262 200 292.5 197.761 292.5 195 C 292.5 192.239 290.262 190 287.5 190 L 202.5 190 z M 47.5 195 C 36.472 195 27.5 203.972 27.5 215 C 27.5 226.028 36.472 235 47.5 235 C 58.528 235 67.5 226.028 67.5 215 C 67.5 203.972 58.528 195 47.5 195 z M 345.40039 202.97656 C 375.1911 203.34133 399.50781 227.80217 399.50781 257.88477 C 399.50781 289.17577 373.333 314.01195 342.5 312.75195 L 342.5 203.01758 C 343.47175 202.97858 344.4394 202.9648 345.40039 202.97656 z M 47.5 205 C 53.014 205 57.5 209.486 57.5 215 C 57.5 220.514 53.014 225 47.5 225 C 41.986 225 37.5 220.514 37.5 215 C 37.5 209.486 41.986 205 47.5 205 z M 187.5 210 A 5 5 0 0 0 187.5 220 A 5 5 0 0 0 187.5 210 z M 202.5 210 C 199.739 210 197.5 212.239 197.5 215 C 197.5 217.761 199.739 220 202.5 220 L 287.5 220 C 290.262 220 292.5 217.761 292.5 215 C 292.5 212.239 290.262 210 287.5 210 L 202.5 210 z M 216.46484 241.57617 C 214.51095 241.6478 212.69684 242.8697 211.96484 244.81445 L 208.93164 252.87695 C 202.77264 251.24395 196.56412 250.43164 190.07812 250.43164 C 179.13512 250.43164 170.84336 253.15091 170.94336 253.12891 C 170.93936 253.12991 170.93664 253.13181 170.93164 253.13281 C 142.40964 261.39981 122.5 287.81392 122.5 317.41992 C 122.5 354.68392 152.81512 385 190.07812 385 C 227.01612 385 257.06641 354.68392 257.06641 317.41992 C 257.06641 310.04192 256.14303 303.46448 254.33203 297.77148 L 262.04492 294.96094 C 264.66392 294.00594 265.99995 291.08856 265.00195 288.47656 C 256.81495 267.06556 239.84069 250.0903 218.42969 241.9043 C 217.78244 241.65705 217.11614 241.5523 216.46484 241.57617 z M 219.49023 253.20703 C 234.52323 260.22203 246.64978 272.33823 253.67578 287.36523 L 199.17578 307.22656 L 219.49023 253.20703 z M 188.79102 260.44727 C 194.37552 260.31524 199.99523 260.9393 205.39648 262.2793 L 191.08008 300.34375 L 178.83008 261.51172 C 182.1012 260.87909 185.44031 260.52648 188.79102 260.44727 z M 169.20898 264.25195 C 186.48398 318.98395 185.79903 317.08458 186.20703 317.89258 C 186.42003 318.31458 186.67814 318.68134 186.99414 319.02734 C 187.03614 319.07234 187.06928 319.12397 187.11328 319.16797 C 187.12928 319.18497 187.15002 319.19494 187.16602 319.21094 C 187.76702 319.80194 188.5927 320.28591 189.4707 320.50391 L 244.62305 334.09375 C 237.53005 357.73675 215.76512 375 190.07812 375 C 158.32913 375 132.5 349.16992 132.5 317.41992 C 132.5 293.82992 147.37198 272.62095 169.20898 264.25195 z M 244.93359 301.19531 C 247.05059 308.09831 247.52648 316.84897 246.64648 324.29297 L 207.81055 314.72266 L 244.93359 301.19531 z M 50 350 A 7.5 7.5 0 0 0 50 365 A 7.5 7.5 0 0 0 50 350 z M 480 375 A 7.5 7.5 0 0 0 480 390 A 7.5 7.5 0 0 0 480 375 z M 412.5 410 C 395.958 410 382.5 423.458 382.5 440 C 382.5 456.542 395.958 470 412.5 470 C 429.042 470 442.5 456.542 442.5 440 C 442.5 423.458 429.042 410 412.5 410 z M 412.5 420 C 423.528 420 432.5 428.972 432.5 440 C 432.5 451.028 423.528 460 412.5 460 C 401.472 460 392.5 451.028 392.5 440 C 392.5 428.972 401.472 420 412.5 420 z M 82.5 435 L 332.5 435 L 332.5 449.66602 C 332.5 469.14902 316.64997 485 297.16797 485 L 117.83203 485 C 98.349031 485 82.5 469.14997 82.5 449.66797 L 82.5 435 z M 207.5 440 C 196.472 440 187.5 448.972 187.5 460 C 187.5 471.028 196.472 480 207.5 480 C 218.528 480 227.5 471.028 227.5 460 C 227.5 448.972 218.528 440 207.5 440 z M 207.5 450 C 213.014 450 217.5 454.486 217.5 460 C 217.5 465.514 213.014 470 207.5 470 C 201.986 470 197.5 465.514 197.5 460 C 197.5 454.486 201.986 450 207.5 450 z M 370 455 A 7.5 7.5 0 0 0 370 470 A 7.5 7.5 0 0 0 370 455 z"/></svg>