<svg xmlns="http://www.w3.org/2000/svg"  viewBox="0 0 64 64" width="64px" height="64px"><path d="M 1 0 A 1 1 0 0 0 0 1 L 0 7 A 1 1 0 0 0 1 8 L 2 8 L 2 53 A 1 1 0 0 0 3 54 L 8 54 L 8 52 L 4 52 L 4 38 L 23 38 A 1 1 0 0 0 24 37 L 24 13 A 1 1 0 0 0 23 12 L 4 12 L 4 8 L 6 8 L 6 6 L 2 6 L 2 2 L 32 2 L 32 6 L 12 6 L 12 8 L 33 8 A 1 1 0 0 0 34 7 L 34 1 A 1 1 0 0 0 33 0 L 1 0 z M 8 6 L 8 8 L 10 8 L 10 6 L 8 6 z M 32 10 A 3 3 0 0 0 29 13 L 29 19 A 1 1 0 0 0 30 20 L 31 20 L 31 22.085938 A 5.656 5.656 0 0 0 26 28 L 26 59 A 5.006 5.006 0 0 0 31 64 L 59 64 A 5.006 5.006 0 0 0 64 59 L 64 28 A 5.656 5.656 0 0 0 59 22.085938 L 59 20 L 60 20 A 1 1 0 0 0 61 19 L 61 13 A 3 3 0 0 0 58 10 L 32 10 z M 32 12 L 58 12 A 1 1 0 0 1 59 13 L 59 18 L 56 18 L 56 14 L 54 14 L 54 18 L 52 18 L 52 14 L 50 14 L 50 18 L 48 18 L 48 14 L 46 14 L 46 18 L 44 18 L 44 14 L 42 14 L 42 18 L 40 18 L 40 14 L 38 14 L 38 18 L 36 18 L 36 14 L 34 14 L 34 18 L 31 18 L 31 13 A 1 1 0 0 1 32 12 z M 4 14 L 22 14 L 22 36 L 4 36 L 4 14 z M 6 16 L 6 18 L 20 18 L 20 16 L 6 16 z M 6 20 L 6 22 L 8 22 L 8 20 L 6 20 z M 10 20 L 10 22 L 19 22 L 19 20 L 10 20 z M 33 20 L 57 20 L 57 23 A 1 1 0 0 0 58 24 C 58.163 24 62 24.045 62 28 L 62 52 L 30 52 L 30 54 L 62 54 L 62 59 A 3 3 0 0 1 59 62 L 31 62 A 3 3 0 0 1 28 59 L 28 32 L 56 32 L 56 30 L 28 30 L 28 28 A 3.85 3.85 0 0 1 32 24 A 1 1 0 0 0 33 23 L 33 20 z M 58 30 L 58 32 L 60 32 L 60 30 L 58 30 z M 42 34 A 1 1 0 0 0 41 35 L 41 38 L 38 38 A 1 1 0 0 0 37 39 L 37 45 A 1 1 0 0 0 38 46 L 41 46 L 41 49 A 1 1 0 0 0 42 50 L 48 50 A 1 1 0 0 0 49 49 L 49 46 L 52 46 A 1 1 0 0 0 53 45 L 53 39 A 1 1 0 0 0 52 38 L 49 38 L 49 35 A 1 1 0 0 0 48 34 L 42 34 z M 43 36 L 47 36 L 47 39 A 1 1 0 0 0 48 40 L 51 40 L 51 44 L 48 44 A 1 1 0 0 0 47 45 L 47 48 L 43 48 L 43 45 A 1 1 0 0 0 42 44 L 39 44 L 39 40 L 42 40 A 1 1 0 0 0 43 39 L 43 36 z M 10.763672 44.039062 A 3.9 3.9 0 0 0 8.1425781 50.658203 L 16.341797 58.859375 A 3.891 3.891 0 0 0 19.099609 60 A 3.9 3.9 0 0 0 21.857422 53.34375 L 13.65625 45.144531 A 3.9 3.9 0 0 0 10.763672 44.039062 z M 10.900391 46 A 1.9 1.9 0 0 1 12.244141 46.554688 L 15.636719 49.949219 L 12.951172 52.634766 L 9.5566406 49.242188 A 1.9 1.9 0 0 1 10.900391 46 z M 17.050781 51.363281 L 20.443359 54.755859 A 1.9 1.9 0 0 1 17.757812 57.441406 L 14.365234 54.048828 L 17.050781 51.363281 z"/></svg>