<svg xmlns="http://www.w3.org/2000/svg" xmlns:xlink="http://www.w3.org/1999/xlink" viewBox="0,0,256,256" width="64px" height="64px" fill-rule="nonzero"><g fill="#82fd6e" fill-rule="nonzero" stroke="none" stroke-width="1" stroke-linecap="butt" stroke-linejoin="miter" stroke-miterlimit="10" stroke-dasharray="" stroke-dashoffset="0" font-family="none" font-weight="none" font-size="none" text-anchor="none" style="mix-blend-mode: normal"><g transform="scale(4,4)"><path d="M1,0c-0.55228,0 -1,0.44772 -1,1v6c0,0.55228 0.44772,1 1,1h1v45c0,0.55228 0.44772,1 1,1h5v-2h-4v-14h19c0.55228,0 1,-0.44772 1,-1v-24c0,-0.55228 -0.44772,-1 -1,-1h-19v-4h2v-2h-4v-4h30v4h-20v2h21c0.55228,0 1,-0.44772 1,-1v-6c0,-0.55228 -0.44772,-1 -1,-1zM8,6v2h2v-2zM32,10c-1.65685,0 -3,1.34315 -3,3v6c0,0.55228 0.44772,1 1,1h1v2.08594c-2.96658,0.34228 -5.15593,2.93187 -5,5.91406v31c0.00331,2.76005 2.23995,4.99669 5,5h28c2.76005,-0.00331 4.99669,-2.23995 5,-5v-31c0.15593,-2.98219 -2.03342,-5.57178 -5,-5.91406v-2.08594h1c0.55228,0 1,-0.44772 1,-1v-6c0,-1.65685 -1.34315,-3 -3,-3zM32,12h26c0.55228,0 1,0.44772 1,1v5h-3v-4h-2v4h-2v-4h-2v4h-2v-4h-2v4h-2v-4h-2v4h-2v-4h-2v4h-2v-4h-2v4h-3v-5c0,-0.55228 0.44772,-1 1,-1zM4,14h18v22h-18zM6,16v2h14v-2zM6,20v2h2v-2zM10,20v2h9v-2zM33,20h24v3c0,0.55228 0.44772,1 1,1c0.163,0 4,0.045 4,4v24h-32v2h32v5c0,1.65685 -1.34315,3 -3,3h-28c-1.65685,0 -3,-1.34315 -3,-3v-27h28v-2h-28v-2c-0.0427,-1.07339 0.365,-2.1158 1.1246,-2.8754c0.7596,-0.7596 1.80202,-1.1673 2.8754,-1.1246c0.55228,0 1,-0.44772 1,-1zM58,30v2h2v-2zM42,34c-0.55228,0 -1,0.44772 -1,1v3h-3c-0.55228,0 -1,0.44772 -1,1v6c0,0.55228 0.44772,1 1,1h3v3c0,0.55228 0.44772,1 1,1h6c0.55228,0 1,-0.44772 1,-1v-3h3c0.55228,0 1,-0.44772 1,-1v-6c0,-0.55228 -0.44772,-1 -1,-1h-3v-3c0,-0.55228 -0.44772,-1 -1,-1zM43,36h4v3c0,0.55228 0.44772,1 1,1h3v4h-3c-0.55228,0 -1,0.44772 -1,1v3h-4v-3c0,-0.55228 -0.44772,-1 -1,-1h-3v-4h3c0.55228,0 1,-0.44772 1,-1zM10.76367,44.03906c-1.53597,0.06742 -2.889,1.03093 -3.45504,2.46038c-0.56604,1.42945 -0.23946,3.05807 0.83395,4.15876l8.19922,8.20117c0.73113,0.73165 1.72348,1.14208 2.75781,1.14063c1.57678,-0.00055 2.99809,-0.95051 3.60163,-2.40721c0.60354,-1.4567 0.27054,-3.1335 -0.84381,-4.24904l-8.20117,-8.19922c-0.77031,-0.75189 -1.81714,-1.15196 -2.89258,-1.10547zM10.90039,46c0.50374,-0.00055 0.98707,0.19897 1.34375,0.55469l3.39258,3.39453l-2.68555,2.68555l-3.39453,-3.39258c-0.54249,-0.54355 -0.70443,-1.36022 -0.4104,-2.06965c0.29403,-0.70943 0.98621,-1.1721 1.75415,-1.17254zM17.05078,51.36328l3.39258,3.39258c0.70049,0.74825 0.68123,1.91725 -0.04353,2.64201c-0.72477,0.72477 -1.89376,0.74403 -2.64201,0.04353l-3.39258,-3.39258z"></path></g></g></svg>