<svg height="2500" viewBox=".0 .0 27.386 20.097" width="2437" xmlns="http://www.w3.org/2000/svg">
  <path d="m16.27 14.096a3.91 3.91 0 1 1 -7.823-.002 3.91 3.91 0 0 1 7.822.002" fill="#00a89c"/>
  <path d="m12.358 19.348a5.239 5.239 0 0 1 -3.383-1.235 5.242 5.242 0 0 1 -1.87-4.018c0-.972.262-1.882.722-2.663l4.53-7.846 1.762 3.048v.001l2.767 4.796.003.003a5.254 5.254 0 0 1 -4.531 7.914m2.378-17.415h4.482l-2.871 4.974-.979-1.695-1.818-3.152c.262-.09.617-.127 1.187-.127m2.651 6.776 4.953-8.577h-7.644c-2.132.055-2.691.476-3.503 1.879l-4.917 8.52a7.055 7.055 0 0 0 -.967 3.565 7.043 7.043 0 0 0 7.048 7.047 7.048 7.048 0 0 0 6.035-10.69zm0 0" fill="#00a89c"/>
</svg>
