<svg xmlns="http://www.w3.org/2000/svg"  viewBox="0 0 64 64" width="64px" height="64px"><path d="M 43.904297 0 A 1.99365 1.99365 0 0 0 41.914062 1.8007812 L 41.773438 3.2109375 L 40.675781 2.3144531 A 1.996 1.996 0 0 0 37.996094 2.4472656 L 36.447266 3.9960938 A 1.996 1.996 0 0 0 36.314453 6.6777344 L 37.210938 7.7734375 L 35.802734 7.9160156 A 1.99372 1.99372 0 0 0 34 9.9042969 L 34 12.095703 A 1.99365 1.99365 0 0 0 35.800781 14.085938 L 37.210938 14.226562 L 36.314453 15.324219 A 1.99471 1.99471 0 0 0 36.447266 18.003906 L 37.996094 19.552734 A 1.99286 1.99286 0 0 0 40.677734 19.685547 L 41.773438 18.789062 L 41.916016 20.199219 A 1.99372 1.99372 0 0 0 43.904297 22 L 46.095703 22 A 1.99365 1.99365 0 0 0 48.085938 20.199219 L 48.226562 18.789062 L 49.324219 19.685547 A 1.99274 1.99274 0 0 0 52.003906 19.552734 L 53.552734 18.003906 A 1.996 1.996 0 0 0 53.685547 15.322266 L 52.789062 14.226562 L 54.199219 14.083984 A 1.99372 1.99372 0 0 0 56 12.095703 L 56 9.9042969 A 1.99372 1.99372 0 0 0 54.197266 7.9140625 L 52.789062 7.7734375 L 53.685547 6.6757812 A 1.99471 1.99471 0 0 0 53.552734 3.9960938 L 52.003906 2.4472656 A 1.99494 1.99494 0 0 0 49.322266 2.3144531 L 48.226562 3.2109375 L 48.085938 1.8027344 A 1.99372 1.99372 0 0 0 46.095703 0 L 43.904297 0 z M 43.904297 2 L 46.095703 2 L 46.236328 3.4101562 A 2.0002 2.0002 0 0 0 49.492188 4.7597656 L 50.589844 3.8613281 L 52.138672 5.4101562 L 51.240234 6.5078125 A 2.00034 2.00034 0 0 0 52.589844 9.7636719 L 54 9.9042969 L 54 12.095703 L 52.589844 12.236328 A 2.0002 2.0002 0 0 0 51.240234 15.492188 L 52.138672 16.589844 L 50.589844 18.138672 L 49.492188 17.240234 A 2.00034 2.00034 0 0 0 46.236328 18.589844 L 46.095703 20 L 43.904297 20 L 43.763672 18.589844 A 1.99916 1.99916 0 0 0 40.507812 17.240234 L 39.410156 18.138672 L 37.861328 16.589844 L 38.759766 15.492188 A 2.00034 2.00034 0 0 0 37.410156 12.236328 L 36 12.095703 L 36 9.9042969 L 37.410156 9.7636719 A 2.0002 2.0002 0 0 0 38.759766 6.5078125 L 37.861328 5.4101562 L 39.410156 3.8613281 L 40.507812 4.7597656 A 2.00034 2.00034 0 0 0 43.763672 3.4101562 L 43.904297 2 z M 45.207031 6.0039062 A 5 5 0 0 0 40 11 A 5.00588 5.00588 0 0 0 45 16 A 5 5 0 0 0 45.207031 6.0039062 z M 14.914062 7 A 1.99142 1.99142 0 0 0 12.921875 8.8203125 L 12.714844 11.072266 L 10.978516 9.6230469 A 1.9905 1.9905 0 0 0 8.2832031 9.7460938 L 6.7460938 11.285156 A 1.99233 1.99233 0 0 0 6.6230469 13.978516 L 8.0722656 15.716797 L 5.8183594 15.921875 A 2.091 2.091 0 0 0 4 18 A 0.99943 0.99943 0 0 0 5 19 A 0.99943 0.99943 0 0 0 6 18 C 6 17.96777 6.0293169 17.914062 5.9980469 17.914062 L 8.2539062 17.708984 A 2.00038 2.00038 0 0 0 9.609375 14.4375 L 8.1601562 12.697266 L 9.6972656 11.160156 L 11.435547 12.609375 A 2.00017 2.00017 0 0 0 14.708984 11.253906 L 14.914062 9 L 17.085938 8.9980469 L 17.291016 11.253906 A 2.00038 2.00038 0 0 0 20.564453 12.609375 L 22.302734 11.160156 L 23.839844 12.697266 L 22.390625 14.435547 A 2.00017 2.00017 0 0 0 23.746094 17.708984 L 25.947266 17.898438 A 0.16581 0.16581 0 0 1 26 18 A 1 1 0 0 0 28 18 A 2.09105 2.09105 0 0 0 26.179688 15.921875 L 23.927734 15.714844 L 25.376953 13.978516 A 1.99267 1.99267 0 0 0 25.253906 11.283203 L 23.714844 9.7460938 A 1.9914 1.9914 0 0 0 21.021484 9.6230469 L 19.283203 11.072266 L 19.078125 8.8183594 A 1.99132 1.99132 0 0 0 17.085938 7 L 14.914062 7 z M 45 8 A 3 3 0 1 1 42 11 A 3.00328 3.00328 0 0 1 45 8 z M 16 13 A 5.00588 5.00588 0 0 0 11 18 A 1 1 0 0 0 13 18 A 3 3 0 0 1 19 18 A 1 1 0 0 0 21 18 A 5.00588 5.00588 0 0 0 16 13 z M 10 20 A 3.00328 3.00328 0 0 0 7 23 L 7 54 L 4 54 A 0.9997 0.9997 0 0 0 3.0292969 55.242188 L 4.6523438 61.728516 A 2.99544 2.99544 0 0 0 7.5605469 64 L 56.439453 64 A 2.99524 2.99524 0 0 0 59.349609 61.728516 L 60.970703 55.242188 A 0.99687 0.99687 0 0 0 60.789062 54.384766 A 0.999 0.999 0 0 0 60 54 L 57 54 L 57 23 A 3.00328 3.00328 0 0 0 54 20 A 1 1 0 0 0 54 22 A 1.00067 1.00067 0 0 1 55 23 L 55 54 L 53 54 L 53 25 A 0.99943 0.99943 0 0 0 52 24 L 12 24 A 0.99943 0.99943 0 0 0 11 25 L 11 54 L 9 54 L 9 23 A 1.00067 1.00067 0 0 1 10 22 L 36 22 A 1 1 0 0 0 36 20 L 10 20 z M 13 26 L 51 26 L 51 54 L 38 54 A 0.99943 0.99943 0 0 0 37 55 L 37 57 L 27 57 L 27 55 A 0.99943 0.99943 0 0 0 26 54 L 13 54 L 13 26 z M 16 28 A 0.99943 0.99943 0 0 0 15 29 L 15 51 A 0.99943 0.99943 0 0 0 16 52 L 48 52 A 0.99943 0.99943 0 0 0 49 51 L 49 29 A 0.99943 0.99943 0 0 0 48 28 L 16 28 z M 17 30 L 47 30 L 47 32 L 17 32 L 17 30 z M 17 34 L 47 34 L 47 50 L 17 50 L 17 34 z M 26.974609 36 A 1.00211 1.00211 0 0 0 26.359375 36.232422 L 20.359375 41.232422 A 1.00148 1.00148 0 0 0 20.359375 42.767578 L 26.359375 47.767578 A 1.0005314 1.0005314 0 0 0 27.640625 46.232422 L 22.5625 42 L 27.640625 37.767578 A 1.0013 1.0013 0 0 0 27.767578 36.359375 A 1.00211 1.00211 0 0 0 26.974609 36 z M 33.980469 36 A 0.99925 0.99925 0 0 0 33.072266 36.628906 L 29.072266 46.628906 A 1.0003 1.0003 0 0 0 29.628906 47.927734 A 1.00046 1.00046 0 0 0 30.927734 47.371094 L 34.927734 37.371094 A 1.0003 1.0003 0 0 0 34.371094 36.072266 A 0.99925 0.99925 0 0 0 33.980469 36 z M 36.994141 36 A 1.0005314 1.0005314 0 0 0 36.359375 37.767578 L 41.4375 42 L 36.359375 46.232422 A 1.0005314 1.0005314 0 0 0 37.640625 47.767578 L 43.640625 42.767578 A 1.00148 1.00148 0 0 0 43.640625 41.232422 L 37.640625 36.232422 A 1.0005314 1.0005314 0 0 0 36.994141 36 z M 5.2792969 56 L 25 56 L 25 58 A 0.99943 0.99943 0 0 0 26 59 L 38 59 A 0.99943 0.99943 0 0 0 39 58 L 39 56 L 58.720703 56 L 57.410156 61.242188 A 0.99964 0.99964 0 0 1 56.439453 62 L 7.5605469 62 A 0.99984 0.99984 0 0 1 6.5898438 61.242188 L 5.2792969 56 z"/></svg>