<svg xmlns="http://www.w3.org/2000/svg" xmlns:xlink="http://www.w3.org/1999/xlink" viewBox="0,0,256,256" width="64px" height="64px" fill-rule="nonzero"><g fill="#82fd6e" fill-rule="nonzero" stroke="none" stroke-width="1" stroke-linecap="butt" stroke-linejoin="miter" stroke-miterlimit="10" stroke-dasharray="" stroke-dashoffset="0" font-family="none" font-weight="none" font-size="none" text-anchor="none" style="mix-blend-mode: normal"><g transform="scale(4,4)"><path d="M43.9043,0c-1.02863,-0.00306 -1.89073,0.77697 -1.99023,1.80078l-0.14062,1.41016l-1.09766,-0.89648c-0.79423,-0.65218 -1.95384,-0.5947 -2.67969,0.13281l-1.54883,1.54883c-0.72868,0.7261 -0.78618,1.88709 -0.13281,2.68164l0.89648,1.0957l-1.4082,0.14258c-1.02382,0.09853 -1.80466,0.95973 -1.80273,1.98828v2.19141c-0.00306,1.02863 0.77697,1.89073 1.80078,1.99024l1.41016,0.14062l-0.89648,1.09766c-0.65279,0.79402 -0.59529,1.9541 0.13281,2.67969l1.54883,1.54883c0.72546,0.73013 1.88758,0.78768 2.68164,0.13281l1.0957,-0.89648l0.14258,1.41016c0.09947,1.02305 0.96041,1.8028 1.98828,1.80078h2.19141c1.02863,0.00306 1.89073,-0.77697 1.99023,-1.80078l0.14062,-1.41016l1.09766,0.89648c0.79371,0.65373 1.95451,0.5962 2.67969,-0.13281l1.54883,-1.54883c0.72868,-0.7261 0.78618,-1.88709 0.13281,-2.68164l-0.89648,-1.0957l1.41016,-0.14258c1.02305,-0.09947 1.8028,-0.96041 1.80078,-1.98828v-2.19141c0.00293,-1.0293 -0.77816,-1.89164 -1.80273,-1.99023l-1.4082,-0.14062l0.89648,-1.09766c0.65279,-0.79402 0.59529,-1.9541 -0.13281,-2.67969l-1.54883,-1.54883c-0.72589,-0.72917 -1.88726,-0.78669 -2.68164,-0.13281l-1.0957,0.89648l-0.14062,-1.4082c-0.0986,-1.02457 -0.96094,-1.80567 -1.99023,-1.80273zM43.9043,2h2.19141l0.14063,1.41016c0.07339,0.73303 0.54378,1.36638 1.22433,1.64848c0.68054,0.2821 1.46106,0.16727 2.03153,-0.29887l1.09766,-0.89844l1.54883,1.54883l-0.89844,1.09766c-0.46604,0.5705 -0.5808,1.35097 -0.29872,2.03147c0.28208,0.6805 0.91535,1.1509 1.64833,1.22439l1.41016,0.14063v2.19141l-1.41016,0.14063c-0.73303,0.07339 -1.36638,0.54378 -1.64848,1.22433c-0.2821,0.68054 -0.16727,1.46106 0.29887,2.03153l0.89844,1.09766l-1.54883,1.54883l-1.09766,-0.89844c-0.5705,-0.46604 -1.35097,-0.5808 -2.03147,-0.29872c-0.6805,0.28208 -1.1509,0.91535 -1.22439,1.64833l-0.14062,1.41016h-2.19141l-0.14062,-1.41016c-0.07271,-0.73341 -0.54305,-1.36733 -1.22388,-1.64955c-0.68083,-0.28222 -1.46172,-0.16695 -2.03198,0.29994l-1.09766,0.89844l-1.54883,-1.54883l0.89844,-1.09766c0.46604,-0.5705 0.5808,-1.35097 0.29872,-2.03147c-0.28208,-0.6805 -0.91535,-1.1509 -1.64833,-1.22439l-1.41016,-0.14062v-2.19141l1.41016,-0.14062c0.73303,-0.07339 1.36638,-0.54378 1.64847,-1.22433c0.2821,-0.68054 0.16727,-1.46106 -0.29886,-2.03153l-0.89844,-1.09766l1.54883,-1.54883l1.09766,0.89844c0.5705,0.46604 1.35097,0.5808 2.03147,0.29872c0.6805,-0.28208 1.1509,-0.91535 1.22439,-1.64833zM45.20703,6.00391c-1.3609,-0.0564 -2.6859,0.44484 -3.66873,1.38786c-0.98283,0.94301 -1.5384,2.24617 -1.5383,3.60824c0.00324,2.76008 2.23992,4.99676 5,5c2.72483,0.00527 4.95217,-2.17221 5.00859,-4.89646c0.05642,-2.72425 -2.07885,-4.99208 -4.80156,-5.09964zM14.91406,7c-1.03663,-0.00423 -1.90313,0.78751 -1.99219,1.82031l-0.20703,2.25195l-1.73633,-1.44922c-0.79343,-0.66704 -1.96596,-0.61351 -2.69531,0.12305l-1.53711,1.53906c-0.73452,0.72948 -0.78799,1.89995 -0.12305,2.69336l1.44922,1.73828l-2.25391,0.20508c-1.04236,0.13708 -1.82086,1.02679 -1.81836,2.07813c-0.00015,0.26526 0.10516,0.5197 0.29273,0.70727c0.18757,0.18757 0.44201,0.29288 0.70727,0.29273c0.26526,0.00015 0.5197,-0.10516 0.70727,-0.29273c0.18757,-0.18757 0.29288,-0.44201 0.29273,-0.70727c0,-0.03223 0.02932,-0.08594 -0.00195,-0.08594l2.25586,-0.20508c0.73993,-0.0677 1.38137,-0.53993 1.66578,-1.22637c0.28441,-0.68643 0.16492,-1.47395 -0.31031,-2.04512l-1.44922,-1.74023l1.53711,-1.53711l1.73828,1.44922c0.5711,0.4765 1.35944,0.59676 2.04664,0.31221c0.6872,-0.28456 1.15975,-0.92692 1.2268,-1.66768l0.20508,-2.25391l2.17188,-0.00195l0.20508,2.25586c0.0672,0.74067 0.53976,1.38292 1.22689,1.66745c0.68714,0.28453 1.4754,0.16436 2.04654,-0.31198l1.73828,-1.44922l1.53711,1.53711l-1.44922,1.73828c-0.4765,0.5711 -0.59676,1.35944 -0.31221,2.04664c0.28456,0.6872 0.92692,1.15975 1.66768,1.2268l2.20117,0.18945c0.02907,0.02652 0.04777,0.06252 0.05273,0.10156c0,0.55228 0.44772,1 1,1c0.55228,0 1,-0.44772 1,-1c0.00235,-1.05198 -0.77719,-1.94192 -1.82031,-2.07812l-2.25195,-0.20703l1.44922,-1.73633c0.66599,-0.79378 0.61249,-1.96551 -0.12305,-2.69531l-1.53906,-1.53711c-0.72928,-0.73495 -1.9001,-0.78844 -2.69336,-0.12305l-1.73828,1.44922l-0.20508,-2.25391c-0.08997,-1.03205 -0.95623,-1.82272 -1.99219,-1.81836zM45,8c1.65685,0 3,1.34315 3,3c0,1.65685 -1.34315,3 -3,3c-1.65685,0 -3,-1.34315 -3,-3c0.00181,-1.6561 1.3439,-2.99819 3,-3zM16,13c-2.76008,0.00324 -4.99676,2.23992 -5,5c0,0.55228 0.44772,1 1,1c0.55228,0 1,-0.44772 1,-1c0,-1.65685 1.34315,-3 3,-3c1.65685,0 3,1.34315 3,3c0,0.55228 0.44772,1 1,1c0.55228,0 1,-0.44772 1,-1c-0.00324,-2.76008 -2.23992,-4.99676 -5,-5zM10,20c-1.6561,0.00181 -2.99819,1.3439 -3,3v31h-3c-0.308,-0.00026 -0.59892,0.14146 -0.78857,0.38414c-0.18965,0.24269 -0.25684,0.55924 -0.18213,0.85804l1.62305,6.48633c0.33258,1.33528 1.53213,2.2722 2.9082,2.27148h48.87891c1.37682,0.00169 2.57747,-0.93546 2.91016,-2.27148l1.62109,-6.48633c0.07508,-0.29852 0.00804,-0.61499 -0.18164,-0.85742c-0.18956,-0.24314 -0.48076,-0.38514 -0.78906,-0.38477h-3v-31c-0.00181,-1.6561 -1.3439,-2.99819 -3,-3c-0.55228,0 -1,0.44772 -1,1c0,0.55228 0.44772,1 1,1c0.55213,0.00037 0.99963,0.44787 1,1v31h-2v-29c0.00015,-0.26526 -0.10516,-0.5197 -0.29273,-0.70727c-0.18757,-0.18757 -0.44201,-0.29288 -0.70727,-0.29273h-40c-0.26526,-0.00015 -0.5197,0.10516 -0.70727,0.29273c-0.18757,0.18757 -0.29288,0.44201 -0.29273,0.70727v29h-2v-31c0.00037,-0.55213 0.44787,-0.99963 1,-1h26c0.55228,0 1,-0.44772 1,-1c0,-0.55228 -0.44772,-1 -1,-1zM13,26h38v28h-13c-0.26526,-0.00015 -0.5197,0.10516 -0.70727,0.29273c-0.18757,0.18757 -0.29288,0.44201 -0.29273,0.70727v2h-10v-2c0.00015,-0.26526 -0.10516,-0.5197 -0.29273,-0.70727c-0.18757,-0.18757 -0.44201,-0.29288 -0.70727,-0.29273h-13zM16,28c-0.26526,-0.00015 -0.5197,0.10516 -0.70727,0.29273c-0.18757,0.18757 -0.29288,0.44201 -0.29273,0.70727v22c-0.00015,0.26526 0.10516,0.5197 0.29273,0.70727c0.18757,0.18757 0.44201,0.29288 0.70727,0.29273h32c0.26526,0.00015 0.5197,-0.10516 0.70727,-0.29273c0.18757,-0.18757 0.29288,-0.44201 0.29273,-0.70727v-22c0.00015,-0.26526 -0.10516,-0.5197 -0.29273,-0.70727c-0.18757,-0.18757 -0.44201,-0.29288 -0.70727,-0.29273zM17,30h30v2h-30zM17,34h30v16h-30zM26.97461,36c-0.22539,0.00606 -0.44214,0.08794 -0.61523,0.23242l-6,5c-0.22706,0.19028 -0.35822,0.47133 -0.35822,0.76758c0,0.29625 0.13116,0.57729 0.35822,0.76758l6,5c0.42569,0.3283 1.03471,0.26154 1.37917,-0.15118c0.34446,-0.41272 0.30122,-1.02387 -0.09792,-1.38397l-5.07812,-4.23242l5.07813,-4.23242c0.42312,-0.35423 0.4799,-0.98401 0.12695,-1.4082c-0.19576,-0.23435 -0.4877,-0.36665 -0.79297,-0.35937zM33.98047,36c-0.40163,0.00803 -0.7594,0.25578 -0.9082,0.62891l-4,10c-0.20429,0.51237 0.04473,1.09341 0.55664,1.29883c0.51236,0.2042 1.09334,-0.04479 1.29883,-0.55664l4,-10c0.20429,-0.51237 -0.04473,-1.09341 -0.55664,-1.29883c-0.12406,-0.04999 -0.25689,-0.07456 -0.39062,-0.07227zM36.99414,36c-0.41939,0.00319 -0.79228,0.26762 -0.93403,0.66234c-0.14175,0.39472 -0.02228,0.83596 0.29927,1.10524l5.07813,4.23242l-5.07812,4.23242c-0.39914,0.36011 -0.44238,0.97125 -0.09792,1.38397c0.34446,0.41272 0.95348,0.47948 1.37917,0.15118l6,-5c0.22706,-0.19028 0.35822,-0.47133 0.35822,-0.76758c0,-0.29625 -0.13116,-0.57729 -0.35822,-0.76758l-6,-5c-0.18131,-0.15135 -0.41031,-0.23368 -0.64648,-0.23242zM5.2793,56h19.7207v2c-0.00015,0.26526 0.10516,0.5197 0.29273,0.70727c0.18757,0.18757 0.44201,0.29288 0.70727,0.29273h12c0.26526,0.00015 0.5197,-0.10516 0.70727,-0.29273c0.18757,-0.18757 0.29288,-0.44201 0.29273,-0.70727v-2h19.7207l-1.31055,5.24219c-0.11109,0.44558 -0.51148,0.75816 -0.9707,0.75781h-48.87891c-0.4592,0.00027 -0.85955,-0.31227 -0.9707,-0.75781z"></path></g></g></svg>