<svg xmlns="http://www.w3.org/2000/svg"  viewBox="0 0 64 64" width="64px" height="64px"><path d="M 11 4 C 9.347656 4 8 5.347656 8 7 L 8 52 L 4 52 C 2.898438 52 2 52.898438 2 54 L 2 56 C 2 58.207031 3.792969 60 6 60 L 54 60 C 56.207031 60 58 58.207031 58 56 L 58 7 C 58 5.347656 56.652344 4 55 4 Z M 11 6 L 55 6 C 55.550781 6 56 6.449219 56 7 L 56 56 C 56 57.101563 55.101563 58 54 58 C 52.898438 58 52 57.101563 52 56 L 52 54 C 52 52.898438 51.101563 52 50 52 L 10 52 L 10 7 C 10 6.449219 10.449219 6 11 6 Z M 20 12 C 19.445313 12 19 12.445313 19 13 L 19 14 C 17.347656 14 16 15.347656 16 17 L 16 20 C 16 21.652344 17.347656 23 19 23 L 21 23 C 21.550781 23 22 23.449219 22 24 L 22 27 C 22 27.550781 21.550781 28 21 28 L 19 28 C 18.449219 28 18 27.550781 18 27 L 18 26 C 18 25.445313 17.554688 25 17 25 C 16.445313 25 16 25.445313 16 26 L 16 27 C 16 28.652344 17.347656 30 19 30 L 19 31 C 19 31.554688 19.445313 32 20 32 C 20.554688 32 21 31.554688 21 31 L 21 30 C 22.652344 30 24 28.652344 24 27 L 24 24 C 24 22.347656 22.652344 21 21 21 L 19 21 C 18.449219 21 18 20.550781 18 20 L 18 17 C 18 16.449219 18.449219 16 19 16 L 21 16 C 21.550781 16 22 16.449219 22 17 L 22 18 C 22 18.554688 22.445313 19 23 19 C 23.554688 19 24 18.554688 24 18 L 24 17 C 24 15.347656 22.652344 14 21 14 L 21 13 C 21 12.445313 20.554688 12 20 12 Z M 29 14 C 28.445313 14 28 14.445313 28 15 C 28 15.554688 28.445313 16 29 16 L 37 16 C 37.554688 16 38 15.554688 38 15 C 38 14.445313 37.554688 14 37 14 Z M 41 14 C 40.445313 14 40 14.445313 40 15 C 40 15.554688 40.445313 16 41 16 L 47 16 C 47.554688 16 48 15.554688 48 15 C 48 14.445313 47.554688 14 47 14 Z M 29 18 C 28.445313 18 28 18.445313 28 19 C 28 19.554688 28.445313 20 29 20 L 43 20 C 43.554688 20 44 19.554688 44 19 C 44 18.445313 43.554688 18 43 18 Z M 29 28 C 28.445313 28 28 28.445313 28 29 C 28 29.554688 28.445313 30 29 30 L 47 30 C 47.554688 30 48 29.554688 48 29 C 48 28.445313 47.554688 28 47 28 Z M 29 32 C 28.445313 32 28 32.445313 28 33 C 28 33.554688 28.445313 34 29 34 L 37 34 C 37.554688 34 38 33.554688 38 33 C 38 32.445313 37.554688 32 37 32 Z M 41 32 C 40.445313 32 40 32.445313 40 33 C 40 33.554688 40.445313 34 41 34 L 43 34 C 43.554688 34 44 33.554688 44 33 C 44 32.445313 43.554688 32 43 32 Z M 14 44 C 13.445313 44 13 44.445313 13 45 L 13 47 C 13 47.554688 13.445313 48 14 48 C 14.554688 48 15 47.554688 15 47 L 15 45 C 15 44.445313 14.554688 44 14 44 Z M 19 44 C 18.445313 44 18 44.445313 18 45 L 18 47 C 18 47.554688 18.445313 48 19 48 C 19.554688 48 20 47.554688 20 47 L 20 45 C 20 44.445313 19.554688 44 19 44 Z M 24 44 C 23.445313 44 23 44.445313 23 45 L 23 47 C 23 47.554688 23.445313 48 24 48 C 24.554688 48 25 47.554688 25 47 L 25 45 C 25 44.445313 24.554688 44 24 44 Z M 29 44 C 28.445313 44 28 44.445313 28 45 L 28 47 C 28 47.554688 28.445313 48 29 48 C 29.554688 48 30 47.554688 30 47 L 30 45 C 30 44.445313 29.554688 44 29 44 Z M 34 44 C 33.445313 44 33 44.445313 33 45 L 33 47 C 33 47.554688 33.445313 48 34 48 C 34.554688 48 35 47.554688 35 47 L 35 45 C 35 44.445313 34.554688 44 34 44 Z M 39 44 C 38.445313 44 38 44.445313 38 45 L 38 47 C 38 47.554688 38.445313 48 39 48 C 39.554688 48 40 47.554688 40 47 L 40 45 C 40 44.445313 39.554688 44 39 44 Z M 44 44 C 43.445313 44 43 44.445313 43 45 L 43 47 C 43 47.554688 43.445313 48 44 48 C 44.554688 48 45 47.554688 45 47 L 45 45 C 45 44.445313 44.554688 44 44 44 Z M 49 44 C 48.445313 44 48 44.445313 48 45 L 48 47 C 48 47.554688 48.445313 48 49 48 C 49.554688 48 50 47.554688 50 47 L 50 45 C 50 44.445313 49.554688 44 49 44 Z M 54 44 C 53.445313 44 53 44.445313 53 45 L 53 47 C 53 47.554688 53.445313 48 54 48 C 54.554688 48 55 47.554688 55 47 L 55 45 C 55 44.445313 54.554688 44 54 44 Z M 4 54 L 50 54 L 50 56 C 50 56.730469 50.210938 57.410156 50.558594 58 L 6 58 C 4.898438 58 4 57.101563 4 56 Z"/></svg>