<svg xmlns="http://www.w3.org/2000/svg" xmlns:xlink="http://www.w3.org/1999/xlink" viewBox="0,0,256,256" width="64px" height="64px" fill-rule="nonzero"><g fill="#82fd6e" fill-rule="nonzero" stroke="none" stroke-width="1" stroke-linecap="butt" stroke-linejoin="miter" stroke-miterlimit="10" stroke-dasharray="" stroke-dashoffset="0" font-family="none" font-weight="none" font-size="none" text-anchor="none" style="mix-blend-mode: normal"><g transform="scale(4,4)"><path d="M11,4c-1.65234,0 -3,1.34766 -3,3v45h-4c-1.10156,0 -2,0.89844 -2,2v2c0,2.20703 1.79297,4 4,4h48c2.20703,0 4,-1.79297 4,-4v-49c0,-1.65234 -1.34766,-3 -3,-3zM11,6h44c0.55078,0 1,0.44922 1,1v49c0,1.10156 -0.89844,2 -2,2c-1.10156,0 -2,-0.89844 -2,-2v-2c0,-1.10156 -0.89844,-2 -2,-2h-40v-45c0,-0.55078 0.44922,-1 1,-1zM20,12c-0.55469,0 -1,0.44531 -1,1v1c-1.65234,0 -3,1.34766 -3,3v3c0,1.65234 1.34766,3 3,3h2c0.55078,0 1,0.44922 1,1v3c0,0.55078 -0.44922,1 -1,1h-2c-0.55078,0 -1,-0.44922 -1,-1v-1c0,-0.55469 -0.44531,-1 -1,-1c-0.55469,0 -1,0.44531 -1,1v1c0,1.65234 1.34766,3 3,3v1c0,0.55469 0.44531,1 1,1c0.55469,0 1,-0.44531 1,-1v-1c1.65234,0 3,-1.34766 3,-3v-3c0,-1.65234 -1.34766,-3 -3,-3h-2c-0.55078,0 -1,-0.44922 -1,-1v-3c0,-0.55078 0.44922,-1 1,-1h2c0.55078,0 1,0.44922 1,1v1c0,0.55469 0.44531,1 1,1c0.55469,0 1,-0.44531 1,-1v-1c0,-1.65234 -1.34766,-3 -3,-3v-1c0,-0.55469 -0.44531,-1 -1,-1zM29,14c-0.55469,0 -1,0.44531 -1,1c0,0.55469 0.44531,1 1,1h8c0.55469,0 1,-0.44531 1,-1c0,-0.55469 -0.44531,-1 -1,-1zM41,14c-0.55469,0 -1,0.44531 -1,1c0,0.55469 0.44531,1 1,1h6c0.55469,0 1,-0.44531 1,-1c0,-0.55469 -0.44531,-1 -1,-1zM29,18c-0.55469,0 -1,0.44531 -1,1c0,0.55469 0.44531,1 1,1h14c0.55469,0 1,-0.44531 1,-1c0,-0.55469 -0.44531,-1 -1,-1zM29,28c-0.55469,0 -1,0.44531 -1,1c0,0.55469 0.44531,1 1,1h18c0.55469,0 1,-0.44531 1,-1c0,-0.55469 -0.44531,-1 -1,-1zM29,32c-0.55469,0 -1,0.44531 -1,1c0,0.55469 0.44531,1 1,1h8c0.55469,0 1,-0.44531 1,-1c0,-0.55469 -0.44531,-1 -1,-1zM41,32c-0.55469,0 -1,0.44531 -1,1c0,0.55469 0.44531,1 1,1h2c0.55469,0 1,-0.44531 1,-1c0,-0.55469 -0.44531,-1 -1,-1zM14,44c-0.55469,0 -1,0.44531 -1,1v2c0,0.55469 0.44531,1 1,1c0.55469,0 1,-0.44531 1,-1v-2c0,-0.55469 -0.44531,-1 -1,-1zM19,44c-0.55469,0 -1,0.44531 -1,1v2c0,0.55469 0.44531,1 1,1c0.55469,0 1,-0.44531 1,-1v-2c0,-0.55469 -0.44531,-1 -1,-1zM24,44c-0.55469,0 -1,0.44531 -1,1v2c0,0.55469 0.44531,1 1,1c0.55469,0 1,-0.44531 1,-1v-2c0,-0.55469 -0.44531,-1 -1,-1zM29,44c-0.55469,0 -1,0.44531 -1,1v2c0,0.55469 0.44531,1 1,1c0.55469,0 1,-0.44531 1,-1v-2c0,-0.55469 -0.44531,-1 -1,-1zM34,44c-0.55469,0 -1,0.44531 -1,1v2c0,0.55469 0.44531,1 1,1c0.55469,0 1,-0.44531 1,-1v-2c0,-0.55469 -0.44531,-1 -1,-1zM39,44c-0.55469,0 -1,0.44531 -1,1v2c0,0.55469 0.44531,1 1,1c0.55469,0 1,-0.44531 1,-1v-2c0,-0.55469 -0.44531,-1 -1,-1zM44,44c-0.55469,0 -1,0.44531 -1,1v2c0,0.55469 0.44531,1 1,1c0.55469,0 1,-0.44531 1,-1v-2c0,-0.55469 -0.44531,-1 -1,-1zM49,44c-0.55469,0 -1,0.44531 -1,1v2c0,0.55469 0.44531,1 1,1c0.55469,0 1,-0.44531 1,-1v-2c0,-0.55469 -0.44531,-1 -1,-1zM54,44c-0.55469,0 -1,0.44531 -1,1v2c0,0.55469 0.44531,1 1,1c0.55469,0 1,-0.44531 1,-1v-2c0,-0.55469 -0.44531,-1 -1,-1zM4,54h46v2c0,0.73047 0.21094,1.41016 0.55859,2h-44.55859c-1.10156,0 -2,-0.89844 -2,-2z"></path></g></g></svg>