<svg xmlns="http://www.w3.org/2000/svg" xmlns:xlink="http://www.w3.org/1999/xlink" viewBox="0,0,256,256" width="50px" height="50px" fill-rule="nonzero"><g fill="#82fd6e" fill-rule="nonzero" stroke="none" stroke-width="1" stroke-linecap="butt" stroke-linejoin="miter" stroke-miterlimit="10" stroke-dasharray="" stroke-dashoffset="0" font-family="none" font-weight="none" font-size="none" text-anchor="none" style="mix-blend-mode: normal"><g transform="scale(5.12,5.12)"><path d="M11,0c-6.04687,0 -11,4.95313 -11,11v28c0,1.125 0.36719,2.16016 1,3v3c0,1.64453 1.35547,3 3,3h4c1.64453,0 3,-1.35547 3,-3v-1h11v-2h-17c-1.65625,0 -3,-1.34375 -3,-3v-28c0,-4.95312 4.04688,-9 9,-9h16c4.95313,0 9,4.04688 9,9v14h2v-14c0,-6.04687 -4.95312,-11 -11,-11zM12,3c-0.52344,0 -1.05859,0.18359 -1.4375,0.5625c-0.37891,0.37891 -0.5625,0.91406 -0.5625,1.4375v2c0,0.52344 0.18359,1.05859 0.5625,1.4375c0.37891,0.37891 0.91406,0.5625 1.4375,0.5625h15c0.52344,0 1.05859,-0.18359 1.4375,-0.5625c0.37891,-0.37891 0.5625,-0.91406 0.5625,-1.4375v-2c0,-0.52344 -0.18359,-1.05859 -0.5625,-1.4375c-0.37891,-0.37891 -0.91406,-0.5625 -1.4375,-0.5625zM12,5h15v2h-15zM7,10c-1.69922,0 -3,1.30078 -3,3v13c0,1.69922 1.30078,3 3,3h17.90625l1.09375,-2h-19c-0.60156,0 -1,-0.39844 -1,-1v-13c0,-0.60156 0.39844,-1 1,-1h24c0.60156,0 1,0.39844 1,1v12h2v-12c0,-1.69922 -1.30078,-3 -3,-3zM31.59375,27c-1.97656,0 -3.74219,1.14453 -4.59375,2.96875v0.03125l-2.625,5.78125v0.0625c-0.25781,0.64844 -0.375,1.33594 -0.375,1.96875v10.1875c0,0.52344 0.18359,1.05859 0.5625,1.4375c0.37891,0.37891 0.91406,0.5625 1.4375,0.5625h3c0.52344,0 1.05859,-0.18359 1.4375,-0.5625c0.37891,-0.37891 0.5625,-0.91406 0.5625,-1.4375v-1h12v1c0,0.52344 0.18359,1.05859 0.5625,1.4375c0.37891,0.37891 0.91406,0.5625 1.4375,0.5625h3c0.52344,0 1.05859,-0.18359 1.4375,-0.5625c0.37891,-0.37891 0.5625,-0.91406 0.5625,-1.4375v-10.1875c0,-0.71094 -0.13281,-1.36328 -0.375,-1.96875v-0.0625l-2.625,-5.78125v-0.03125c-0.85156,-1.82422 -2.61719,-2.96875 -4.59375,-2.96875zM31.59375,29h10.8125c1.22656,0 2.23438,0.63672 2.78125,1.8125l0.8125,1.8125v1.375c0,0.55469 -0.44531,1 -1,1h-16c-0.55469,0 -1,-0.44531 -1,-1v-1.375l0.8125,-1.8125c0.54688,-1.17578 1.55469,-1.8125 2.78125,-1.8125zM8.5,31c-2.47266,0 -4.5,2.02734 -4.5,4.5c0,2.47266 2.02734,4.5 4.5,4.5c2.47266,0 4.5,-2.02734 4.5,-4.5c0,-2.47266 -2.02734,-4.5 -4.5,-4.5zM8.5,33c1.39063,0 2.5,1.10938 2.5,2.5c0,1.39063 -1.10937,2.5 -2.5,2.5c-1.39062,0 -2.5,-1.10937 -2.5,-2.5c0,-1.39062 1.10938,-2.5 2.5,-2.5zM26.5625,35.78125c0.54688,0.74609 1.44922,1.21875 2.4375,1.21875h16c0.98828,0 1.89063,-0.47266 2.4375,-1.21875l0.34375,0.78125c0.00391,0.00781 -0.00391,0.02344 0,0.03125c0.14844,0.38281 0.21875,0.74219 0.21875,1.21875v7.1875h-22v-7.1875c0,-0.35937 0.08594,-0.87109 0.21875,-1.21875c0.00391,-0.00781 -0.00391,-0.02344 0,-0.03125zM30,39c-1.10547,0 -2,0.89453 -2,2c0,1.10547 0.89453,2 2,2c1.10547,0 2,-0.89453 2,-2c0,-1.10547 -0.89453,-2 -2,-2zM44,39c-1.10547,0 -2,0.89453 -2,2c0,1.10547 0.89453,2 2,2c1.10547,0 2,-0.89453 2,-2c0,-1.10547 -0.89453,-2 -2,-2zM3,43.5625c0.61328,0.27344 1.28906,0.4375 2,0.4375h4v1c0,0.55469 -0.44531,1 -1,1h-4c-0.55469,0 -1,-0.44531 -1,-1zM26,47h3v1h-3zM45,47h3v1h-3z"></path></g></g></svg>