<?xml version="1.0" encoding="UTF-8"?>
<svg version="1.1" viewBox="0 0 2048 1141" width="669" height="373" xmlns="http://www.w3.org/2000/svg">
<path transform="translate(0)" d="m0 0h2048v1141h-2048z" fill="#FDFDFD"/>
<path transform="translate(1327,257)" d="m0 0 2 1 5 43 2 24 1 20v61l-3 36-5 32-7 28-10 29-8 18-11 20-10 15-11 14-12 13-15 14-16 12-19 11-23 11-18 6-24 6-29 4h-26l-1-1v-31l2-1 31-4 24-5 20-6 18-8 15-8 16-11 15-13 12-13 7-10 9-13 12-23 9-25 5-21 2-13 2-35 3-81-7 43-6 30-10 40-10 34-10 24-9 14-11 14-11 11-20 13-16 8-27 9-24 4-24 2h-16l-1-1v-113l1-22 4-26 6-22 6-17 12-25 12-18 7-9 9-11h2l1-3h2v-2l8-7 14-12 14-10 22-12 21-10 20-7 26-7 26-5z" fill="#2CB845"/>
<path transform="translate(676,258)" d="m0 0h10l26 4 27 6 26 8 19 8 27 14 15 10 17 14 15 14 9 11 9 12 9 14 9 17 10 26 5 19 5 31 1 8v124l-1 1h-19l-28-3-25-5-19-7-21-11-14-10-12-11-9-11-9-14-7-15-10-28-10-37-7-30-9-53-1-8v23l3 78 3 26 4 17 8 24 11 23 12 18 7 9 12 14 12 11 18 12 18 10 20 8 23 6 30 5 13 1 7 2v31l-5 2-19-1-28-3-25-6-24-8-21-10-15-9-14-10-14-12-16-16-11-14-9-13-12-21-10-22-10-30-6-24-5-28-3-27-1-17v-57l2-34 4-38z" fill="#2CB845"/>
<path transform="translate(989,41)" d="m0 0h26l20 4 16 6 21 11 13 10 11 10 8 10 9 14 8 17 6 21 2 19-1 21-5 21-6 15-8 15-9 12-9 10-11 10-14 9-19 10-19 5-13 2h-27l-20-4-17-6-18-10-14-11-12-11-9-12-9-15-7-17-4-15-2-13v-24l3-18 7-21 8-15 10-14 9-10 12-10 15-10 19-9 13-4z" fill="#2CB845"/>
<path transform="translate(1e3 320)" d="m0 0 25 25 7 8 16 16 5 6-1 4-7 7-9 7-13 12-2 2 1 12 12 87 12 81 23 161 2 13v8l-9 7-19 12-24 15-17 11-5-1-18-11-17-11-24-15-9-6v-8l10-68 18-125 16-111 6-43v-9l-11-10-11-9-10-9 1-4 7-8 13-13 7-8 21-21z" fill="#2CB845"/>
<path transform="translate(253,968)" d="m0 0h17l14 3 13 5 9 6 10 10 8 14 4 11 2 10v17l-3 16-8 16-8 10-12 9-13 6-15 3h-18l-11-2-13-5-10-6-11-10-6-10-5-12-3-14v-17l3-15 5-12 7-11 11-10 16-8 11-3z" fill="#2CB845"/>
<path transform="translate(385,971)" d="m0 0h65l14 3 8 4 7 6 7 12 2 9v8l-2 8-6 8-2 2 1 4 9 8 5 13 1 4v9l-2 9-5 9-7 6-14 7-4 1h-77z" fill="#2CB845"/>
<path transform="translate(1246,971)" d="m0 0h26l6 5 13 17 11 13 11 14 9 11 10 12 3 3v-70l1-4 3-1h26l2 1v127l-1 2h-30l-8-8-10-13-13-16-14-17-13-16-4-4-1 74h-31v-129z" fill="#2CB845"/>
<path transform="translate(763,970)" d="m0 0h9l10 1 5 8 23 54 23 53 5 12v3h-34l-4-9-3-9h-38l-23 1-8 16-1 1h-33l1-5 17-40 13-30 19-45 5-9 1-1z" fill="#2CB845"/>
<path transform="translate(1100,971)" d="m0 0h32l4 5 42 98 10 23v4h-34l-7-17h-61l-8 17-33 1-1-2 6-16 11-24 12-29 19-44 5-12z" fill="#2CB845"/>
<path transform="translate(1895,968)" d="m0 0h18l15 4 11 6 7 6 9 13-1 3-28 11-7-6-9-4h-12l-7 2-6 5 2 4 8 4 30 9 13 5 10 6 8 9 4 10 1 5v7l-3 11-6 9-7 7-14 7-13 3h-20l-14-3-14-7-10-9-7-10-3-9 11-5 16-6 4 2 8 10 8 4 6 1h10l8-2 4-2 1-5-5-5-14-5-19-4-18-8-9-7-6-7-4-10v-13l3-10 7-10 7-6 14-7z" fill="#2CB845"/>
<path transform="translate(1700,971)" d="m0 0h96l1 1v14l-1 15h-65v22h52l1 1v26l-1 1h-52l1 20 64 1 1 1-1 28h-96z" fill="#2CB845"/>
<path transform="translate(934,968)" d="m0 0h20l16 4 12 6 10 8 9 11 4 6-2 4-22 14-4-1-8-10-9-6-9-3h-16l-10 4-9 8-5 10-2 9 1 14 4 10 6 8 8 5 10 3h11l11-4 9-6 7-9 5 1 16 10 7 5-2 5-7 9-8 8-14 8-13 4-5 1h-21l-16-4-12-5-10-8-9-10-8-16-3-13v-24l4-15 6-12 7-9 10-9 12-6 14-4z" fill="#2CB845"/>
<path transform="translate(1481,968)" d="m0 0h18l14 3 12 5 9 6 9 9 7 10 1 4-11 8-13 8-4-1-6-8-8-7-11-4h-17l-10 4-10 10-4 10-1 4v14l4 12 4 6 8 7 12 4h11l12-4 11-8 5-7 4 1 21 13 2 4-6 9-7 8-14 9-13 5-10 2h-19l-15-3-16-8-9-7-9-11-6-13-4-16v-18l3-15 6-14 10-13 10-8 13-6 11-3z" fill="#2CB845"/>
<path transform="translate(542,971)" d="m0 0h33l5 8 13 31 15 35 5 12v2h3l1-6 13-30 12-27 8-20 4-5h33l-1 6-15 34-12 28-13 30-12 28-5 5-32-1-4-8-36-84-11-25-4-9z" fill="#2CB845"/>
<path transform="translate(113,971)" d="m0 0h28l2 3-1 89-3 12-6 11-9 9-14 7-8 2h-17l-12-3-8-4-10-9-8-13-4-10v-4l8-3 16-5h6l7 14 8 5h9l6-3 5-6 2-5 1-83z" fill="#2CB845"/>
<path transform="translate(253 1e3)" d="m0 0h18l9 4 8 7 6 8 3 9v16l-4 11-7 9-9 6-9 3h-11l-13-4-10-9-6-12-1-4v-15l4-12 7-9 9-6z" fill="#FDFDFD"/>
<path transform="translate(1606,971)" d="m0 0h29l2 2v125l-1 3h-30z" fill="#2CB845"/>
<path transform="translate(416 1e3)" d="m0 0h31l7 4 3 4v8l-4 5-6 3h-31z" fill="#FDFDFD"/>
<path transform="translate(416,1051)" d="m0 0h31l9 3 3 4v7l-5 5-9 2h-28l-1-1z" fill="#FDFDFD"/>
<path transform="translate(1116,1014)" d="m0 0 3 3 12 28 3 9h-35l1-5 10-22 5-12z" fill="#FDFDFD"/>
<path transform="translate(765,1015)" d="m0 0h2l11 24 5 12v3h-34l1-5 12-27z" fill="#FDFDFD"/>
</svg>
