<?xml version="1.0" encoding="UTF-8"?>
<svg version="1.1" viewBox="0 0 956 1044" width="239" height="261" xmlns="http://www.w3.org/2000/svg">
<path transform="translate(899,301)" d="m0 0h4l2 8 5 39 4 44 1 21v85l-2 26-3 26-8 45-10 35-9 26-11 25-15 28-8 12-8 11-13 16-7 8-16 16-11 9-12 10-12 8-15 9-24 12-16 7-26 8-30 7-33 4-14 1h-18l-3-2-1-33 1-7 1-1 27-3 31-5 28-7 22-8 19-9 19-11 12-8 13-10 15-14 13-14 10-14 11-16 11-20 10-24 7-21 5-20 4-23 2-36 2-71 2-40v-9l-4 28-8 43-9 43-12 47-11 37-7 18-8 16-9 14-10 13-11 12-7 7-12 8-14 9-14 8-29 11-20 5-26 4-32 3h-20l-2-5v-136l1-25 3-28 5-23 6-23 8-22 12-25 9-16 12-17 10-13 9-10 17-17 8-7 15-12 16-11 16-9 23-12 10-5 24-9 32-9 28-6 27-4z" fill="#2DB943"/>
<path transform="translate(53,301)" d="m0 0 35 4 36 7 29 8 33 12 30 15 20 12 14 10 22 18v2l4 2 18 18 11 14 12 17 9 15 8 16 8 18 11 33 5 24 5 33 1 11 1 45v64l-1 46-5 2h-12l-31-2-33-5-19-5-24-9-19-10-12-8-14-10-18-18-8-10-11-18-10-21-12-35-13-48-7-30-9-47-6-36-1-5 2 61 1 41 2 37 4 30 6 24 9 26 12 26 10 16 12 17 8 10 15 16 8 8 17 13 18 11 22 12 21 8 16 5 26 6 34 5 19 2 2 2v38l-2 2-4 1h-16l-35-3-19-3-32-8-20-7-28-13-20-11-19-13-9-8-11-9-20-20-22-28-11-18-9-16-11-22-10-27-7-22-7-28-6-32-4-30-3-46v-58l3-50 4-40 4-28 2-5z" fill="#2DB943"/>
<path transform="translate(461,18)" d="m0 0h34l23 4 18 6 23 11 14 9 14 11 13 12 11 14 10 15 11 23 6 19 4 22 1 23-2 20-4 19-7 20-8 16-8 14-11 14-5 6-8 7-11 10-17 11-23 12-28 8-21 3h-27l-20-3-25-7-19-9-17-11-14-11-14-13-13-17-9-15-9-19-7-23-3-18-1-12v-12l3-28 7-24 12-25 8-12 8-11 9-10 12-11 14-10 13-8 16-8 19-7 19-4z" fill="#2DB943"/>
<path transform="translate(476,383)" d="m0 0 4 1 9 10 15 16 11 11 7 8 19 19 5 7-1 4h-2l-2 4-7 7-9 7-11 10-8 7-2 2 1 12 26 182 7 46 7 51 24 168 1 15-5 4-31 20-21 13-17 11-18 11-8-4-24-15-19-12-22-14-20-13-1-5 8-55 22-154 11-76 5-36 7-48 11-75 3-25-4-5-8-7-14-12-11-10-6-5 1-4 7-8 17-17 1-2h2l2-4 9-9 7-8 9-9 7-8z" fill="#2DB943"/>
</svg>
